<svg width="32" height="28" viewBox="0 0 32 28" fill="none" xmlns="http://www.w3.org/2000/svg">
<mask id="mask0_214_266" style="mask-type:luminance" maskUnits="userSpaceOnUse" x="0" y="0" width="32" height="28">
<path d="M32 0H0V28H32V0Z" fill="white"/>
</mask>
<g mask="url(#mask0_214_266)">
<path fill-rule="evenodd" clip-rule="evenodd" d="M15.4472 -19.5443C15.1657 -19.6851 14.8343 -19.6851 14.5528 -19.5443L6.55283 -15.5443C6.21404 -15.3749 6.00004 -15.0287 6.00004 -14.6499V-5.27196L-1.00801 -1.76793L-8.5608 -5.54433C-8.84233 -5.68509 -9.1737 -5.68509 -9.45523 -5.54433L-17.4553 -1.54433C-17.7941 -1.37494 -18.0081 -1.02868 -18.0081 -0.649902V9.3501C-18.0081 9.7289 -17.7941 10.0751 -17.4553 10.2445L-10.008 13.9681V23.3501C-10.008 23.7289 -9.79401 24.0751 -9.45523 24.2445L-1.45523 28.2445C-1.1737 28.3853 -0.842327 28.3853 -0.560799 28.2445L6.99601 24.4661L14 27.9681V37.3501C14 37.7289 14.214 38.0751 14.5528 38.2445L22.5528 42.2445C22.8343 42.3853 23.1657 42.3853 23.4472 42.2445L31.4472 38.2445C31.786 38.0751 32 37.7289 32 37.3501V27.9681L39.4472 24.2445C39.786 24.0751 40 23.7289 40 23.3501V13.3501C40 12.9713 39.786 12.6251 39.4472 12.4557L32 8.73207V-0.031868L39.4472 -3.75547C39.786 -3.92487 40 -4.27113 40 -4.6499V-14.6499C40 -15.0287 39.786 -15.3749 39.4472 -15.5443L31.4472 -19.5443C31.1657 -19.6851 30.8343 -19.6851 30.5528 -19.5443L23 -15.7679L15.4472 -19.5443ZM31 10.4681L24 13.9681V22.7321L31 26.2321L38 22.7321V13.9681L31 10.4681ZM22 13.9681L15 10.4681L8.00004 13.9681V22.7321L15 26.2321L22 22.7321V13.9681ZM30 8.73207V-0.031868L23 -3.53187L16 -0.0318699V8.73207L23 12.2321L30 8.73207ZM31 -1.76793L24 -5.26793V-14.0319L31 -17.5319L38 -14.0319V-5.26793L31 -1.76793ZM15 -17.5319L22 -14.0319V-5.26793L15 -1.76793L8.00004 -5.26793V-14.0319L15 -17.5319ZM-8.00802 13.9681V22.7321L-1.00801 26.2321L5.99198 22.7321V13.9681L-1.00801 10.4681L-8.00802 13.9681ZM-0.00801277 8.73207L6.99198 12.2321L13.9919 8.73207V-0.031868L6.99198 -3.53187L-0.00801277 -0.031868V8.73207ZM-2.00802 -0.031868L-9.00802 -3.53187L-16.0081 -0.031868V8.73207L-9.00802 12.2321L-2.00802 8.73207V-0.031868ZM16 27.9681V36.7321L23 40.2321L30 36.7321V27.9681L23 24.4681L16 27.9681Z" fill="white" fill-opacity="0.05"/>
</g>
</svg>
