<svg width="56" height="57" viewBox="0 0 56 57" fill="none" xmlns="http://www.w3.org/2000/svg">
<g clip-path="url(#clip0_217_381)">
<path fill-rule="evenodd" clip-rule="evenodd" d="M56 4.96875C60.8237 1.73975 64 -3.75928 64 -10C64 -19.9409 55.9409 -28 46 -28C36.0591 -28 28 -19.9409 28 -10C28 -6.2998 29.1167 -2.86035 31.0312 0H18H4.96875C6.8833 -2.86035 8 -6.2998 8 -10C8 -19.9409 -0.059082 -28 -10 -28C-19.9412 -28 -28 -19.9409 -28 -10C-28 -0.059082 -19.9412 8 -10 8C-6.2998 8 -2.86035 6.8833 0 4.96875V18V32.0312C-2.86035 30.1167 -6.2998 29 -10 29C-19.9412 29 -28 37.0591 -28 47C-28 56.9409 -19.9412 65 -10 65C-3.75928 65 1.73975 61.8237 4.96875 57H31.0312C34.2603 61.8237 39.7593 65 46 65C55.9409 65 64 56.9409 64 47C64 40.7593 60.8237 35.2603 56 32.0312V4.96875ZM56 32.0312C53.1396 30.1167 49.7002 29 46 29C36.0591 29 28 37.0591 28 47C28 50.7002 29.1167 54.1396 31.0312 57H56V32.0312ZM4.96875 57C6.8833 54.1396 8 50.7002 8 47C8 40.7593 4.82373 35.2603 0 32.0312V57H4.96875ZM0 18C0 27.9409 8.05908 36 18 36C27.9409 36 36 27.9409 36 18C36 8.05908 27.9409 0 18 0C8.05908 0 0 8.05908 0 18ZM0 4.96875V0H4.96875C3.6543 1.96387 1.96387 3.6543 0 4.96875ZM56 4.96875C53.1396 6.8833 49.7002 8 46 8C39.7593 8 34.2603 4.82373 31.0312 0H56V4.96875Z" fill="white" fill-opacity="0.05"/>
</g>
<defs>
<clipPath id="clip0_217_381">
<rect width="56" height="57" fill="white"/>
</clipPath>
</defs>
</svg>
