<svg width="45" height="45" viewBox="0 0 45 45" fill="none" xmlns="http://www.w3.org/2000/svg">
<path d="M22.5 0C16.5326 8.89208e-08 10.8097 2.37053 6.5901 6.5901C2.37053 10.8097 0 16.5326 0 22.5C0 28.4674 2.37053 34.1903 6.5901 38.4099C10.8097 42.6295 16.5326 45 22.5 45C24.575 45 26.25 43.325 26.25 41.25C26.25 40.275 25.875 39.4 25.275 38.725C24.7 38.075 24.325 37.2 24.325 36.25C24.325 34.175 26 32.5 28.075 32.5H32.5C39.4 32.5 45 26.9 45 20C45 8.95 34.925 0 22.5 0ZM8.75 22.5C6.675 22.5 5 20.825 5 18.75C5 16.675 6.675 15 8.75 15C10.825 15 12.5 16.675 12.5 18.75C12.5 20.825 10.825 22.5 8.75 22.5ZM16.25 12.5C14.175 12.5 12.5 10.825 12.5 8.75C12.5 6.675 14.175 5 16.25 5C18.325 5 20 6.675 20 8.75C20 10.825 18.325 12.5 16.25 12.5ZM28.75 12.5C26.675 12.5 25 10.825 25 8.75C25 6.675 26.675 5 28.75 5C30.825 5 32.5 6.675 32.5 8.75C32.5 10.825 30.825 12.5 28.75 12.5ZM36.25 22.5C34.175 22.5 32.5 20.825 32.5 18.75C32.5 16.675 34.175 15 36.25 15C38.325 15 40 16.675 40 18.75C40 20.825 38.325 22.5 36.25 22.5Z" fill="#053B50"/>
</svg>
