<svg width="45" height="45" viewBox="0 0 45 45" fill="none" xmlns="http://www.w3.org/2000/svg">
<path fill-rule="evenodd" clip-rule="evenodd" d="M10.5469 0H34.4531C40.278 0 45 4.722 45 10.5469V34.4531C45 40.278 40.278 45 34.4531 45H10.5469C4.722 45 0 40.278 0 34.4531V10.5469C0 4.722 4.722 0 10.5469 0ZM38.4899 32.1559C39.0014 32.3504 39.5664 32.3508 40.0781 32.157C39.4289 31.2895 38.7847 30.4279 38.1438 29.5707C36.4306 27.2792 34.7411 25.0193 33.0411 22.7644C32.9386 22.6728 32.8567 22.5606 32.8006 22.4351C32.7444 22.3096 32.7154 22.1737 32.7154 22.0363C32.7154 21.8988 32.7444 21.7629 32.8006 21.6374C32.8567 21.512 32.9386 21.3997 33.0411 21.3081C34.0527 20.0552 35.0209 18.7713 35.9902 17.4861C36.2383 17.1571 36.4865 16.8281 36.7355 16.4994L39.4624 12.8831C38.9819 12.6963 38.4495 12.6926 37.9665 12.8728C37.4836 13.053 37.0837 13.4045 36.843 13.8604C35.607 15.6097 34.3068 17.3162 32.982 19.0551C32.5154 19.6675 32.0458 20.2838 31.5749 20.9075C31.0237 20.1676 30.4717 19.4405 29.924 18.7193C28.6848 17.0873 27.4682 15.4851 26.3363 13.8311C26.0554 13.3724 25.6249 13.0247 25.1174 12.8466C24.6099 12.6685 24.0565 12.6711 23.5506 12.8537L30.578 22.0119L23.023 32.1473C23.5136 32.3241 24.0519 32.3165 24.5373 32.1259C25.0228 31.9353 25.4224 31.5747 25.6618 31.1112C27.0489 29.0822 28.5362 27.1089 30.0482 25.103C30.5391 24.4517 31.0325 23.797 31.526 23.1359L32.2592 24.1132C32.7639 24.8075 33.2746 25.4974 33.7852 26.1871C34.9854 27.8083 36.1847 29.4284 37.3024 31.1014C37.556 31.5863 37.9785 31.9614 38.4899 32.1559ZM5.12278 20.8098C5.05867 21.1747 4.99529 21.5354 4.92188 21.8848C4.92197 22.4517 4.92525 23.0187 4.93172 23.5855C4.95196 23.6781 4.97734 23.7724 5.00305 23.8679C5.0642 24.095 5.12719 24.329 5.12719 24.5629C5.29059 26.6579 6.135 28.6419 7.53152 30.2121C8.94312 31.5398 10.7384 32.3871 12.6606 32.6329C14.5829 32.8786 16.5336 32.5103 18.2338 31.5804C19.2629 30.9638 20.1387 30.1219 20.7955 29.118C21.4524 28.1141 21.873 26.9744 22.0259 25.7845C21.0974 25.5012 20.6088 25.6673 20.3057 26.6446C20.0746 27.6056 19.6077 28.494 18.9474 29.2294C18.287 29.9649 17.4539 30.5243 16.5233 30.8572C10.7861 32.7729 6.3 29.0198 6.55418 22.8036H22.1922C22.329 19.3242 21.635 16.2358 18.8592 14.0561C14.1189 10.3321 7.22848 12.8344 5.53764 18.8452C5.35548 19.4856 5.23797 20.1544 5.12278 20.8098ZM20.7163 21.4645H6.57369L6.56385 21.445C6.74965 16.8025 9.76975 13.675 13.992 13.7337C17.7841 13.7629 20.6283 16.9589 20.7163 21.4645Z" fill="#053B50"/>
</svg>
