<svg width="38" height="38" viewBox="0 0 38 38" >
<path fill-rule="evenodd" clip-rule="evenodd" d="M20.9532 0.00233654C22.3396 -0.00298115 23.7261 0.0109501 25.1121 0.044138L25.4807 0.057436C25.8925 0.0721455 26.2991 0.0904103 26.7846 0.112246L26.7868 0.112337L26.8334 0.114435C28.8549 0.209429 30.2342 0.528612 31.4445 0.997889C32.6984 1.48046 33.7548 2.13403 34.8111 3.19038C35.777 4.13958 36.5245 5.28777 37.0017 6.5551C37.471 7.76534 37.7902 9.14657 37.8852 11.1681C37.9079 11.6734 37.9269 12.0952 37.9422 12.5208L37.9535 12.8894C37.9873 14.2748 38.0019 15.6606 37.9973 17.0464L37.9991 18.4637V20.9526C38.0038 22.339 37.9893 23.7254 37.9554 25.1115L37.9441 25.48C37.9293 25.8925 37.911 26.2995 37.8892 26.786L37.8871 26.8328C37.7921 28.8543 37.4691 30.2336 37.0017 31.4438C36.5261 32.7125 35.7783 33.8616 34.8111 34.8105C33.8611 35.7762 32.7123 36.5237 31.4445 37.001C30.2342 37.4703 28.8549 37.7895 26.8334 37.8845L26.7868 37.8866C26.3003 37.9085 25.8932 37.9268 25.4807 37.9415L25.1121 37.9529C23.7261 37.9867 22.3397 38.0012 20.9532 37.9966L19.5359 37.9985H17.0489C15.6625 38.0032 14.2761 37.9886 12.89 37.9548L12.5215 37.9434C12.0704 37.927 11.6195 37.908 11.1687 37.8864C9.14722 37.7914 7.7679 37.4684 6.55576 37.001C5.28792 36.5248 4.13953 35.7772 3.19103 34.8105C2.22407 33.861 1.47584 32.7121 0.998541 31.4438C0.529264 30.2336 0.210081 28.8543 0.115087 26.8328C0.0939308 26.3819 0.074926 25.931 0.0580879 25.48L0.0485893 25.1115C0.0135628 23.7254 -0.00226822 22.339 0.00109635 20.9526V17.0464C-0.00420608 15.6606 0.00972519 14.2748 0.0428902 12.8894L0.0561882 12.5208C0.0713936 12.0952 0.0903908 11.6734 0.113187 11.1681C0.208181 9.14467 0.527364 7.76724 0.996641 6.5551C1.47423 5.28715 2.22391 4.13928 3.19293 3.19228C4.14078 2.22476 5.28845 1.47585 6.55576 0.997889C7.7679 0.528612 9.14532 0.209429 11.1687 0.114435L12.5215 0.057436L12.89 0.0479374C14.2754 0.0129261 15.6612 -0.00290486 17.047 0.00043682L20.9532 0.00233654ZM16.278 9.09306C15.5142 8.58365 14.687 8.17647 13.8175 7.88191L13.8163 7.88307C13.7774 7.86984 13.7377 7.8562 13.6973 7.84231C12.9004 7.56844 11.8265 7.19934 11.1763 7.91897C10.7051 8.44097 10.606 9.23135 10.5216 9.9041L10.521 9.90936L10.5152 9.95336C10.4226 10.6886 10.4017 11.6473 10.6449 12.5968C9.7174 13.7964 9.15815 15.2275 9.15815 16.786C9.15815 19.1516 10.4388 21.2033 12.3342 22.6252C13.2464 23.3009 14.2581 23.8306 15.3331 24.1953C15.081 24.7728 14.9498 25.3958 14.9475 26.0259L14.7542 26.0653C13.9228 26.1787 13.3914 26.078 13.0289 25.924C12.3588 25.6392 11.9371 25.0274 11.5286 24.4347C11.4007 24.2491 11.2741 24.0654 11.1416 23.8943C10.7977 23.4473 10.2952 22.8915 9.52404 22.6345C9.23261 22.5374 8.91456 22.5601 8.63988 22.6976C8.36519 22.835 8.15635 23.076 8.05932 23.3674C7.96228 23.6588 7.98498 23.9769 8.12243 24.2516C8.19049 24.3876 8.28467 24.5089 8.3996 24.6085C8.51453 24.7081 8.64795 24.7841 8.79226 24.8321C9.23553 24.9799 9.58507 25.5473 9.89321 26.0476C10.0342 26.2764 10.1665 26.4913 10.2952 26.6454C10.7271 27.1641 11.3014 27.706 12.1258 28.0557C12.9143 28.3903 13.8418 28.5107 14.9475 28.3752V29.5227C14.9475 29.8298 15.0695 30.1243 15.2867 30.3415C15.5038 30.5586 15.7983 30.6806 16.1054 30.6806H23.0527C23.3598 30.6806 23.6543 30.5586 23.8715 30.3415C24.0886 30.1243 24.2106 29.8298 24.2106 29.5227V26.0491C24.2106 25.3902 24.0728 24.7627 23.825 24.1953C24.9 23.8306 25.9117 23.3009 26.8239 22.6252C28.7194 21.2033 30 19.1504 30 16.786C30 15.2252 29.4396 13.7929 28.5098 12.5922C28.753 11.6427 28.731 10.6863 28.6383 9.9522C28.5561 9.29453 28.4403 8.43307 27.9772 7.91897C27.3269 7.19925 26.2538 7.56748 25.456 7.84126C25.4157 7.8551 25.376 7.86871 25.3372 7.88191C24.4681 8.1762 23.6413 8.58299 22.8779 9.0919C21.8381 8.82443 20.7288 8.68085 19.5791 8.68085C18.4657 8.67888 17.3566 8.81738 16.278 9.09306Z"/>
</svg>
