<svg width="45" height="45" viewBox="0 0 45 45" fill="none" xmlns="http://www.w3.org/2000/svg">
<mask id="mask0_224_17" style="mask-type:luminance" maskUnits="userSpaceOnUse" x="0" y="0" width="45" height="45">
<path d="M0 0H45V45H0V0Z" fill="white"/>
</mask>
<g mask="url(#mask0_224_17)">
<path fill-rule="evenodd" clip-rule="evenodd" d="M0 0H45V45H0V0ZM34.4006 37.725C32.3138 37.725 31.1344 36.6375 30.2287 35.1562L26.7919 37.1531C28.0331 39.6056 30.57 41.4769 34.4981 41.4769C38.5144 41.4769 41.505 39.3919 41.505 35.5838C41.505 32.0531 39.4763 30.4838 35.8838 28.9406L34.8262 28.4888C33.0112 27.7013 32.2256 27.1894 32.2256 25.92C32.2256 24.8944 33.0131 24.1087 34.2506 24.1087C35.4638 24.1087 36.2456 24.6206 36.9713 25.92L40.2638 23.8069C38.8706 21.3562 36.9394 20.4206 34.2506 20.4206C30.4744 20.4206 28.0575 22.8356 28.0575 26.0081C28.0575 29.4488 30.0825 31.0781 33.135 32.3775L34.1925 32.8313C36.1219 33.675 37.2713 34.1887 37.2713 35.6381C37.2713 36.8494 36.1519 37.725 34.4006 37.725ZM18.0131 37.6969C16.56 37.6969 15.9544 36.7031 15.2906 35.5219L11.8481 37.6069C12.8456 39.7181 14.8069 41.4694 18.1912 41.4694C21.9394 41.4694 24.5062 39.4762 24.5062 35.0981V20.6606H20.2781V35.0419C20.2781 37.155 19.4006 37.6969 18.0112 37.6969H18.0131Z" fill="#053B50"/>
</g>
</svg>
