<svg width="38" height="38" viewBox="0 0 38 38" >
<path fill-rule="evenodd" clip-rule="evenodd" d="M20.9532 0.00233654C22.3396 -0.00298115 23.7261 0.0109501 25.1121 0.044138L25.4807 0.057436C25.8915 0.0720997 26.2969 0.0903187 26.7808 0.112062L26.7842 0.112223L26.8334 0.114435C28.8549 0.209429 30.2342 0.528612 31.4445 0.997889C32.6984 1.48046 33.7548 2.13403 34.8111 3.19038C35.777 4.13958 36.5245 5.28777 37.0017 6.5551C37.471 7.76534 37.7902 9.14657 37.8852 11.1681C37.908 11.6734 37.9269 12.0952 37.9421 12.5208L37.9535 12.8894C37.9873 14.2748 38.0019 15.6606 37.9972 17.0464L37.9991 18.4637V20.9526C38.0038 22.339 37.9893 23.7254 37.9554 25.1115L37.944 25.48C37.9293 25.8921 37.9111 26.2989 37.8892 26.7848L37.8871 26.8328C37.7921 28.8543 37.4691 30.2336 37.0017 31.4438C36.5261 32.7125 35.7783 33.8616 34.8111 34.8105C33.8611 35.7762 32.7123 36.5237 31.4445 37.001C30.2342 37.4703 28.8549 37.7895 26.8334 37.8845L26.7867 37.8866C26.3002 37.9085 25.8931 37.9268 25.4807 37.9415L25.1121 37.9529C23.7261 37.9867 22.3397 38.0012 20.9532 37.9966L19.5359 37.9985H17.0489C15.6625 38.0032 14.2761 37.9886 12.89 37.9548L12.5215 37.9434C12.0704 37.927 11.6195 37.908 11.1687 37.8864C9.14723 37.7914 7.7679 37.4684 6.55576 37.001C5.28792 36.5248 4.13954 35.7772 3.19103 34.8105C2.22407 33.861 1.47585 32.7121 0.998544 31.4438C0.52927 30.2336 0.210084 28.8543 0.115089 26.8328C0.0939307 26.3819 0.0749316 25.931 0.0580935 25.48L0.048593 25.1115C0.0135665 23.7254 -0.00226832 22.339 0.00109624 20.9526V17.0464C-0.00420619 15.6606 0.009727 14.2748 0.0428939 12.8894L0.0561938 12.5208C0.0713916 12.0952 0.0903907 11.6734 0.113189 11.1681C0.208185 9.14467 0.527368 7.76724 0.996644 6.5551C1.47423 5.28715 2.22391 4.13928 3.19293 3.19228C4.14078 2.22476 5.28845 1.47585 6.55576 0.997889C7.7679 0.528612 9.14533 0.209429 11.1687 0.114435L12.5215 0.057436L12.89 0.0479374C14.2754 0.0129261 15.6612 -0.00290486 17.047 0.00043682L20.9532 0.00233654ZM6.33829 30.8402H11.9201V14.0706H6.33829V30.8402ZM12.2825 8.89963C12.2664 8.06196 11.9765 7.36927 11.4126 6.82157C10.8488 6.27386 10.0998 6 9.16543 6C8.2311 6 7.46995 6.27386 6.88197 6.82157C6.29399 7.36927 6 8.06196 6 8.89963C6 9.72119 6.28594 10.4099 6.85781 10.9656C7.42968 11.5214 8.17472 11.7993 9.09294 11.7993H9.1171C10.0675 11.7993 10.8327 11.5214 11.4126 10.9656C11.9926 10.4099 12.2825 9.72119 12.2825 8.89963ZM26.4182 30.8402H32V21.223C32 18.7423 31.412 16.8655 30.2361 15.5929C29.0601 14.3203 27.5056 13.684 25.5725 13.684C23.4115 13.684 21.7442 14.6009 20.5706 16.4347V14.0706H14.9888C15.0372 15.1338 15.0372 20.7237 14.9888 30.8402H20.5706V21.4647C20.5706 20.8525 20.627 20.4015 20.7398 20.1115C20.9814 19.5477 21.3439 19.0685 21.8271 18.6738C22.3104 18.2791 22.9064 18.0818 23.6152 18.0818C25.4839 18.0818 26.4182 19.3463 26.4182 21.8755V30.8402ZM20.5706 16.4347V16.5112H20.5223C20.5383 16.4855 20.5544 16.46 20.5706 16.4347Z" />
</svg>
