<svg width="38" height="38" viewBox="0 0 38 38" fill="none" xmlns="http://www.w3.org/2000/svg">
<path fill-rule="evenodd" clip-rule="evenodd" d="M19 0L19.6156 0.00189972L20.2198 0.0095005L21.3902 0.0418005L21.9583 0.0664997L23.0584 0.1311L24.1091 0.2185C33.2006 1.1001 36.8999 4.7994 37.7815 13.8909L37.8689 14.9416L37.9335 16.0417C37.943 16.2279 37.9525 16.4179 37.9582 16.6098L37.9905 17.7802L38 19L37.9905 20.2198L37.9582 21.3902L37.9335 21.9583L37.8689 23.0584L37.7815 24.1091C36.8999 33.2006 33.2006 36.8999 24.1091 37.7815L23.0584 37.8689L21.9583 37.9335C21.7721 37.943 21.5821 37.9525 21.3902 37.9582L20.2198 37.9905L19 38L17.7802 37.9905L16.6098 37.9582L16.0417 37.9335L14.9416 37.8689L13.8909 37.7815C4.79941 36.8999 1.1001 33.2006 0.218506 24.1091L0.131104 23.0584L0.0664978 21.9583C0.057251 21.769 0.0490112 21.5796 0.0418091 21.3902L0.00949097 20.2198C0.0038147 19.8208 0 19.4142 0 19L0.00189209 18.3844L0.00949097 17.7802L0.0418091 16.6098L0.0664978 16.0417L0.131104 14.9416L0.218506 13.8909C1.1001 4.7994 4.79941 1.1001 13.8909 0.2185L14.9416 0.1311L16.0417 0.0664997C16.2279 0.0570002 16.4179 0.0475006 16.6098 0.0418005L17.7802 0.0095005C18.1792 0.00380039 18.5858 0 19 0ZM20.2094 25.9731C20.1429 25.8127 20.0452 25.667 19.9222 25.5444C19.7996 25.4217 19.6541 25.3244 19.4938 25.258C19.3336 25.1916 19.1619 25.1574 18.9884 25.1574C18.815 25.1574 18.6432 25.1916 18.483 25.258C18.3228 25.3244 18.1772 25.4217 18.0547 25.5444L17.4013 26.1976C16.6587 26.9401 15.6514 27.3573 14.6012 27.3573C13.5509 27.3573 12.5436 26.9401 11.801 26.1976C11.0583 25.4551 10.6411 24.448 10.6411 23.398C10.6411 22.3479 11.0583 21.3408 11.801 20.5983L14.4516 17.9505C15.1654 17.2363 16.1251 16.8218 17.1344 16.7918C18.1438 16.7617 19.1265 17.1184 19.8815 17.7888C20.0115 17.9043 20.1629 17.9931 20.3273 18.0501C20.4916 18.1071 20.6655 18.1312 20.8391 18.121C21.0128 18.1108 21.1826 18.0665 21.3391 17.9906C21.4956 17.9147 21.6357 17.8088 21.7512 17.6788C21.8668 17.5489 21.9556 17.3974 22.0126 17.2332C22.0696 17.0689 22.0937 16.895 22.0835 16.7214C22.0732 16.5478 22.0289 16.3779 21.9531 16.2215C21.8772 16.065 21.7712 15.925 21.6412 15.8095C20.3821 14.6911 18.743 14.0963 17.0595 14.147C15.3761 14.1977 13.7757 14.89 12.5862 16.0822L9.93344 18.7334C8.69547 19.9711 8 21.6498 8 23.4002C8 25.1506 8.69547 26.8292 9.93344 28.067C11.1714 29.3047 12.8504 30 14.6012 30C16.3519 30 18.0309 29.3047 19.2689 28.067L19.9222 27.4138C20.0452 27.2912 20.1429 27.1455 20.2094 26.9851C20.2761 26.8247 20.3104 26.6528 20.3104 26.4791C20.3104 26.3054 20.2761 26.1335 20.2094 25.9731ZM23.4021 8C25.1522 8 26.8308 8.69402 28.0698 9.92983V9.93203C29.3064 11.1713 30.0006 12.8506 30 14.6011C29.9994 16.3517 29.304 18.0305 28.0665 19.2689L25.4137 21.9201C24.2237 23.1105 22.6236 23.8013 20.9409 23.8509C19.2582 23.9006 17.6202 23.3055 16.362 22.1873C16.232 22.0718 16.126 21.9318 16.0502 21.7753C15.9743 21.6188 15.93 21.449 15.9198 21.2754C15.9095 21.1018 15.9337 20.9279 15.9907 20.7636C16.0477 20.5993 16.1365 20.4479 16.252 20.3179C16.3676 20.188 16.5076 20.082 16.6641 20.0062C16.8206 19.9303 16.9905 19.886 17.1641 19.8758C17.3377 19.8656 17.5117 19.8897 17.676 19.9467C17.8403 20.0037 17.9918 20.0924 18.1217 20.208C18.8763 20.8793 19.8589 21.2369 20.8685 21.2077C21.8781 21.1784 22.8383 20.7646 23.5527 20.0507L26.2045 17.3984C26.9471 16.6559 27.3643 15.6489 27.3643 14.5988C27.3643 13.5487 26.9471 12.5417 26.2045 11.7992C25.4618 11.0567 24.4545 10.6395 23.4043 10.6395C22.354 10.6395 21.3467 11.0567 20.6041 11.7992L19.9508 12.4524C19.7028 12.7002 19.3665 12.8395 19.0159 12.8395C18.6653 12.8395 18.329 12.7002 18.0811 12.4524C17.8331 12.2045 17.6938 11.8683 17.6938 11.5177C17.6938 11.1671 17.8331 10.8309 18.0811 10.583L18.7343 9.92983C19.9733 8.69402 21.652 8 23.4021 8Z" fill="#053B50"/>
</svg>
