<svg width="36" height="33" viewBox="0 0 36 33" fill="none" xmlns="http://www.w3.org/2000/svg">
<g clip-path="url(#clip0_213_183)">
<path d="M16.8865 15.1608C16.7793 14.9823 16.9823 14.7793 17.1609 14.8864L28.8064 21.8737C28.8345 21.8906 28.8581 21.9142 28.875 21.9423L35.8623 33.5878C35.9694 33.7664 35.7664 33.9693 35.5879 33.8622L23.9424 26.8749C23.9142 26.858 23.8907 26.8345 23.8738 26.8063L16.8865 15.1608Z" fill="black" fill-opacity="0.05"/>
<path d="M16.8865 -17.8392C16.7793 -18.0177 16.9823 -18.2207 17.1609 -18.1136L28.8064 -11.1263C28.8345 -11.1094 28.8581 -11.0858 28.875 -11.0577L35.8623 0.587829C35.9694 0.766365 35.7664 0.969348 35.5879 0.862226L23.9424 -6.12507C23.9142 -6.14196 23.8907 -6.16552 23.8738 -6.19367L16.8865 -17.8392Z" fill="black" fill-opacity="0.05"/>
<path d="M18.588 -0.11353C18.7665 -0.220652 18.9695 -0.017668 18.8623 0.160868L11.875 11.8064C11.8582 11.8345 11.8346 11.8581 11.8065 11.875L0.16095 18.8623C-0.0175859 18.9694 -0.220569 18.7664 -0.113447 18.5879L6.87385 6.94237C6.89074 6.91422 6.9143 6.89066 6.94245 6.87377L18.588 -0.11353Z" fill="black" fill-opacity="0.05"/>
<path d="M54.588 -0.11353C54.7665 -0.220652 54.9695 -0.017668 54.8623 0.160868L47.875 11.8064C47.8582 11.8345 47.8346 11.8581 47.8065 11.875L36.161 18.8623C35.9824 18.9694 35.7794 18.7664 35.8866 18.5879L42.8739 6.94237C42.8907 6.91422 42.9143 6.89066 42.9425 6.87377L54.588 -0.11353Z" fill="black" fill-opacity="0.05"/>
</g>
<defs>
<clipPath id="clip0_213_183">
<rect width="36" height="33" fill="white"/>
</clipPath>
</defs>
</svg>
