<svg width="32" height="32" viewBox="0 0 32 32" fill="none" xmlns="http://www.w3.org/2000/svg">
<path d="M31.7184 19.4516C31.595 19.3284 31.4405 19.2412 31.2713 19.1991C31.1021 19.1571 30.9247 19.162 30.7581 19.2131C28.2611 19.9678 25.6063 20.0309 23.0763 19.3956C20.5464 18.7604 18.2362 17.4506 16.392 15.6059C14.5478 13.7612 13.2386 11.4506 12.6041 8.92055C11.9695 6.39045 12.0333 3.73558 12.7886 1.23887C12.8391 1.07237 12.8434 0.895301 12.801 0.726561C12.7587 0.557822 12.6713 0.403757 12.5482 0.280822C12.4251 0.157887 12.2709 0.0707005 12.1021 0.0285763C11.9333 -0.013548 11.7562 -0.00902789 11.5898 0.0416536C8.27915 1.05735 5.37298 3.09095 3.28452 5.85327C0.917079 8.99691 -0.235141 12.8899 0.0399587 16.8157C0.315059 20.7414 1.99896 24.4357 4.7817 27.2184C7.56444 30.0012 11.2587 31.6851 15.1845 31.9602C19.1102 32.2353 23.0032 31.083 26.1469 28.7156C28.9092 26.6272 30.9428 23.721 31.9585 20.4103C32.0091 20.2438 32.0135 20.0666 31.9712 19.8977C31.9289 19.7288 31.8416 19.5746 31.7184 19.4516Z" fill="#053B50"/>
</svg>
