<svg width="45" height="45" viewBox="0 0 45 45" fill="none" xmlns="http://www.w3.org/2000/svg">
<path d="M26.4957 0C26.1713 0 25.8694 0.069375 25.5901 0.163125C26.1826 0.556875 26.5088 1.08187 26.6701 1.67438C26.6832 1.755 26.7057 1.81312 26.7169 1.89375C26.7309 1.96296 26.739 2.0332 26.7413 2.10375C26.7863 3.12562 26.4732 3.255 26.2538 3.85875C25.9163 4.63688 26.0101 5.47313 26.4151 6.14625C26.4522 6.23652 26.4987 6.32262 26.5538 6.40312C26.1132 3.46313 28.5657 3.0225 29.0176 2.10375C29.0532 1.30125 28.3913 0.766875 27.8682 0.395625C27.4571 0.137304 26.9812 0.000779515 26.4957 0.001875V0ZM30.1913 0.661875C30.1463 0.93 30.1801 0.860625 30.1688 0.999375C30.1576 1.09312 30.1576 1.20938 30.1463 1.30125C30.1219 1.395 30.0994 1.48875 30.0638 1.58062C30.0413 1.67437 30.0076 1.76813 29.9701 1.86L29.8444 2.12625C29.8069 2.17312 29.7863 2.22 29.7507 2.26687L29.6813 2.37C29.626 2.44957 29.5678 2.52712 29.5069 2.6025C29.4376 2.67375 29.3794 2.75438 29.2969 2.8125V2.82375C29.2276 2.88187 29.1582 2.95125 29.0757 3.01125C28.8319 3.19687 28.5544 3.33562 28.2976 3.51C28.2169 3.56625 28.1344 3.615 28.0651 3.68438C27.9862 3.73986 27.9122 3.80196 27.8438 3.87C27.7632 3.93938 27.7051 4.00875 27.6357 4.09125C27.5776 4.16063 27.5082 4.24125 27.4613 4.32375C27.403 4.40226 27.3485 4.48361 27.2982 4.5675C27.2513 4.66125 27.2176 4.74188 27.1707 4.83375C27.1351 4.9275 27.1013 5.00812 27.0769 5.10187C27.0462 5.19763 27.0193 5.29459 26.9963 5.3925C26.9851 5.43938 26.9851 5.4975 26.9738 5.5425C26.9607 5.58938 26.9607 5.63625 26.9494 5.68313C26.9494 5.77688 26.9382 5.88 26.9382 5.97375C26.9382 6.04313 26.9382 6.1125 26.9494 6.18188C26.9494 6.27563 26.9607 6.36938 26.9851 6.4725C26.9963 6.56625 27.0188 6.66 27.0413 6.75375C27.0788 6.84562 27.1013 6.9375 27.1351 7.03125C27.1594 7.0875 27.1932 7.1475 27.2176 7.19438L24.5438 6.15938C24.0919 6.03188 23.6494 5.91562 23.1957 5.81062L22.4644 5.63625C21.7669 5.4975 21.0582 5.3925 20.3494 5.32312C20.3251 5.32312 20.3138 5.31188 20.2913 5.31188C19.0937 5.19191 17.8879 5.17622 16.6876 5.265C15.9788 5.31188 15.2701 5.40375 14.5613 5.52C14.0346 5.61075 13.5112 5.71957 12.9919 5.84625L12.4688 5.985C12.2963 6.05438 12.1313 6.135 11.9701 6.20625L11.5857 6.38063C11.5632 6.39188 11.5407 6.39187 11.5294 6.40312C11.4113 6.46125 11.3082 6.50813 11.2032 6.56625C11.0522 6.63285 10.9046 6.70668 10.7607 6.7875C10.6801 6.82125 10.5994 6.86813 10.5282 6.90375C10.4949 6.92441 10.4605 6.94319 10.4251 6.96C10.3201 7.02 10.2151 7.07812 10.1213 7.13625C10.0256 7.18914 9.93299 7.24736 9.84382 7.31063C9.76132 7.36688 9.68069 7.41375 9.61132 7.47188C9.60007 7.485 9.58694 7.485 9.57569 7.49625C9.50632 7.54313 9.42569 7.60125 9.35444 7.65938L9.33195 7.68188L9.15757 7.82063C9.13507 7.83375 9.11069 7.85625 9.08819 7.8675C9.03007 7.91438 8.97195 7.9725 8.91382 8.0175C8.90257 8.04188 8.87819 8.055 8.86694 8.06438C8.79757 8.13563 8.72819 8.19375 8.65882 8.26313C8.64569 8.26313 8.64569 8.27438 8.63444 8.28563C8.56218 8.34879 8.49274 8.4151 8.42632 8.48438C8.41319 8.49563 8.41319 8.50688 8.40194 8.50688C8.34092 8.56661 8.28273 8.62918 8.22757 8.69438C8.20507 8.71688 8.17132 8.73937 8.14694 8.76187C8.08468 8.83554 8.01832 8.90565 7.94819 8.97187C7.93694 8.99437 7.91445 9.0075 7.9032 9.02813C7.80945 9.12188 7.72882 9.21563 7.63507 9.30938L7.60132 9.34313C7.41382 9.54188 7.21695 9.73875 7.00695 9.91313C6.79882 10.1006 6.57757 10.2731 6.35632 10.425C5.91209 10.7423 5.43265 11.0072 4.92757 11.2144C4.68382 11.3194 4.42695 11.4131 4.17195 11.4938C3.68445 11.5988 3.18382 11.7956 2.75445 11.8312C2.6607 11.8312 2.55757 11.8538 2.46382 11.865L2.1732 11.9344L1.89382 12.0394C1.80007 12.075 1.7082 12.1219 1.61632 12.1669C1.53382 12.225 1.44195 12.2719 1.35945 12.33C1.27672 12.3899 1.19896 12.4563 1.12695 12.5288C1.04632 12.585 0.96382 12.6675 0.894445 12.7369C0.82507 12.8175 0.755695 12.8869 0.69757 12.9694C0.639445 13.0631 0.57007 13.1437 0.523195 13.2375C0.462122 13.322 0.407589 13.411 0.36007 13.5038C0.313195 13.6088 0.26632 13.7025 0.23257 13.8056C0.196945 13.8994 0.163195 14.0044 0.12757 14.1075C0.10507 14.2013 0.0806951 14.295 0.0713201 14.3888C0.0713201 14.3981 0.0581951 14.4112 0.0581951 14.4225C0.0356951 14.5275 0.0356951 14.6663 0.0225701 14.7356C0.0113201 14.8181 7.01142e-05 14.8856 7.01142e-05 14.9681C-0.00208711 15.1703 0.0455649 15.3699 0.13882 15.5494V15.5606C0.174445 15.63 0.22132 15.7013 0.268195 15.7706C0.313195 15.84 0.361945 15.9094 0.418195 15.9788C0.47632 16.0369 0.545695 16.1081 0.616945 16.1662C0.684696 16.2342 0.758083 16.2963 0.83632 16.3519C1.1157 16.5956 1.18507 16.6763 1.54507 16.8619C1.6032 16.8975 1.66132 16.92 1.73257 16.9556C1.74382 16.9556 1.75507 16.9669 1.76632 16.9669C1.76632 16.9912 1.76632 17.0025 1.77757 17.025C1.80471 17.2166 1.85508 17.4043 1.92757 17.5838C1.96507 17.6531 1.98757 17.7225 2.02132 17.7919C2.03445 17.8163 2.0457 17.8388 2.05882 17.85C2.10382 17.9438 2.1507 18.0244 2.1957 18.1069L2.37007 18.3506C2.4282 18.42 2.49945 18.5006 2.56882 18.5719C2.6382 18.6412 2.70757 18.6994 2.79007 18.7688C2.79007 18.7688 2.80132 18.78 2.81257 18.78C2.88195 18.8381 2.95132 18.8962 3.02257 18.9431C3.10343 18.9999 3.1887 19.05 3.27757 19.0931C3.3582 19.14 3.45195 19.1869 3.54382 19.2225C3.61874 19.2563 3.69656 19.2833 3.77632 19.3031C3.78945 19.3144 3.8007 19.3144 3.8232 19.3256C3.87007 19.3388 3.9282 19.35 3.9732 19.3613C3.93945 19.9894 3.9282 20.58 4.02195 20.79C4.12507 21.0225 4.63694 20.3137 5.14694 19.5C5.07944 20.3025 5.03257 21.2438 5.14694 21.5231C5.27632 21.8138 5.97194 20.9062 6.57757 19.9069C14.8182 18.0019 22.3369 23.6944 23.1263 31.7381C22.9763 30.4819 21.4294 29.7862 20.7207 29.9606C20.3719 30.8194 19.7794 31.9237 18.8269 32.61C18.9076 31.8412 18.8738 31.0537 18.7107 30.285C18.4504 31.3551 17.9582 32.3549 17.2688 33.2137C16.1663 33.2944 15.0619 32.76 14.4807 31.9575C14.4338 31.9237 14.4226 31.8544 14.3869 31.8075C14.3532 31.7269 14.3176 31.6444 14.2932 31.5637C14.2595 31.4859 14.2361 31.4039 14.2238 31.32C14.2126 31.2375 14.2126 31.1569 14.2126 31.0631V30.8887C14.2264 30.8063 14.2459 30.7249 14.2707 30.645C14.2951 30.5644 14.3176 30.4837 14.3532 30.4012C14.3982 30.3206 14.4338 30.2381 14.4919 30.1575C14.6888 29.5987 14.6888 29.145 14.3288 28.8788C14.2589 28.8331 14.1848 28.7942 14.1076 28.7625C14.0626 28.7513 14.0044 28.7288 13.9576 28.7156L13.8638 28.6819C13.7842 28.6561 13.7027 28.6367 13.6201 28.6237C13.5409 28.6006 13.4588 28.5886 13.3763 28.5881C13.2919 28.5749 13.2067 28.5674 13.1213 28.5656C13.0632 28.5656 13.0051 28.5769 12.9469 28.5769C12.8601 28.5764 12.7735 28.5884 12.6901 28.6125C12.6094 28.6238 12.5288 28.635 12.4463 28.6575C12.3634 28.6797 12.282 28.7073 12.2026 28.74C12.1219 28.7738 12.0526 28.8094 11.9701 28.845C11.9007 28.8787 11.8313 28.9256 11.7488 28.9613C9.04132 30.7275 10.6576 34.8637 12.5044 36.0619C11.8069 36.1894 11.0982 36.3394 10.9013 36.4912L10.8769 36.5137C11.3776 36.8156 11.9007 37.0725 12.4463 37.2937C13.1907 37.5375 13.9801 37.7569 14.3288 37.8506V37.8619C15.2917 38.0596 16.2763 38.1302 17.2576 38.0719C22.4063 37.7119 26.6251 33.795 27.3919 28.635L27.4613 28.9369C27.4969 29.1469 27.5419 29.3681 27.5663 29.5875V29.5988C27.5888 29.7038 27.6001 29.8087 27.6132 29.9025V29.9475C27.6244 30.0525 27.6357 30.1575 27.6357 30.2512C27.6469 30.3787 27.6582 30.5062 27.6582 30.6337V30.8212C27.6582 30.8775 27.6713 30.9469 27.6713 31.005C27.6713 31.0762 27.6582 31.1456 27.6582 31.215V31.3781C27.6582 31.4587 27.6469 31.5281 27.6469 31.6106C27.6469 31.6575 27.6469 31.7044 27.6357 31.7606C27.6357 31.8431 27.6244 31.9237 27.6244 32.0175C27.6132 32.0512 27.6132 32.0869 27.6132 32.1206L27.5757 32.3887C27.5757 32.4244 27.5757 32.4581 27.5663 32.4937C27.5532 32.61 27.5307 32.715 27.5194 32.8312V32.8537L27.4501 33.18V33.2137L27.3807 33.5269C27.3807 33.54 27.3676 33.5644 27.3676 33.5737C27.3462 33.6801 27.3193 33.7852 27.2869 33.8887V33.9225C27.2513 34.0387 27.2176 34.1437 27.1932 34.2487C27.1819 34.26 27.1819 34.2712 27.1819 34.2712L27.0769 34.62C27.0319 34.7362 26.9963 34.8412 26.9494 34.9575C26.9026 35.0737 26.8688 35.19 26.8219 35.295C26.7751 35.4112 26.7282 35.5144 26.6832 35.6325H26.6701C26.6251 35.7356 26.5763 35.8519 26.5201 35.9569C26.5103 35.9846 26.4984 36.0116 26.4844 36.0375C26.4732 36.0487 26.4732 36.0619 26.4619 36.0731C25.6933 37.6118 24.5747 38.9489 23.1957 39.9769C23.1019 40.035 23.0101 40.1063 22.9163 40.1756C22.8938 40.1981 22.8601 40.2094 22.8357 40.2319C22.7526 40.2933 22.6675 40.3521 22.5807 40.4081L22.6144 40.4775H22.6276L23.1151 40.4081H23.1263C23.4282 40.3612 23.7301 40.3031 24.0319 40.245C24.1144 40.2337 24.2063 40.2094 24.2888 40.1869L24.4519 40.1512C24.5326 40.14 24.6132 40.1175 24.6957 40.1062C24.7651 40.0819 24.8344 40.0687 24.9038 40.0481C26.0663 39.7669 27.1932 39.3844 28.2751 38.9325C26.4073 41.4766 23.9232 43.5038 21.0563 44.8237C22.3951 44.73 23.7301 44.5106 25.0201 44.1375C29.6892 42.7647 33.6328 39.6137 36.0019 35.3625C35.5234 38.0536 34.4561 40.6057 32.8763 42.8362C34.0027 42.0933 35.0434 41.228 35.9794 40.2562C38.5807 37.5405 40.2885 34.0936 40.8732 30.3787C41.2669 32.2162 41.3832 34.11 41.2107 35.9794C49.5994 24.2775 41.9063 12.1444 38.6869 8.94938C38.6757 8.925 38.6644 8.91375 38.6644 8.89125C38.6532 8.9025 38.6532 8.9025 38.6532 8.91375C38.6532 8.9025 38.6532 8.9025 38.6401 8.89125C38.6401 9.03 38.6288 9.16875 38.6176 9.30938C38.5854 9.56968 38.5466 9.82914 38.5013 10.0875C38.4451 10.3425 38.3738 10.5994 38.3044 10.8562C38.2219 11.1 38.1301 11.355 38.0232 11.5987C37.917 11.8395 37.8012 12.0759 37.6763 12.3075C37.4169 12.7631 37.1176 13.1948 36.7819 13.5975C36.6076 13.8056 36.4219 13.9913 36.2344 14.1788C36.1249 14.279 36.0123 14.3759 35.8969 14.4694L35.6307 14.7019C35.4232 14.8656 35.206 15.0165 34.9801 15.1537C34.7579 15.2968 34.5289 15.4288 34.2938 15.5494C34.0501 15.6656 33.8063 15.7706 33.5626 15.8756C33.0661 16.0645 32.5524 16.2045 32.0288 16.2938C31.7607 16.3406 31.4944 16.3631 31.2376 16.3875C31.0522 16.4006 30.8665 16.4081 30.6807 16.41C30.4164 16.4064 30.1523 16.3907 29.8894 16.3631C29.624 16.3423 29.3603 16.3034 29.1001 16.2469C28.8365 16.1991 28.5765 16.1333 28.3219 16.05H28.3088C28.5657 16.0256 28.8207 16.0031 29.0776 15.9563C29.6009 15.8655 30.1144 15.7255 30.6113 15.5381C30.8663 15.4444 31.1101 15.3281 31.3426 15.2119C31.5863 15.0956 31.8076 14.9681 32.0401 14.8294C32.2613 14.6794 32.4807 14.5275 32.6907 14.3644C32.9007 14.2013 33.0976 14.0269 33.2832 13.8412C33.4801 13.6669 33.6544 13.47 33.8288 13.2713C34.0032 13.0631 34.1663 12.8531 34.3163 12.645C34.3407 12.6094 34.3651 12.5625 34.3876 12.5288C34.5038 12.3413 34.6201 12.1556 34.7251 11.97C34.9813 11.5075 35.191 11.0207 35.3513 10.5169C35.4338 10.2731 35.4919 10.0181 35.5501 9.76125C35.5969 9.495 35.6438 9.24 35.6663 8.98312C35.6888 8.71687 35.7132 8.44875 35.7132 8.19375C35.7132 8.00625 35.7001 7.82063 35.6888 7.635C35.6656 7.37472 35.6344 7.11522 35.5951 6.85688C35.5499 6.59492 35.4923 6.33526 35.4226 6.07875C35.3401 5.835 35.2594 5.57813 35.1657 5.33438C35.0719 5.09063 34.9576 4.84687 34.8413 4.61437C34.7119 4.38187 34.5844 4.14938 34.4457 3.92813C34.2973 3.71091 34.1422 3.49831 33.9807 3.29062C33.8063 3.09187 33.6319 2.89312 33.4463 2.69625C33.3485 2.59649 33.2478 2.49958 33.1444 2.40562C32.6194 1.99875 32.0757 1.61625 31.5282 1.2675C31.4531 1.22413 31.3755 1.18531 31.2957 1.15125C30.951 0.940188 30.5796 0.774356 30.1913 0.661875Z" fill="#053B50"/>
</svg>
