<svg width="40" height="45" viewBox="0 0 40 45" fill="none" xmlns="http://www.w3.org/2000/svg">
<path d="M19.626 44.2925C19.0371 44.2925 18.4395 44.1343 17.9209 43.8354L12.498 40.6274C11.6895 40.1704 12.085 40.0122 12.3486 39.9243C13.4297 39.5464 13.6494 39.4673 14.8008 38.8081C14.9238 38.7378 15.082 38.7642 15.2051 38.8433L19.3711 41.313C19.5205 41.4009 19.7314 41.4009 19.8721 41.313L36.1055 31.9438C36.2549 31.856 36.3516 31.6802 36.3516 31.5044V12.7661C36.3516 12.5815 36.2549 12.4146 36.0967 12.3179L19.8721 2.95752C19.7227 2.86963 19.5205 2.86963 19.3711 2.95752L3.15527 12.3267C2.99707 12.4146 2.90039 12.5903 2.90039 12.7749V31.5044C2.90039 31.6802 2.99707 31.856 3.15527 31.9351L7.60254 34.5015C10.0195 35.7056 11.4961 34.2905 11.4961 32.8579V14.3657C11.4961 14.1021 11.707 13.8999 11.9707 13.8999H14.0273C14.2822 13.8999 14.502 14.1021 14.502 14.3657V32.8667C14.502 36.0835 12.7441 37.9292 9.69434 37.9292C8.75391 37.9292 8.01563 37.9292 5.95898 36.9097L1.70508 34.4575C0.650391 33.8511 0 32.7173 0 31.4956V12.7661C0 11.5532 0.650391 10.4106 1.70508 9.8042L17.9209 0.435059C18.9492 -0.14502 20.3115 -0.14502 21.3311 0.435059L37.5645 9.81299C38.6191 10.4194 39.2695 11.5532 39.2695 12.7749V31.5044C39.2695 32.7173 38.6191 33.8511 37.5645 34.4663L21.3311 43.8354C20.8125 44.1343 20.2236 44.2925 19.626 44.2925ZM32.7305 25.8267C32.7305 22.3198 30.3574 21.3882 25.374 20.729C20.3291 20.061 19.8193 19.7183 19.8193 18.5405C19.8193 17.5649 20.25 16.2642 23.9854 16.2642C27.3164 16.2642 28.5469 16.9849 29.0566 19.2349C29.1006 19.4458 29.2939 19.604 29.5137 19.604H31.623C31.7549 19.604 31.8779 19.5513 31.9658 19.4546C32.0537 19.3579 32.0977 19.2261 32.0889 19.0942C31.7637 15.2183 29.1885 13.4165 23.9854 13.4165C19.3535 13.4165 16.5938 15.3677 16.5938 18.646C16.5938 22.1968 19.3447 23.1812 23.7832 23.6206C29.1006 24.1392 29.5137 24.9214 29.5137 25.9673C29.5137 27.7778 28.0547 28.5513 24.6357 28.5513C20.3379 28.5513 19.3975 27.4702 19.0811 25.3345C19.0459 25.106 18.8525 24.939 18.6152 24.939H16.5146C16.251 24.939 16.0488 25.1499 16.0488 25.4048C16.0488 28.1382 17.5342 31.3989 24.6445 31.3989C29.7773 31.3901 32.7305 29.3599 32.7305 25.8267Z" fill="#053B50"/>
</svg>
