<svg width="45" height="41" viewBox="0 0 45 41" fill="none" xmlns="http://www.w3.org/2000/svg">
<path fill-rule="evenodd" clip-rule="evenodd" d="M12.105 8.4788C12.1922 6.0263 12.9347 4.90411 13.6406 4.4963C14.3493 4.0913 15.6993 4.00693 17.8734 5.16849C18.3672 5.4318 18.9454 5.48816 19.4807 5.32518C20.0161 5.1622 20.4648 4.79323 20.7281 4.29943C20.9914 3.80563 21.0478 3.22745 20.8848 2.69209C20.7218 2.15674 20.3528 1.70805 19.859 1.44474C17.1984 0.0272381 14.1243 -0.653387 11.5312 0.842863C8.94653 2.3363 7.9959 5.32599 7.88903 8.32974C7.87449 8.88563 8.08004 9.42478 8.46098 9.82989C8.84192 10.235 9.36741 10.4733 9.92315 10.493C10.4789 10.5126 11.0199 10.312 11.4285 9.93481C11.8371 9.55762 12.0802 9.03433 12.105 8.4788ZM25.6741 7.76179C25.4093 7.84321 25.1631 7.97599 24.9497 8.15255L24.9525 8.15818C24.739 8.33471 24.5623 8.55157 24.4327 8.79638C24.303 9.04118 24.2228 9.30913 24.1967 9.58492C24.1706 9.86072 24.199 10.139 24.2805 10.4037C24.3619 10.6685 24.4947 10.9147 24.6712 11.1282C26.1664 12.9443 27.507 14.8823 28.679 16.9219C31.3875 21.6075 32.9484 26.2425 33.3562 29.896C33.5615 31.7241 33.4631 33.2035 33.1537 34.2835C32.85 35.3494 32.3831 35.8922 31.9218 36.1594C31.3706 36.48 30.4481 36.6066 28.98 36.0722C27.5231 35.5435 25.7822 34.4354 23.9259 32.7422C23.5116 32.3716 22.9678 32.1795 22.4127 32.2076C21.8575 32.2357 21.3359 32.4819 20.9612 32.8925C20.5865 33.3031 20.3891 33.845 20.4118 34.4004C20.4345 34.9558 20.6755 35.4798 21.0825 35.8585C23.1862 37.7794 25.394 39.256 27.5372 40.0379C29.6718 40.8169 32.009 40.98 34.0312 39.8129C35.7018 38.8482 36.6975 37.231 37.2122 35.4451C37.7184 33.6704 37.7915 31.6004 37.5497 29.4263C37.0631 25.0725 35.2603 19.8807 32.3353 14.8126C31.0445 12.5665 29.5674 10.4328 27.9197 8.4338C27.7431 8.22031 27.5263 8.04368 27.2815 7.914C27.0367 7.78432 26.7687 7.70413 26.4929 7.67802C26.2171 7.6519 25.9389 7.68036 25.6741 7.76179ZM38.1009 17.5858C40.1794 18.8823 40.7812 20.0889 40.7812 20.9045C40.7812 21.7201 40.1766 22.9295 38.0841 24.2345C37.6193 24.5349 37.2912 25.0058 37.1704 25.5458C37.0497 26.0859 37.146 26.6517 37.4386 27.1214C37.7312 27.5911 38.1966 27.927 38.7346 28.0567C39.2725 28.1864 39.8399 28.0996 40.3144 27.8148C42.8737 26.2201 45 23.897 45 20.9045C45 17.9176 42.885 15.6001 40.3369 14.0054C40.1018 13.8586 39.8401 13.7596 39.5667 13.7139C39.2933 13.6682 39.0136 13.6768 38.7436 13.7392C38.1982 13.8653 37.7253 14.2028 37.4287 14.6776C37.2819 14.9127 37.1829 15.1744 37.1372 15.4478C37.0915 15.7212 37.1001 16.0009 37.1626 16.2709C37.225 16.5409 37.34 16.7961 37.501 17.0217C37.662 17.2473 37.8659 17.4389 38.1009 17.5858ZM31.9353 29.6923C31.9969 29.4222 32.0048 29.1426 31.9584 28.8695C31.9121 28.5964 31.8124 28.335 31.6651 28.1004C31.5178 27.8658 31.3256 27.6625 31.0997 27.5021C30.8738 27.3418 30.6185 27.2275 30.3484 27.1658C30.0784 27.1041 29.7988 27.0962 29.5256 27.1426C27.3572 27.5111 24.9891 27.7136 22.5 27.7136C17.0888 27.7136 12.2934 26.7517 8.92688 25.2779C7.24219 24.5411 6.01031 23.717 5.22844 22.9098C4.45781 22.1139 4.21875 21.4389 4.21875 20.9045C4.21875 20.2661 4.5675 19.4026 5.76562 18.4014C6.9525 17.4029 8.78625 16.4495 11.1769 15.6901C11.441 15.6063 11.6859 15.4713 11.8978 15.2927C12.1097 15.1142 12.2844 14.8957 12.4118 14.6497C12.5393 14.4037 12.617 14.135 12.6406 13.8589C12.6642 13.5828 12.6332 13.3048 12.5494 13.0408C12.4655 12.7767 12.3305 12.5317 12.152 12.3198C11.9735 12.1079 11.755 11.9332 11.5089 11.8058C11.0121 11.5484 10.4333 11.4989 9.9 11.6683C7.18594 12.5289 4.80094 13.7017 3.05156 15.167C1.31063 16.6295 0 18.5701 0 20.9045C0 22.8311 0.9 24.5045 2.19656 25.8404C3.47906 27.1679 5.23125 28.2676 7.23656 29.1423C8.08354 29.5133 8.99228 29.8519 9.95396 30.1554C9.41346 30.1826 8.90352 30.4165 8.53026 30.8096C8.1488 31.2114 7.9407 31.7471 7.95092 32.301C8.04936 35.316 8.99998 38.3169 11.5931 39.816C14.1778 41.3066 17.2434 40.6344 19.8984 39.2254C20.1431 39.0954 20.3598 38.9184 20.5361 38.7047C20.7124 38.4909 20.8449 38.2445 20.926 37.9796C21.0071 37.7146 21.0352 37.4363 21.0087 37.1605C20.9823 36.8847 20.9017 36.6168 20.7717 36.3721C20.6417 36.1274 20.4648 35.9107 20.251 35.7344C20.0373 35.5581 19.7909 35.4256 19.5259 35.3445C19.261 35.2634 18.9826 35.2353 18.7068 35.2618C18.431 35.2883 18.1631 35.3688 17.9184 35.4988C15.7528 36.6491 14.4056 36.5676 13.7025 36.1597C12.9937 35.7519 12.2512 34.6213 12.1669 32.1604C12.1401 31.607 11.8968 31.0864 11.4894 30.7109C11.4237 30.6504 11.3545 30.5943 11.2824 30.5431C14.5961 31.4351 18.4396 31.9323 22.5 31.9323C25.0902 31.9377 27.6764 31.7269 30.2316 31.3023C30.5047 31.256 30.766 31.1563 31.0007 31.009C31.2353 30.8616 31.4386 30.6695 31.5989 30.4436C31.7593 30.2177 31.8736 29.9624 31.9353 29.6923ZM11.2162 24.5357C10.6919 24.3409 10.2664 23.9459 10.0333 23.4375C9.80015 22.929 9.77851 22.3488 9.97311 21.8244C10.8225 19.5322 11.9334 17.1641 13.2919 14.8129C16.2169 9.74475 19.8112 5.58787 23.3381 2.98912C25.0987 1.69256 26.9269 0.722244 28.7184 0.275057C30.5212 -0.174943 32.4225 -0.121506 34.0903 0.843182C36.1153 2.01037 37.139 4.11412 37.5328 6.35568C37.9294 8.60287 37.7522 11.2522 37.139 14.0338C37.0894 14.3136 36.9838 14.5805 36.8285 14.8185C36.6731 15.0564 36.4713 15.2606 36.2352 15.4186C35.999 15.5767 35.7333 15.6853 35.4541 15.7382C35.1749 15.791 34.8879 15.7868 34.6103 15.726C34.3327 15.6651 34.0703 15.5488 33.8388 15.384C33.6073 15.2192 33.4115 15.0093 33.2631 14.767C33.1147 14.5246 33.0168 14.2548 32.9753 13.9736C32.9338 13.6925 32.9495 13.4059 33.0215 13.131C33.5587 10.6785 33.6487 8.61412 33.3787 7.08412C33.1087 5.54849 32.535 4.81443 31.9837 4.49662C31.5225 4.22943 30.8165 4.09724 29.7422 4.36724C28.6509 4.64006 27.3234 5.29537 25.8412 6.38662C22.8825 8.56349 19.6481 12.2366 16.9453 16.9222C15.7625 18.9573 14.753 21.0883 13.9275 23.2926C13.7327 23.8169 13.3377 24.2424 12.8293 24.4755C12.3208 24.7086 11.7406 24.7303 11.2162 24.5357ZM25.486 23.2157C26.2033 22.4984 26.6063 21.5255 26.6063 20.511C26.6063 19.4966 26.2033 18.5237 25.486 17.8064C24.7687 17.089 23.7958 16.686 22.7813 16.686C21.7668 16.686 20.7939 17.089 20.0766 17.8064C19.3593 18.5237 18.9563 19.4966 18.9563 20.511C18.9563 21.5255 19.3593 22.4984 20.0766 23.2157C20.7939 23.933 21.7668 24.336 22.7813 24.336C23.7958 24.336 24.7687 23.933 25.486 23.2157Z" fill="#053B50"/>
</svg>
