<svg width="33" height="33" viewBox="0 0 33 33" fill="none" xmlns="http://www.w3.org/2000/svg">
<path fill-rule="evenodd" clip-rule="evenodd" d="M18.769 2.76758C18.769 1.73204 17.9295 0.892578 16.894 0.892578C15.8585 0.892578 15.019 1.73204 15.019 2.76758V4.05179C15.019 5.08732 15.8585 5.92679 16.894 5.92679C17.9295 5.92679 18.769 5.08732 18.769 4.05179V2.76758ZM7.94615 5.29438C7.21392 4.56215 6.02673 4.56215 5.2945 5.29438C4.56227 6.02661 4.56227 7.2138 5.2945 7.94603L6.57871 9.23024C7.31094 9.96247 8.49813 9.96247 9.23036 9.23024C9.96259 8.49801 9.96259 7.31082 9.23036 6.57859L7.94615 5.29438ZM28.4935 7.94603C29.2257 7.2138 29.2257 6.02661 28.4935 5.29438C27.7613 4.56215 26.5741 4.56215 25.8418 5.29438L24.5576 6.57859C23.8254 7.31082 23.8254 8.49801 24.5576 9.23024C25.2899 9.96247 26.477 9.96247 27.2093 9.23024L28.4935 7.94603ZM16.894 7.31362C14.3532 7.31362 11.9164 8.32297 10.1197 10.1196C8.32309 11.9163 7.31374 14.353 7.31374 16.8939C7.31374 19.4347 8.32309 21.8715 10.1197 23.6681C11.9164 25.4648 14.3532 26.4741 16.894 26.4741C19.4348 26.4741 21.8716 25.4648 23.6683 23.6681C25.4649 21.8715 26.4742 19.4347 26.4742 16.8939C26.4742 14.353 25.4649 11.9163 23.6683 10.1196C21.8716 8.32297 19.4348 7.31362 16.894 7.31362ZM2.7677 15.0189C1.73217 15.0189 0.8927 15.8583 0.8927 16.8939C0.8927 17.9294 1.73217 18.7689 2.7677 18.7689H4.05191C5.08744 18.7689 5.92691 17.9294 5.92691 16.8939C5.92691 15.8583 5.08744 15.0189 4.05191 15.0189H2.7677ZM29.7361 15.0189C28.7005 15.0189 27.8611 15.8583 27.8611 16.8939C27.8611 17.9294 28.7005 18.7689 29.7361 18.7689H31.0203C32.0558 18.7689 32.8953 17.9294 32.8953 16.8939C32.8953 15.8583 32.0558 15.0189 31.0203 15.0189H29.7361ZM9.23036 27.2092C9.96259 26.4769 9.96259 25.2897 9.23036 24.5575C8.49813 23.8253 7.31094 23.8253 6.57871 24.5575L5.2945 25.8417C4.56227 26.574 4.56227 27.7611 5.2945 28.4934C6.02673 29.2256 7.21392 29.2256 7.94615 28.4934L9.23036 27.2092ZM27.2093 24.5575C26.477 23.8253 25.2899 23.8253 24.5576 24.5575C23.8254 25.2897 23.8254 26.4769 24.5576 27.2092L25.8418 28.4934C26.5741 29.2256 27.7613 29.2256 28.4935 28.4934C29.2257 27.7611 29.2257 26.574 28.4935 25.8417L27.2093 24.5575ZM18.769 29.736C18.769 28.7004 17.9295 27.861 16.894 27.861C15.8585 27.861 15.019 28.7004 15.019 29.736V31.0202C15.019 32.0557 15.8585 32.8952 16.894 32.8952C17.9295 32.8952 18.769 32.0557 18.769 31.0202V29.736Z" fill="#053B50"/>
</svg>
