<svg width="45" height="28" viewBox="0 0 45 28" fill="none" xmlns="http://www.w3.org/2000/svg">
<path d="M11.25 9.02347C12.7496 3.00823 16.5004 0 22.5 0C31.5 0 32.625 6.76758 37.125 7.89548C40.1254 8.64782 42.75 7.51992 45 4.51169C43.5004 10.5269 39.7496 13.5352 33.75 13.5352C24.75 13.5352 23.625 6.76758 19.125 5.63968C16.1246 4.88733 13.5 6.01523 11.25 9.02347ZM0 22.5586C1.49959 16.5434 5.25041 13.5352 11.25 13.5352C20.25 13.5352 21.375 20.3027 25.875 21.4306C28.8754 22.183 31.5 21.0551 33.75 18.0468C32.2504 24.0621 28.4996 27.0703 22.5 27.0703C13.5 27.0703 12.375 20.3027 7.875 19.1748C4.87459 18.4225 2.25 19.5504 0 22.5586Z" fill="#053B50"/>
</svg>
