<svg width="260" height="260" viewBox="0 0 260 260" fill="none" xmlns="http://www.w3.org/2000/svg">
<g clip-path="url(#clip0_217_448)">
<path fill-rule="evenodd" clip-rule="evenodd" d="M192.721 0L192 -1.15381L230.162 -25.0002L245.784 0H237.484C237.88 -0.843876 238.042 -1.18235 238.33 -1.78598C238.428 -1.99054 238.54 -2.22555 238.681 -2.521C237.851 -2.91138 237.438 -3.07223 236.987 -3.17942C235.303 -3.66723 233.595 -3.39378 231.46 -1.99927L230.425 -1.15008C230.087 -0.797398 229.781 -0.408247 229.523 0H192.721ZM102.63 0C102.602 -0.218178 102.57 -0.433025 102.533 -0.644318C102.139 -2.88588 101.115 -4.98963 99.0904 -6.15682C97.4226 -7.12151 95.5214 -7.17494 93.7185 -6.72494C91.927 -6.27776 90.0989 -5.30744 88.3382 -4.01088C86.8694 -2.92859 85.3889 -1.57606 83.9499 0H77.2588C77.5291 -1.44878 78.0957 -2.18897 78.6405 -2.5037C79.3492 -2.9087 80.6992 -2.99307 82.8733 -1.83151C83.3671 -1.5682 83.9453 -1.51184 84.4806 -1.67482C85.016 -1.8378 85.4647 -2.20677 85.728 -2.70057C85.9913 -3.19437 86.0476 -3.77255 85.8847 -4.30791C85.7217 -4.84326 85.3527 -5.29195 84.8589 -5.55526C82.1983 -6.97276 79.1242 -7.65339 76.5311 -6.15714C74.3295 -4.88503 73.3134 -2.52731 72.9946 0H0V191.231C-0.502122 191.367 -0.993594 191.569 -1.46891 191.843C-4.05359 193.336 -5.00422 196.326 -5.11109 199.33C-5.12564 199.886 -4.92008 200.425 -4.53914 200.83C-4.15821 201.235 -3.63271 201.473 -3.07697 201.493C-2.52124 201.513 -1.98023 201.312 -1.57163 200.935C-1.16303 200.558 -0.919912 200.034 -0.895157 199.479C-0.834736 197.779 -0.459592 196.718 0 196.092V206.325C-1.2264 208.508 -2.23907 210.699 -3.02677 212.824C-3.22137 213.349 -3.19973 213.929 -2.96661 214.437C-2.73349 214.946 -2.30797 215.341 -1.78364 215.536C-1.25926 215.73 -0.679049 215.709 -0.170615 215.476C-0.112203 215.449 -0.0552874 215.419 0 215.388V217.63C-1.51251 217.257 -2.88221 216.799 -4.07312 216.278C-5.75781 215.541 -6.98969 214.717 -7.77156 213.91C-8.54219 213.114 -8.78125 212.439 -8.78125 211.905C-8.78125 211.266 -8.4325 210.403 -7.23438 209.401C-6.0475 208.403 -4.21375 207.45 -1.82312 206.69C-1.55904 206.606 -1.31406 206.471 -1.10217 206.293C-0.890276 206.114 -0.71562 205.896 -0.588172 205.65C-0.460723 205.404 -0.382979 205.135 -0.359379 204.859C-0.335779 204.583 -0.366784 204.305 -0.450625 204.041C-0.534466 203.777 -0.669499 203.532 -0.848018 203.32C-1.02654 203.108 -1.24504 202.933 -1.49106 202.806C-1.98791 202.548 -2.56667 202.499 -3.1 202.668C-5.81406 203.529 -8.19906 204.702 -9.94844 206.167C-11.6894 207.63 -13 209.57 -13 211.905C-13 213.831 -12.1 215.505 -10.8034 216.84C-9.52094 218.168 -7.76875 219.268 -5.76344 220.142C-4.91646 220.513 -4.00773 220.852 -3.04605 221.155C-3.5865 221.183 -4.09638 221.417 -4.46962 221.81C-4.85108 222.211 -5.05918 222.747 -5.04896 223.301C-4.95052 226.316 -3.99989 229.317 -1.40677 230.816C-0.951161 231.079 -0.480611 231.274 0 231.41V261H72.9041C72.8979 261.11 72.8928 261.22 72.8889 261.33C72.8744 261.886 73.0799 262.425 73.4609 262.83C73.8418 263.235 74.3673 263.473 74.923 263.493C75.4788 263.513 76.0198 263.312 76.4284 262.935C76.837 262.558 77.0801 262.034 77.1048 261.479C77.1107 261.313 77.1196 261.154 77.1313 261H83.0681C81.3707 262.992 79.7484 265.289 78.292 267.813C76.9335 270.164 75.8226 272.532 74.9732 274.824C74.7786 275.349 74.8003 275.929 75.0334 276.437C75.2665 276.946 75.692 277.341 76.2164 277.536C76.7407 277.73 77.321 277.709 77.8294 277.476C78.3378 277.242 78.7328 276.817 78.9276 276.293C79.7532 274.088 80.7627 271.957 81.9454 269.922C84.065 266.248 86.5115 263.196 88.8956 261H90.1589C90.0862 261.046 90.0163 261.097 89.9495 261.153L89.9523 261.158C89.7388 261.335 89.5622 261.552 89.4325 261.796C89.3029 262.041 89.2227 262.309 89.1966 262.585C89.1704 262.861 89.1989 263.139 89.2803 263.404C89.3617 263.669 89.4945 263.915 89.6711 264.128C91.1663 265.944 92.5069 267.882 93.6789 269.922C96.3873 274.608 97.9483 279.243 98.3561 282.896C98.5614 284.724 98.463 286.203 98.1536 287.283C97.8498 288.349 97.383 288.892 96.9217 289.159C96.3705 289.48 95.448 289.607 93.9798 289.072C92.523 288.543 90.782 287.435 88.9258 285.742C88.5115 285.372 87.9677 285.179 87.4125 285.208C86.8574 285.236 86.3358 285.482 85.9611 285.892C85.5864 286.303 85.389 286.845 85.4117 287.4C85.4344 287.956 85.6754 288.48 86.0823 288.858C88.1861 290.779 90.3939 292.256 92.537 293.038C94.6717 293.817 97.0089 293.98 99.0311 292.813C100.702 291.848 101.697 290.231 102.212 288.445C102.718 286.67 102.791 284.6 102.55 282.426C102.063 278.073 100.26 272.881 97.3352 267.813C96.0443 265.566 94.5673 263.433 92.9195 261.434C92.7794 261.264 92.6137 261.118 92.4289 261H98.4922C98.5994 262.402 98.4581 264.138 98.0217 266.131C97.9497 266.406 97.9339 266.693 97.9754 266.974C98.0169 267.255 98.1148 267.525 98.2632 267.767C98.4116 268.009 98.6074 268.219 98.8389 268.384C99.0704 268.549 99.3328 268.665 99.6104 268.726C99.888 268.787 100.175 268.791 100.454 268.738C100.733 268.685 100.999 268.577 101.235 268.419C101.471 268.261 101.673 268.056 101.829 267.818C101.984 267.581 102.09 267.314 102.139 267.034C102.608 264.905 102.822 262.853 102.719 261H191.721L214.846 298.008L253.009 274.162L244.784 261H261V227.609C262.963 227.842 265.032 227.216 266.899 226.225C267.143 226.095 267.36 225.918 267.536 225.705C267.713 225.491 267.845 225.245 267.926 224.98C268.007 224.715 268.035 224.436 268.009 224.16C267.982 223.885 267.902 223.617 267.772 223.372C267.642 223.127 267.465 222.911 267.251 222.734C267.037 222.558 266.791 222.426 266.526 222.345C266.261 222.263 265.983 222.235 265.707 222.262C265.431 222.288 265.163 222.369 264.919 222.499C263.026 223.504 261.759 223.569 261 223.297V218.163C263.632 218.662 266.507 218.932 269.5 218.932C272.09 218.938 274.676 218.727 277.232 218.302C277.505 218.256 277.766 218.156 278.001 218.009C278.235 217.862 278.439 217.67 278.599 217.444C278.759 217.218 278.874 216.962 278.935 216.692C278.997 216.422 279.005 216.143 278.958 215.87C278.912 215.596 278.812 215.335 278.665 215.1C278.518 214.866 278.326 214.663 278.1 214.502C277.874 214.342 277.619 214.227 277.348 214.166C277.078 214.104 276.799 214.096 276.526 214.143C274.357 214.511 271.989 214.714 269.5 214.714C266.417 214.714 263.533 214.401 261 213.86V210.101C261.812 207.965 262.797 205.898 263.945 203.922C266.648 199.237 269.883 195.563 272.841 193.387C274.324 192.295 275.651 191.64 276.742 191.367C277.817 191.097 278.523 191.229 278.984 191.497C279.535 191.814 280.109 192.548 280.379 194.084C280.649 195.614 280.559 197.678 280.022 200.131C279.95 200.406 279.934 200.693 279.975 200.974C280.017 201.255 280.115 201.525 280.263 201.767C280.412 202.009 280.607 202.219 280.839 202.384C281.07 202.549 281.333 202.665 281.61 202.726C281.888 202.787 282.175 202.791 282.454 202.738C282.733 202.685 282.999 202.577 283.235 202.419C283.471 202.261 283.673 202.056 283.829 201.818C283.984 201.581 284.09 201.314 284.139 201.034C284.752 198.252 284.929 195.603 284.533 193.356C284.139 191.114 283.115 189.01 281.09 187.843C279.423 186.878 277.521 186.825 275.719 187.275C273.927 187.722 272.099 188.693 270.338 189.989C267.091 192.382 263.787 196.095 261 200.625V191.34C261.769 191.094 263.023 191.18 264.873 192.168C265.367 192.432 265.945 192.488 266.481 192.325C267.016 192.162 267.465 191.793 267.728 191.299C267.991 190.806 268.048 190.227 267.885 189.692C267.722 189.157 267.353 188.708 266.859 188.445C265.006 187.457 262.952 186.828 261 187.042V0H245.784L254.009 13.162L215.846 37.0084L192.721 0H102.63ZM98.3636 0H102.63C102.892 2.10225 102.695 4.51378 102.139 7.03381C102.09 7.31361 101.984 7.58051 101.829 7.81848C101.673 8.05645 101.471 8.26058 101.235 8.41862C100.999 8.57666 100.733 8.68534 100.454 8.73816C100.175 8.79097 99.888 8.78683 99.6104 8.72596C99.3328 8.6651 99.0704 8.54878 98.8389 8.38398C98.6074 8.21918 98.4116 8.00931 98.2632 7.76695C98.1148 7.52459 98.0169 7.25475 97.9754 6.97363C97.9339 6.6925 97.9497 6.40589 98.0217 6.13099C98.5589 3.6785 98.6489 1.61412 98.3789 0.0841198C98.3739 0.055809 98.3688 0.0277691 98.3636 0ZM98.3636 0H90.0492C90.315 -0.215977 90.5793 -0.420549 90.8414 -0.61338C92.3235 -1.70463 93.651 -2.35994 94.7423 -2.63276C95.8167 -2.90276 96.5226 -2.77057 96.9839 -2.50338C97.5249 -2.19143 98.0877 -1.47843 98.3636 0ZM261 187.042V191.34C260.866 191.383 260.746 191.436 260.64 191.496C259.935 191.904 259.192 193.026 259.105 195.479C259.08 196.034 258.837 196.558 258.428 196.935C258.02 197.312 257.479 197.513 256.923 197.493C256.367 197.473 255.842 197.235 255.461 196.83C255.08 196.425 254.874 195.886 254.889 195.33C254.996 192.326 255.946 189.336 258.531 187.843C259.318 187.389 260.149 187.135 261 187.042ZM261 200.625C260.76 201.015 260.524 201.411 260.292 201.813C258.934 204.164 257.823 206.532 256.973 208.824C256.779 209.349 256.8 209.929 257.033 210.437C257.267 210.946 257.692 211.341 258.216 211.536C258.741 211.73 259.321 211.709 259.829 211.476C260.338 211.242 260.733 210.817 260.928 210.293C260.952 210.229 260.976 210.165 261 210.101V200.625ZM256.954 217.155C256.413 217.183 255.904 217.417 255.53 217.81C255.149 218.211 254.941 218.747 254.951 219.301C255.049 222.316 256 225.317 258.593 226.816C259.361 227.259 260.171 227.511 261 227.609V223.297C260.89 223.257 260.791 223.211 260.703 223.16C259.994 222.752 259.251 221.621 259.167 219.16C259.14 218.607 258.897 218.086 258.49 217.711C258.424 217.65 258.355 217.594 258.283 217.543C259.154 217.778 260.061 217.985 261 218.163V213.86C259.088 213.451 257.375 212.912 255.927 212.278C254.242 211.541 253.01 210.717 252.228 209.91C251.458 209.114 251.219 208.439 251.219 207.905C251.219 207.266 251.568 206.403 252.766 205.401C253.953 204.403 255.786 203.45 258.177 202.69C258.441 202.606 258.686 202.471 258.898 202.293C259.11 202.114 259.284 201.896 259.412 201.65C259.539 201.404 259.617 201.135 259.641 200.859C259.664 200.583 259.633 200.305 259.549 200.041C259.466 199.777 259.331 199.532 259.152 199.32C258.973 199.108 258.755 198.933 258.509 198.806C258.012 198.548 257.433 198.499 256.9 198.668C254.186 199.529 251.801 200.702 250.052 202.167C248.311 203.63 247 205.57 247 207.905C247 209.831 247.9 211.505 249.197 212.84C250.479 214.168 252.231 215.268 254.237 216.142C255.084 216.513 255.992 216.852 256.954 217.155ZM256.954 217.155C256.966 217.155 256.978 217.154 256.99 217.154C257.454 217.138 257.908 217.277 258.283 217.543C257.83 217.421 257.386 217.292 256.954 217.155ZM236.484 261H244.784L229.162 236L191 259.846L191.721 261H228.523C228.09 261.687 227.795 262.429 227.714 263.142C227.188 266.325 229.949 269.595 233.074 269.698C234.413 269.813 235.793 269.593 237.044 269.394C238.769 269.119 240.248 268.883 241.036 269.618C242.596 271.235 241.207 272.941 239.319 273.823C237.857 274.362 236.727 274.154 235.203 273.445C234.752 274.295 234.523 274.726 234.294 275.156C234.059 275.598 233.824 276.039 233.347 276.933C234.054 277.4 234.583 277.552 235.348 277.772C235.476 277.809 235.61 277.848 235.753 277.89C240.276 278.968 247.117 274.501 245.704 269.474C245.664 269.297 245.39 268.115 244.183 266.782C242.814 265.214 240.762 264.46 236.54 265.198C236.254 265.235 235.966 265.28 235.682 265.325L235.68 265.325C234.468 265.516 233.31 265.699 232.547 265.178C232.086 264.748 231.887 264.469 231.779 264.102C231.396 262.932 232.408 261.86 233.549 261.551C234.297 261.372 235.179 261.483 236.005 262.022C236.199 261.609 236.354 261.277 236.484 261ZM236.484 261H228.523C228.781 260.592 229.087 260.203 229.425 259.85L230.46 259.001C232.595 257.606 234.303 257.333 235.987 257.821C236.438 257.928 236.851 258.089 237.681 258.479L237.493 258.874L237.331 259.214L237.33 259.215L237.327 259.221L237.327 259.221L237.326 259.223C237.041 259.821 236.878 260.16 236.484 261ZM102.719 261C102.687 260.432 102.626 259.883 102.533 259.356C102.139 257.114 101.115 255.01 99.0904 253.843C97.4226 252.879 95.5214 252.825 93.7185 253.275C91.927 253.722 90.0989 254.693 88.3382 255.989C86.5674 257.294 84.7796 258.991 83.0681 261H88.8956C89.5516 260.396 90.2029 259.856 90.8414 259.387C92.3235 258.295 93.651 257.64 94.7423 257.367C95.8167 257.097 96.5226 257.229 96.9839 257.497C97.5351 257.814 98.1089 258.548 98.3789 260.084C98.4295 260.371 98.4674 260.677 98.4922 261H102.719ZM92.4289 261C92.381 260.969 92.3317 260.941 92.2813 260.914C92.0365 260.784 91.7686 260.704 91.4928 260.678C91.217 260.652 90.9388 260.68 90.674 260.762C90.492 260.818 90.3188 260.898 90.1589 261H92.4289ZM77.1313 261C77.2921 258.878 77.9822 257.877 78.6405 257.496C79.3492 257.091 80.6992 257.007 82.8733 258.168C83.3671 258.432 83.9453 258.488 84.4806 258.325C85.016 258.162 85.4647 257.793 85.728 257.299C85.9913 256.806 86.0476 256.227 85.8847 255.692C85.7217 255.157 85.3527 254.708 84.8589 254.445C82.1983 253.027 79.1242 252.347 76.5311 253.843C74.041 255.282 73.0676 258.109 72.9041 261H77.1313ZM0 226.476C0.22031 226.802 0.463381 227.022 0.702606 227.16C1.40573 227.568 2.75292 227.649 4.91854 226.499C5.16323 226.369 5.43113 226.288 5.70695 226.262C5.98277 226.235 6.2611 226.263 6.52605 226.345C6.791 226.426 7.03738 226.558 7.25113 226.734C7.46489 226.911 7.64182 227.127 7.77183 227.372C7.90183 227.617 7.98237 227.885 8.00885 228.16C8.03532 228.436 8.00721 228.715 7.92612 228.98C7.84503 229.245 7.71254 229.491 7.53623 229.705C7.35992 229.918 7.14323 230.095 6.89854 230.225C4.71154 231.386 2.24593 232.047 0 231.41V226.476ZM-1.71737 221.543C-1.64531 221.594 -1.57617 221.65 -1.51045 221.711C-1.10306 222.086 -0.859731 222.607 -0.833018 223.16C-0.777122 224.791 -0.4324 225.837 0 226.476V221.96C2.89668 222.588 6.12338 222.932 9.5 222.932C12.0902 222.938 14.6764 222.727 17.2316 222.302C17.5047 222.256 17.766 222.156 18.0007 222.009C18.2353 221.862 18.4386 221.67 18.5989 221.444C18.7593 221.218 18.8736 220.962 18.9353 220.692C18.9969 220.422 19.0048 220.143 18.9584 219.87C18.9121 219.596 18.8124 219.335 18.6651 219.1C18.5178 218.866 18.3256 218.663 18.0997 218.502C17.8738 218.342 17.6185 218.227 17.3484 218.166C17.0784 218.104 16.7988 218.096 16.5256 218.143C14.3572 218.511 11.9891 218.714 9.5 218.714C6.00297 218.714 2.76317 218.312 0 217.63V221.96C-0.586484 221.832 -1.15944 221.693 -1.71737 221.543ZM-1.71737 221.543C-2.09204 221.277 -2.54589 221.138 -3.01026 221.154C-3.02221 221.154 -3.03413 221.155 -3.04605 221.155C-2.6136 221.292 -2.17044 221.421 -1.71737 221.543ZM0 215.388C0.425943 215.143 0.755225 214.757 0.927607 214.293C1.75316 212.088 2.76265 209.957 3.94542 207.922C6.64823 203.237 9.88261 199.563 12.8414 197.387C14.3235 196.295 15.651 195.64 16.7423 195.367C17.8167 195.097 18.5226 195.229 18.9839 195.497C19.5351 195.814 20.1089 196.548 20.3789 198.084C20.6489 199.614 20.5589 201.678 20.0217 204.131C19.9497 204.406 19.9339 204.693 19.9754 204.974C20.0169 205.255 20.1148 205.525 20.2632 205.767C20.4116 206.009 20.6074 206.219 20.8389 206.384C21.0704 206.549 21.3328 206.665 21.6104 206.726C21.888 206.787 22.175 206.791 22.4542 206.738C22.7335 206.685 22.9991 206.577 23.2353 206.419C23.4715 206.261 23.6733 206.056 23.8286 205.818C23.9839 205.581 24.0896 205.314 24.1392 205.034C24.7523 202.252 24.9295 199.603 24.5329 197.356C24.1392 195.114 23.1154 193.01 21.0904 191.843C19.4226 190.878 17.5214 190.825 15.7185 191.275C13.927 191.722 12.0989 192.693 10.3382 193.989C6.81136 196.588 3.21698 200.745 0.291981 205.813C0.193347 205.984 0.0960188 206.154 0 206.325V215.388ZM0 196.092C0.20359 195.814 0.423752 195.622 0.640468 195.496C1.34922 195.091 2.69922 195.007 4.87328 196.168C5.36708 196.432 5.94526 196.488 6.48061 196.325C7.01597 196.162 7.46466 195.793 7.72797 195.299C7.99128 194.806 8.04764 194.227 7.88466 193.692C7.72168 193.157 7.35271 192.708 6.85891 192.445C4.68597 191.287 2.23726 190.621 0 191.231V196.092ZM72.9946 0H77.2588C77.1788 0.428505 77.1247 0.918997 77.1048 1.4788C77.0801 2.03433 76.837 2.55762 76.4284 2.93481C76.0198 3.31201 75.4788 3.51261 74.923 3.49296C74.3673 3.47331 73.8418 3.235 73.4609 2.82989C73.0799 2.42478 72.8744 1.88563 72.8889 1.32974C72.9047 0.884575 72.9391 0.43972 72.9946 0ZM90.0492 0C87.3138 2.22218 84.4088 5.65168 81.9454 9.92225C80.7627 11.9573 79.7532 14.0883 78.9276 16.2926C78.7328 16.8169 78.3378 17.2424 77.8294 17.4755C77.321 17.7086 76.7407 17.7303 76.2164 17.5357C75.692 17.3409 75.2665 16.9459 75.0334 16.4375C74.8003 15.929 74.7786 15.3488 74.9732 14.8244C75.8226 12.5322 76.9335 10.1641 78.292 7.81287C79.9988 4.85544 81.9336 2.20831 83.9499 0H90.0492ZM229.523 0C229.09 0.687374 228.795 1.42888 228.714 2.14162C228.188 5.32495 230.949 8.59528 234.074 8.69819C235.413 8.81285 236.793 8.59299 238.044 8.3937C239.769 8.11886 241.248 7.88316 242.036 8.61815C243.596 10.2346 242.207 11.9408 240.319 12.823C238.857 13.3623 237.727 13.1543 236.203 12.4449C235.752 13.2952 235.523 13.7258 235.294 14.1561C235.059 14.5978 234.824 15.0391 234.347 15.9333C235.054 16.4004 235.583 16.5524 236.348 16.7724C236.476 16.8091 236.61 16.8476 236.753 16.8899C241.276 17.9681 248.117 13.5011 246.704 8.47431C246.664 8.29713 246.39 7.11464 245.183 5.78206C243.814 4.21356 241.762 3.45967 237.54 4.19816C237.254 4.23499 236.965 4.2804 236.68 4.32533C235.468 4.51631 234.31 4.69872 233.547 4.17783C233.086 3.7483 232.887 3.46891 232.779 3.10222C232.396 1.93182 233.408 0.860004 234.549 0.551245C235.297 0.372116 236.179 0.483053 237.005 1.02187C237.199 0.608591 237.354 0.277058 237.484 0H229.523ZM231.033 22.8127C232.052 21.6711 232.657 20.2473 232.506 18.7507C232.4 17.0381 231.445 15.5631 230.383 13.9238C230.199 13.64 230.012 13.3513 229.826 13.0556C228.482 10.8785 227.149 8.7538 225.792 6.59188L225.79 6.58834L225.782 6.57598L225.782 6.57483C225.093 5.47667 224.397 4.36886 223.692 3.23966L220.117 5.4734C221.058 6.97885 221.998 8.49191 222.942 10.0093C223.911 11.569 224.884 13.1333 225.862 14.6985C226.111 15.0966 226.359 15.4843 226.597 15.8557C227.532 17.3181 228.307 18.5288 228.327 19.1287C228.483 20.5419 227.043 21.2541 226.294 21.4292C225.473 21.5132 224.879 21.2733 224.12 20.8839L224.052 20.8472C223.873 20.7507 223.741 20.6796 223.712 20.6842L221.918 24.2802C223.021 24.9701 224.271 25.3862 225.532 25.3758C227.405 25.3422 229.393 24.4486 231.033 22.8127ZM90.674 0.761786C90.4092 0.843206 90.163 0.97599 89.9495 1.15255L89.9523 1.15818C89.7388 1.33471 89.5622 1.55157 89.4325 1.79638C89.3029 2.04118 89.2227 2.30913 89.1966 2.58492C89.1704 2.86072 89.1989 3.13896 89.2803 3.40375C89.3617 3.66854 89.4945 3.9147 89.6711 4.12818C91.1663 5.94426 92.5069 7.88227 93.6789 9.92193C96.3873 14.6076 97.9483 19.2426 98.3561 22.896C98.5614 24.7241 98.463 26.2035 98.1536 27.2835C97.8498 28.3494 97.383 28.8922 96.9217 29.1594C96.3705 29.4801 95.448 29.6066 93.9798 29.0722C92.523 28.5435 90.782 27.4354 88.9258 25.7422C88.5115 25.3716 87.9677 25.1795 87.4125 25.2076C86.8574 25.2357 86.3358 25.4819 85.9611 25.8925C85.5864 26.3031 85.389 26.845 85.4117 27.4004C85.4344 27.9558 85.6754 28.4798 86.0823 28.8585C88.1861 30.7794 90.3939 32.256 92.537 33.0379C94.6717 33.8169 97.0089 33.9801 99.0311 32.8129C100.702 31.8482 101.697 30.231 102.212 28.4451C102.718 26.6704 102.791 24.6004 102.55 22.4263C102.063 18.0726 100.26 12.8807 97.3352 7.81255C96.0443 5.5665 94.5673 3.43276 92.9195 1.4338C92.743 1.22031 92.5261 1.04368 92.2813 0.914C92.0365 0.784321 91.7686 0.704134 91.4928 0.678017C91.217 0.651899 90.9388 0.680365 90.674 0.761786ZM272.674 194.762C272.409 194.843 272.163 194.976 271.95 195.153L271.952 195.158C271.739 195.335 271.562 195.552 271.433 195.796C271.303 196.041 271.223 196.309 271.197 196.585C271.17 196.861 271.199 197.139 271.28 197.404C271.362 197.669 271.495 197.915 271.671 198.128C273.166 199.944 274.507 201.882 275.679 203.922C278.387 208.608 279.948 213.243 280.356 216.896C280.561 218.724 280.463 220.203 280.154 221.283C279.85 222.349 279.383 222.892 278.922 223.159C278.37 223.48 277.448 223.607 275.98 223.072C274.523 222.543 272.782 221.435 270.926 219.742C270.512 219.372 269.968 219.179 269.413 219.208C268.857 219.236 268.336 219.482 267.961 219.892C267.586 220.303 267.389 220.845 267.412 221.4C267.434 221.956 267.675 222.48 268.082 222.858C270.186 224.779 272.394 226.256 274.537 227.038C276.672 227.817 279.009 227.98 281.031 226.813C282.702 225.848 283.697 224.231 284.212 222.445C284.718 220.67 284.791 218.6 284.55 216.426C284.063 212.073 282.26 206.881 279.335 201.813C278.044 199.566 276.567 197.433 274.92 195.434C274.743 195.22 274.526 195.044 274.281 194.914C274.037 194.784 273.769 194.704 273.493 194.678C273.217 194.652 272.939 194.68 272.674 194.762ZM11.9495 199.153C12.163 198.976 12.4092 198.843 12.674 198.762C12.9388 198.68 13.217 198.652 13.4928 198.678C13.7686 198.704 14.0365 198.784 14.2813 198.914C14.5261 199.044 14.743 199.22 14.9195 199.434C16.5673 201.433 18.0443 203.566 19.3352 205.813C22.2602 210.881 24.063 216.073 24.5495 220.426C24.7914 222.6 24.7183 224.67 24.212 226.445C23.6973 228.231 22.7017 229.848 21.0311 230.813C19.0089 231.98 16.6717 231.817 14.537 231.038C12.3939 230.256 10.1861 228.779 8.08234 226.858C7.6754 226.48 7.43438 225.956 7.41168 225.4C7.38898 224.845 7.58642 224.303 7.96109 223.892C8.33577 223.482 8.85738 223.236 9.41254 223.208C9.96769 223.179 10.5115 223.372 10.9258 223.742C12.782 225.435 14.523 226.543 15.9798 227.072C17.448 227.607 18.3705 227.48 18.9217 227.159C19.383 226.892 19.8498 226.349 20.1536 225.283C20.463 224.203 20.5614 222.724 20.3561 220.896C19.9483 217.243 18.3873 212.608 15.6789 207.922C14.5069 205.882 13.1663 203.944 11.6711 202.128C11.4945 201.915 11.3617 201.669 11.2803 201.404C11.1989 201.139 11.1704 200.861 11.1966 200.585C11.2227 200.309 11.3029 200.041 11.4325 199.796C11.5622 199.552 11.7388 199.335 11.9523 199.158L11.9495 199.153ZM105.781 13.9045C105.781 13.0889 105.179 11.8823 103.101 10.5858C102.866 10.4389 102.662 10.2473 102.501 10.0217C102.34 9.79605 102.225 9.54095 102.163 9.2709C102.1 9.00086 102.092 8.72116 102.137 8.44779C102.183 8.17442 102.282 7.91272 102.429 7.67763C102.725 7.20285 103.198 6.8653 103.744 6.73924C104.014 6.67682 104.293 6.66821 104.567 6.71388C104.84 6.75955 105.102 6.85863 105.337 7.00544C107.885 8.60013 110 10.9176 110 13.9045C110 16.897 107.874 19.2201 105.314 20.8148C104.84 21.0996 104.273 21.1864 103.735 21.0567C103.197 20.927 102.731 20.5911 102.439 20.1214C102.146 19.6517 102.05 19.0859 102.17 18.5458C102.291 18.0058 102.619 17.5349 103.084 17.2345C105.177 15.9295 105.781 14.7201 105.781 13.9045ZM96.9584 21.8695C97.0048 22.1426 96.9969 22.4222 96.9353 22.6923C96.8736 22.9624 96.7593 23.2177 96.5989 23.4436C96.4386 23.6695 96.2353 23.8616 96.0007 24.009C95.766 24.1563 95.5047 24.256 95.2316 24.3023C92.6764 24.7269 90.0902 24.9377 87.5 24.9323C83.4397 24.9323 79.5962 24.4351 76.2826 23.5431C75.908 23.2766 75.4541 23.1384 74.9897 23.1539C74.9778 23.1543 74.9659 23.1548 74.954 23.1554C73.9923 22.8519 73.0835 22.5133 72.2366 22.1423C70.2312 21.2676 68.4791 20.1679 67.1966 18.8404C65.9 17.5045 65 15.8311 65 13.9045C65 11.5701 66.3106 9.6295 68.0516 8.167C69.8009 6.70169 72.1859 5.52888 74.9 4.66825C75.4333 4.49893 76.0121 4.5484 76.5089 4.8058C76.755 4.93325 76.9735 5.1079 77.152 5.3198C77.3305 5.53169 77.4655 5.77667 77.5494 6.04075C77.6332 6.30483 77.6642 6.58284 77.6406 6.8589C77.617 7.13497 77.5393 7.40368 77.4118 7.64969C77.2844 7.89571 77.1097 8.11422 76.8978 8.29274C76.6859 8.47125 76.441 8.60629 76.1769 8.69013C73.7862 9.4495 71.9525 10.4029 70.7656 11.4014C69.5675 12.4026 69.2188 13.2661 69.2188 13.9045C69.2188 14.4389 69.4578 15.1139 70.2284 15.9098C71.0103 16.717 72.2422 17.5411 73.9269 18.2779C77.2934 19.7517 82.0888 20.7136 87.5 20.7136C89.9891 20.7136 92.3572 20.5111 94.5256 20.1426C94.7988 20.0962 95.0784 20.1041 95.3484 20.1658C95.6185 20.2275 95.8738 20.3418 96.0997 20.5021C96.3256 20.6625 96.5178 20.8658 96.6651 21.1004C96.8124 21.335 96.9121 21.5964 96.9584 21.8695ZM74.954 23.1554C74.4135 23.1826 73.9036 23.4166 73.5304 23.8096C73.1489 24.2114 72.9408 24.7471 72.951 25.301C73.0495 28.316 74.0001 31.3169 76.5932 32.816C79.1779 34.3066 82.2435 33.6344 84.8985 32.2254C85.1432 32.0954 85.3599 31.9184 85.5362 31.7047C85.7125 31.4909 85.845 31.2445 85.9261 30.9796C86.0072 30.7146 86.0353 30.4363 86.0089 30.1605C85.9824 29.8847 85.9018 29.6168 85.7718 29.3721C85.6418 29.1274 85.4649 28.9107 85.2511 28.7344C85.0374 28.5581 84.791 28.4256 84.526 28.3445C84.2611 28.2634 83.9828 28.2353 83.7069 28.2618C83.4311 28.2883 83.1632 28.3688 82.9185 28.4988C80.7529 29.6491 79.4057 29.5676 78.7026 29.1597C77.9939 28.7519 77.2514 27.6213 77.167 25.1604C77.1403 24.607 76.8969 24.0864 76.4895 23.7109C76.4238 23.6504 76.3547 23.5944 76.2826 23.5431C75.8296 23.4212 75.3864 23.2918 74.954 23.1554ZM285.101 204.586C287.179 205.882 287.781 207.089 287.781 207.905C287.781 208.72 287.177 209.93 285.084 211.234C284.619 211.535 284.291 212.006 284.17 212.546C284.05 213.086 284.146 213.652 284.439 214.121C284.731 214.591 285.197 214.927 285.735 215.057C286.273 215.186 286.84 215.1 287.314 214.815C289.874 213.22 292 210.897 292 207.905C292 204.918 289.885 202.6 287.337 201.005C287.102 200.859 286.84 200.76 286.567 200.714C286.293 200.668 286.014 200.677 285.744 200.739C285.198 200.865 284.725 201.203 284.429 201.678C284.282 201.913 284.183 202.174 284.137 202.448C284.092 202.721 284.1 203.001 284.163 203.271C284.225 203.541 284.34 203.796 284.501 204.022C284.662 204.247 284.866 204.439 285.101 204.586ZM27.7812 211.905C27.7812 211.089 27.1794 209.882 25.1009 208.586C24.8659 208.439 24.662 208.247 24.501 208.022C24.34 207.796 24.225 207.541 24.1626 207.271C24.1001 207.001 24.0915 206.721 24.1372 206.448C24.1829 206.174 24.2819 205.913 24.4287 205.678C24.7253 205.203 25.1982 204.865 25.7436 204.739C26.0136 204.677 26.2933 204.668 26.5667 204.714C26.8401 204.76 27.1018 204.859 27.3369 205.005C29.885 206.6 32 208.918 32 211.905C32 214.897 29.8737 217.22 27.3144 218.815C26.8399 219.1 26.2725 219.186 25.7346 219.057C25.1966 218.927 24.7312 218.591 24.4386 218.121C24.146 217.652 24.0497 217.086 24.1704 216.546C24.2912 216.006 24.6193 215.535 25.0841 215.234C27.1766 213.93 27.7812 212.72 27.7812 211.905ZM103.101 270.586C105.179 271.882 105.781 273.089 105.781 273.905C105.781 274.72 105.177 275.93 103.084 277.234C102.619 277.535 102.291 278.006 102.17 278.546C102.05 279.086 102.146 279.652 102.439 280.121C102.731 280.591 103.197 280.927 103.735 281.057C104.273 281.186 104.84 281.1 105.314 280.815C107.874 279.22 110 276.897 110 273.905C110 270.918 107.885 268.6 105.337 267.005C105.102 266.859 104.84 266.76 104.567 266.714C104.293 266.668 104.014 266.677 103.744 266.739C103.198 266.865 102.725 267.203 102.429 267.678C102.282 267.913 102.183 268.174 102.137 268.448C102.092 268.721 102.1 269.001 102.163 269.271C102.225 269.541 102.34 269.796 102.501 270.022C102.662 270.247 102.866 270.439 103.101 270.586ZM96.9353 282.692C96.9969 282.422 97.0048 282.143 96.9584 281.87C96.9121 281.596 96.8124 281.335 96.6651 281.1C96.5178 280.866 96.3256 280.663 96.0997 280.502C95.8738 280.342 95.6185 280.228 95.3484 280.166C95.0784 280.104 94.7988 280.096 94.5256 280.143C92.3572 280.511 89.9891 280.714 87.5 280.714C82.0888 280.714 77.2934 279.752 73.9269 278.278C72.2422 277.541 71.0103 276.717 70.2284 275.91C69.4578 275.114 69.2188 274.439 69.2188 273.905C69.2188 273.266 69.5675 272.403 70.7656 271.401C71.9525 270.403 73.7862 269.449 76.1769 268.69C76.441 268.606 76.6859 268.471 76.8978 268.293C77.1097 268.114 77.2844 267.896 77.4118 267.65C77.5393 267.404 77.617 267.135 77.6406 266.859C77.6642 266.583 77.6332 266.305 77.5494 266.041C77.4655 265.777 77.3305 265.532 77.152 265.32C76.9735 265.108 76.755 264.933 76.5089 264.806C76.0121 264.548 75.4333 264.499 74.9 264.668C72.1859 265.529 69.8009 266.702 68.0516 268.167C66.3106 269.63 65 271.57 65 273.905C65 275.831 65.9 277.505 67.1966 278.84C68.4791 280.168 70.2312 281.268 72.2366 282.142C73.0835 282.513 73.9923 282.852 74.954 283.155C74.4135 283.183 73.9036 283.417 73.5304 283.81C73.1489 284.211 72.9408 284.747 72.951 285.301C73.0495 288.316 74.0001 291.317 76.5932 292.816C79.1779 294.307 82.2435 293.634 84.8985 292.225C85.1432 292.095 85.3599 291.918 85.5362 291.705C85.7125 291.491 85.845 291.245 85.9261 290.98C86.0072 290.715 86.0353 290.436 86.0089 290.16C85.9824 289.885 85.9018 289.617 85.7718 289.372C85.6418 289.127 85.4649 288.911 85.2511 288.734C85.0374 288.558 84.791 288.426 84.526 288.345C84.2611 288.263 83.9828 288.235 83.7069 288.262C83.4311 288.288 83.1632 288.369 82.9185 288.499C80.7529 289.649 79.4057 289.568 78.7026 289.16C77.9939 288.752 77.2514 287.621 77.167 285.16C77.1403 284.607 76.8969 284.086 76.4895 283.711C76.4238 283.65 76.3547 283.594 76.2826 283.543C79.5962 284.435 83.4397 284.932 87.5 284.932C90.0902 284.938 92.6764 284.727 95.2316 284.302C95.5047 284.256 95.766 284.156 96.0007 284.009C96.2353 283.862 96.4386 283.67 96.5989 283.444C96.7593 283.218 96.8736 282.962 96.9353 282.692ZM76.2826 283.543C75.9079 283.277 75.4541 283.138 74.9897 283.154L74.9666 283.155L74.954 283.155C75.3864 283.292 75.8296 283.421 76.2826 283.543ZM91.6061 13.511C91.6061 14.5255 91.2031 15.4984 90.4857 16.2157C89.7684 16.933 88.7955 17.336 87.7811 17.336C86.7666 17.336 85.7937 16.933 85.0764 16.2157C84.359 15.4984 83.9561 14.5255 83.9561 13.511C83.9561 12.4966 84.359 11.5237 85.0764 10.8064C85.7937 10.089 86.7666 9.68604 87.7811 9.68604C88.7955 9.68604 89.7684 10.089 90.4857 10.8064C91.2031 11.5237 91.6061 12.4966 91.6061 13.511ZM272.486 210.216C273.203 209.498 273.606 208.525 273.606 207.511C273.606 206.497 273.203 205.524 272.486 204.806C271.768 204.089 270.796 203.686 269.781 203.686C268.767 203.686 267.794 204.089 267.076 204.806C266.359 205.524 265.956 206.497 265.956 207.511C265.956 208.525 266.359 209.498 267.076 210.216C267.794 210.933 268.767 211.336 269.781 211.336C270.796 211.336 271.768 210.933 272.486 210.216ZM13.6061 211.511C13.6061 212.525 13.2031 213.498 12.4857 214.216C11.7684 214.933 10.7955 215.336 9.78106 215.336C8.7666 215.336 7.7937 214.933 7.07637 214.216C6.35905 213.498 5.95605 212.525 5.95605 211.511C5.95605 210.497 6.35905 209.524 7.07637 208.806C7.7937 208.089 8.7666 207.686 9.78106 207.686C10.7955 207.686 11.7684 208.089 12.4857 208.806C13.2031 209.524 13.6061 210.497 13.6061 211.511ZM90.4857 276.216C91.2031 275.498 91.6061 274.525 91.6061 273.511C91.6061 272.497 91.2031 271.524 90.4857 270.806C89.7684 270.089 88.7955 269.686 87.7811 269.686C86.7666 269.686 85.7937 270.089 85.0764 270.806C84.359 271.524 83.9561 272.497 83.9561 273.511C83.9561 274.525 84.359 275.498 85.0764 276.216C85.7937 276.933 86.7666 277.336 87.7811 277.336C88.7955 277.336 89.7684 276.933 90.4857 276.216ZM159.173 137.792L159.171 137.79H159.173V137.792ZM159.17 137.789C156.95 135.782 156.302 131.575 157.228 128.525C158.832 130.448 161.057 131.059 163.361 131.402C166.917 131.933 170.409 131.734 173.711 130.131C173.964 130.009 174.203 129.859 174.457 129.7L174.457 129.699L174.458 129.698L174.459 129.698L174.459 129.698L174.459 129.698C174.531 129.653 174.605 129.607 174.68 129.56L174.756 129.514C174.787 129.495 174.819 129.476 174.851 129.456C175.162 130.343 175.243 131.237 175.134 132.15C174.872 134.371 173.751 136.086 171.97 137.387C171.482 137.743 170.975 138.073 170.467 138.404L170.466 138.404C170.232 138.556 169.999 138.708 169.768 138.862C167.509 140.369 166.898 142.137 167.747 144.709L167.829 144.986C166.749 144.522 165.83 143.747 165.192 142.759C164.528 141.749 164.174 140.566 164.172 139.357L164.171 139.207C164.164 138.656 164.158 138.104 164.082 137.561C163.884 136.12 163.198 135.475 161.906 135.438C160.581 135.4 159.531 136.208 159.254 137.481C159.247 137.51 159.24 137.539 159.232 137.569C159.225 137.596 159.217 137.623 159.209 137.651L159.197 137.694C159.188 137.725 159.179 137.756 159.17 137.789ZM159.17 137.789L159.17 137.79H159.171L159.17 137.789ZM148 129.46C148 129.46 154.073 126.508 160.165 126.508L164.759 112.328C164.932 111.642 165.434 111.177 166 111.177C166.566 111.177 167.068 111.642 167.241 112.328L171.833 126.508C179.05 126.508 184 129.46 184 129.46L173.663 101.363C173.366 100.534 172.866 100 172.191 100H159.809C159.134 100 158.656 100.534 158.339 101.363L148 129.46ZM208.455 170.485C218.267 172.57 224.129 184.114 221.545 196.27L221.543 196.269C218.959 208.425 208.911 216.587 199.099 214.501C193.013 213.208 188.442 208.293 186.486 201.818C185.879 199.854 185.207 197.911 184.472 195.992C183.208 192.595 182.25 190.02 182.678 188.008C183.099 186.028 184.619 184.476 187.084 181.963L187.16 181.885C188.451 180.564 189.996 178.982 191.774 176.943C196.194 171.822 202.369 169.191 208.455 170.485ZM183.98 190.016C185.503 190.33 186.942 190.96 188.204 191.868C189.458 192.769 190.504 193.927 191.272 195.266C191.396 195.476 191.735 195.404 191.695 195.158C191.298 192.86 189.377 189.461 184.017 189.583C183.716 189.573 183.714 189.96 183.98 190.016ZM184.285 188.59C185.742 188.093 187.287 187.911 188.82 188.054C190.356 188.198 191.845 188.665 193.188 189.424C193.398 189.547 193.65 189.317 193.493 189.126C191.981 187.365 188.649 185.402 184.013 188.177C183.807 188.323 184.004 188.662 184.256 188.583L184.285 188.59ZM184.542 186.831C185.68 185.808 187.024 185.04 188.483 184.578C189.956 184.113 191.51 183.962 193.045 184.135C193.098 184.152 193.155 184.149 193.206 184.127C193.256 184.106 193.296 184.065 193.316 184.014C193.336 183.964 193.335 183.907 193.314 183.857C193.293 183.805 193.253 183.763 193.202 183.739C191.075 182.683 187.166 182.196 184.161 186.531C184.005 186.763 184.317 186.998 184.517 186.825L184.542 186.831ZM188.559 198.3C188.423 196.774 188.29 195.471 187.529 194.127C186.771 192.779 185.027 191.739 184.469 191.621C184.084 191.602 184.24 191.933 184.24 191.933C186.068 193.515 187.182 194.948 188.166 198.516C188.34 198.627 188.513 198.515 188.559 198.3ZM212.548 191.762C211.985 190.746 211.116 189.933 210.065 189.438C209.937 189.392 209.796 189.406 209.68 189.477C209.646 189.497 209.616 189.522 209.589 189.55C209.571 189.57 209.555 189.591 209.54 189.613C209.505 189.669 209.484 189.732 209.477 189.798L207.931 197.07C207.911 197.133 207.904 197.2 207.913 197.266C207.922 197.332 207.946 197.395 207.983 197.451C208.021 197.506 208.072 197.552 208.13 197.586C208.189 197.62 208.254 197.64 208.321 197.645C209.478 197.626 210.6 197.244 211.53 196.554C212.318 196.036 212.902 195.262 213.184 194.362C213.273 193.449 213.048 192.531 212.548 191.762ZM204.037 200.99C204.289 200.207 204.257 199.361 203.947 198.6C203.675 197.942 203.214 197.379 202.623 196.981C202.03 196.58 201.333 196.36 200.617 196.346C199.9 196.333 199.196 196.527 198.587 196.905C197.989 197.284 197.517 197.829 197.236 198.471C196.955 199.115 196.877 199.828 197.012 200.517C197.148 201.207 197.485 201.846 197.99 202.35C198.582 202.941 199.356 203.314 200.187 203.41C201.018 203.506 201.857 203.318 202.568 202.877C203.265 202.44 203.785 201.772 204.037 200.99ZM207.35 185.41C207.604 184.629 207.575 183.783 207.268 183.022C206.998 182.362 206.539 181.796 205.949 181.396C205.357 180.992 204.66 180.769 203.944 180.753C203.227 180.736 202.521 180.928 201.911 181.304C201.309 181.682 200.837 182.228 200.554 182.871C200.272 183.515 200.192 184.229 200.326 184.918C200.459 185.61 200.798 186.249 201.303 186.753C201.806 187.263 202.453 187.611 203.157 187.761C204.09 187.962 205.065 187.793 205.876 187.29C206.573 186.856 207.095 186.191 207.35 185.41ZM144.424 208.96C145.097 208.902 145.795 209.022 146.417 209.312L152.927 212.432C153.896 212.873 153.46 213.093 153.168 213.22C151.972 213.759 151.729 213.872 150.48 214.739C150.347 214.832 150.164 214.817 150.015 214.739L145.013 212.336C144.834 212.251 144.593 212.272 144.441 212.386L126.845 224.703C126.684 224.818 126.591 225.029 126.608 225.229L128.48 246.62C128.498 246.831 128.625 247.012 128.815 247.106L148.272 256.171C148.451 256.257 148.682 256.237 148.844 256.121L166.419 243.806C166.591 243.69 166.684 243.48 166.666 243.269L164.795 221.888C164.777 221.688 164.65 221.497 164.461 221.422L159.128 218.937C156.248 217.803 154.704 219.566 154.847 221.202L156.694 242.312C156.72 242.613 156.5 242.865 156.199 242.891L153.851 243.096C153.56 243.122 153.289 242.913 153.263 242.612L151.415 221.492C151.094 217.82 152.916 215.537 156.398 215.233C157.471 215.139 158.314 215.065 160.764 216.023L165.865 218.398C167.129 218.985 167.985 220.214 168.107 221.609L169.977 242.99C170.099 244.374 169.47 245.743 168.327 246.541L150.751 258.856C149.635 259.621 148.08 259.757 146.858 259.197L127.39 250.113C126.126 249.526 125.27 248.296 125.148 246.902L123.277 225.521C123.156 224.136 123.785 222.777 124.928 221.969L142.524 209.652C143.086 209.259 143.742 209.02 144.424 208.96ZM131.309 231.349C131.659 235.352 134.461 236.179 140.216 236.434C146.042 236.692 146.658 237.033 146.776 238.377C146.873 239.491 146.511 241.019 142.247 241.392C138.445 241.725 136.968 241.025 136.161 238.507C136.09 238.271 135.854 238.109 135.603 238.131L133.195 238.342C133.044 238.355 132.909 238.428 132.818 238.547C132.728 238.666 132.691 238.821 132.714 238.97C133.472 243.363 136.592 245.162 142.532 244.643C147.819 244.18 150.775 241.677 150.447 237.935C150.093 233.881 146.854 233.032 141.743 232.974C135.621 232.913 135.072 232.061 134.967 230.867C134.786 228.8 136.375 227.772 140.278 227.43C145.184 227.001 146.365 228.141 146.94 230.548C147.003 230.805 147.24 230.976 147.511 230.953L149.909 230.743C150.21 230.717 150.42 230.456 150.394 230.165C150.121 227.044 148.1 223.47 139.983 224.18C134.125 224.703 130.956 227.316 131.309 231.349ZM219.48 142.788C219.515 141.003 219.045 139.246 218.126 137.716C217.202 136.479 215.904 135.572 214.424 135.129C212.945 134.686 211.362 134.731 209.91 135.256C211.913 133.492 214.508 132.547 217.177 132.609C219.846 132.672 222.394 133.737 224.313 135.593C225.848 136.835 227.08 138.411 227.915 140.2C228.749 141.99 229.165 143.946 229.129 145.92C229.099 147.708 229.563 149.469 230.469 151.01C231.394 152.238 232.685 153.141 234.157 153.59C235.628 154.038 237.203 154.007 238.656 153.503C236.653 155.268 234.058 156.213 231.389 156.151C228.72 156.088 226.172 155.023 224.253 153.166C222.719 151.915 221.491 150.329 220.664 148.53C219.837 146.731 219.432 144.767 219.48 142.788ZM246.381 142.862C246.347 144.646 246.816 146.404 247.735 147.934C248.66 149.171 249.958 150.077 251.438 150.52C252.917 150.963 254.5 150.919 255.952 150.393C253.948 152.158 251.354 153.103 248.685 153.04C246.015 152.978 243.468 151.912 241.549 150.056C240.017 148.811 238.788 147.235 237.954 145.446C237.12 143.657 236.702 141.703 236.733 139.729C236.762 137.942 236.299 136.181 235.393 134.64C234.468 133.411 233.177 132.508 231.705 132.06C230.234 131.612 228.658 131.642 227.205 132.146C229.209 130.382 231.804 129.436 234.473 129.499C237.142 129.561 239.69 130.627 241.609 132.483C243.143 133.735 244.371 135.32 245.198 137.119C246.025 138.918 246.43 140.882 246.381 142.862ZM82.9874 231.368C83.2359 231.159 83.4226 230.912 83.5763 230.661C82.8694 230.74 82.282 230.548 81.7776 230.197C81.7485 230.172 81.721 230.152 81.6937 230.133C81.6801 230.123 81.6665 230.113 81.6529 230.102C81.6358 230.089 81.6185 230.075 81.6007 230.059C81.5455 230.015 81.4942 229.967 81.447 229.914C80.9586 229.382 80.8935 229.075 80.8197 228.729C80.7891 228.585 80.757 228.434 80.6924 228.256C80.4508 227.443 79.8414 226.863 79.0985 226.608C79.0121 226.562 78.9211 226.526 78.8271 226.5C80.3929 227.884 80.0695 229.241 79.8241 230.271C79.7205 230.706 79.6307 231.082 79.7033 231.377C80.1919 232.015 81.0424 231.999 81.6818 231.947C82.1627 231.881 82.615 231.679 82.9862 231.366L82.9874 231.368ZM79.731 233.236C79.644 233.088 79.6193 233.064 79.5927 233.037C79.5772 233.021 79.561 233.005 79.5313 232.963C79.5056 232.924 79.4742 232.882 79.4428 232.84L79.4427 232.84C79.4224 232.813 79.4022 232.786 79.3836 232.76L79.369 232.739L79.3612 232.728L79.3545 232.718C79.3129 232.63 79.2699 232.544 79.2381 232.451C79.1951 232.364 79.1607 232.271 79.1304 232.176L79.0555 231.892L79.0551 231.882L79.0546 231.873C79.0542 231.867 79.0537 231.861 79.0531 231.855L79.0517 231.843L79.0503 231.832L79.0481 231.817L79.046 231.802C79.0421 231.777 79.0382 231.751 79.0369 231.724L79.0237 231.6L79.0213 231.572L79.0179 231.529L79.0148 231.482L79.0124 231.44C79.0102 231.397 79.0087 231.353 79.0079 231.31C79.0101 231.28 79.011 231.249 79.0119 231.219C79.0138 231.15 79.0158 231.082 79.0338 231.014L79.0265 231.005C79.032 230.974 79.0366 230.942 79.0413 230.91L79.0414 230.91C79.0502 230.848 79.0594 230.784 79.0755 230.72C79.1148 230.545 79.1731 230.376 79.2317 230.206C79.2736 230.084 79.3157 229.962 79.351 229.837C79.3568 229.816 79.363 229.794 79.3692 229.773C79.39 229.701 79.4104 229.63 79.417 229.554C79.4418 229.461 79.4585 229.366 79.4672 229.27C79.4842 229.166 79.4843 229.076 79.4844 228.97V228.967L79.4844 228.948C79.4844 228.861 79.4844 228.763 79.4685 228.676C79.4628 228.579 79.4522 228.481 79.4368 228.385C79.4253 228.337 79.4135 228.293 79.4018 228.249L79.3962 228.229L79.3878 228.197L79.3772 228.156L79.3704 228.129L79.3633 228.099C79.3304 228.004 79.3044 227.921 79.2628 227.833C79.2248 227.74 79.1831 227.649 79.1377 227.559C79.1289 227.541 79.1173 227.523 79.1054 227.505L79.098 227.494C79.0834 227.472 79.0688 227.45 79.0586 227.429C79.0478 227.406 79.034 227.384 79.0203 227.363C79.0085 227.344 78.9968 227.326 78.9868 227.306C78.9567 227.27 78.9272 227.231 78.8978 227.191C78.8683 227.152 78.8388 227.112 78.8087 227.076C78.7641 227.023 78.7195 226.97 78.6663 226.924C78.606 226.852 78.5371 226.788 78.4522 226.724C78.3833 226.66 78.3058 226.602 78.2283 226.545C78.177 226.518 78.1296 226.488 78.082 226.457C78.048 226.435 78.0139 226.414 77.9781 226.393C77.9532 226.38 77.9263 226.368 77.8998 226.357C77.8822 226.35 77.8647 226.343 77.8481 226.336L77.81 226.321L80.5235 225.395C80.9516 225.202 81.3653 225.007 81.7804 224.796L82.4527 224.459C83.0762 224.117 83.6866 223.742 84.2741 223.339C84.2829 223.332 84.2911 223.328 84.2991 223.325C84.3081 223.322 84.3168 223.318 84.3259 223.311C85.3204 222.633 86.2542 221.87 87.1166 221.03C87.6294 220.539 88.1133 220.013 88.5815 219.468C88.9266 219.06 89.2577 218.64 89.574 218.209L89.8855 217.767C89.943 217.659 89.9949 217.55 90.0458 217.443L90.046 217.442L90.0739 217.384L90.1077 217.313L90.1254 217.277L90.3077 216.896C90.3121 216.886 90.3179 216.878 90.3231 216.87C90.3264 216.865 90.3294 216.861 90.3318 216.856C90.3334 216.853 90.3347 216.85 90.3355 216.848C90.3359 216.846 90.3362 216.844 90.3364 216.843L90.3501 216.812L90.3796 216.746L90.3799 216.745C90.4164 216.664 90.4504 216.589 90.4814 216.508C90.5543 216.36 90.6199 216.209 90.6782 216.054C90.7053 216.002 90.7285 215.945 90.7505 215.891L90.7506 215.89L90.7627 215.861C90.769 215.845 90.7753 215.83 90.7816 215.816C90.7876 215.797 90.7942 215.779 90.8013 215.761C90.806 215.749 90.811 215.737 90.8161 215.725L90.8244 215.706C90.8663 215.593 90.9093 215.481 90.9438 215.376C90.9831 215.274 91.0166 215.17 91.0443 215.064L91.0513 215.04C91.0573 215.019 91.0635 214.999 91.0696 214.979L91.0697 214.978C91.0891 214.914 91.1078 214.853 91.1187 214.791C91.1188 214.782 91.1219 214.775 91.1248 214.768C91.1273 214.763 91.1297 214.757 91.1304 214.75C91.1534 214.669 91.1778 214.573 91.195 214.482L91.1978 214.451L91.2422 214.232C91.251 214.208 91.2552 214.175 91.2652 214.152C91.2684 214.135 91.2712 214.119 91.2739 214.102C91.2768 214.083 91.2794 214.065 91.282 214.047C91.288 214.005 91.2939 213.964 91.3023 213.925C91.2953 213.899 91.3055 213.873 91.3081 213.859C91.3121 213.805 91.3185 213.755 91.3249 213.704C91.3282 213.679 91.3314 213.653 91.3344 213.626C91.3364 213.609 91.3382 213.591 91.3398 213.573C91.3498 213.564 91.3426 213.556 91.344 213.54C91.3588 213.445 91.3693 213.35 91.3757 213.254C91.3768 213.247 91.3763 213.241 91.3759 213.237C91.3752 213.23 91.3748 213.225 91.3799 213.221C91.3882 213.136 91.3926 213.051 91.3929 212.965C91.3957 212.934 91.4071 212.895 91.4113 212.862C91.4117 212.765 91.4174 212.669 91.4286 212.573C91.4255 212.56 91.4265 212.547 91.4274 212.535C91.4283 212.523 91.4291 212.512 91.4269 212.501C91.4327 212.435 91.4359 212.371 91.4392 212.307C91.4425 212.243 91.4457 212.179 91.4515 212.113L91.4557 212.066C91.4715 211.793 91.4958 211.516 91.5446 211.247C91.5835 210.97 91.6421 210.695 91.714 210.437C91.8503 209.908 92.0473 209.397 92.3011 208.914C92.4203 208.677 92.5568 208.44 92.7003 208.214C92.818 208.062 92.9285 207.899 93.0373 207.739C93.2112 207.482 93.381 207.231 93.5692 207.044C93.6182 207.003 93.6638 206.951 93.7084 206.9L93.7097 206.899C93.7239 206.883 93.738 206.867 93.752 206.851L93.7702 206.832L93.9482 206.592L94.0947 206.332C94.1371 206.256 94.1729 206.174 94.2087 206.093L94.2254 206.056C94.2305 206.036 94.2362 206.017 94.2422 205.998C94.2514 205.969 94.2614 205.94 94.2713 205.911C94.2878 205.862 94.3044 205.814 94.3173 205.765C94.3422 205.666 94.359 205.566 94.3676 205.464C94.3932 205.369 94.4034 205.253 94.412 205.155C94.4124 205.122 94.4134 205.091 94.4145 205.06C94.4169 204.989 94.4192 204.92 94.4133 204.85C94.4072 204.807 94.4036 204.765 94.4001 204.723L94.4001 204.723C94.3947 204.658 94.3893 204.595 94.3745 204.533C94.367 204.429 94.3516 204.326 94.3284 204.224C94.3212 204.199 94.3144 204.174 94.3078 204.15L94.3076 204.15C94.2849 204.067 94.2632 203.989 94.232 203.911C94.2165 203.866 94.1992 203.82 94.1811 203.773L94.1547 203.706L94.1546 203.705L94.1418 203.673L94.1184 203.612L94.1041 203.583C94.066 203.506 94.0279 203.43 93.9807 203.36C93.9778 203.357 93.9767 203.351 93.9755 203.345C93.9748 203.341 93.9741 203.337 93.9731 203.334C93.9721 203.331 93.9709 203.328 93.9691 203.326C93.9401 203.271 93.8982 203.213 93.8613 203.161C93.8454 203.139 93.8305 203.118 93.8179 203.1C93.8089 203.086 93.8012 203.074 93.7951 203.063L93.7774 203.035C93.7576 203.004 93.7391 202.974 93.7189 202.945C93.702 202.92 93.6838 202.896 93.6629 202.871C93.5346 202.715 93.3697 202.592 93.183 202.515L93.1757 202.506C93.1039 202.476 93.0221 202.451 92.9416 202.428C92.8626 202.404 92.7806 202.382 92.693 202.365L92.6655 202.363C92.5895 202.356 92.5021 202.348 92.4202 202.35C92.3246 202.341 92.2285 202.341 92.1328 202.348C92.0854 202.347 92.0423 202.346 92.0024 202.345C91.7305 202.339 91.6066 202.335 91.2621 202.413C91.2402 202.416 91.2193 202.421 91.1983 202.426L91.1802 202.43L91.1627 202.435L91.1335 202.442C91.1099 202.449 91.0852 202.455 91.0582 202.462C91.0496 202.469 91.0337 202.468 91.0251 202.475C91.0094 202.456 91.0022 202.448 90.9791 202.438C90.8351 202.308 90.6759 202.197 90.5051 202.106C90.4632 202.09 90.425 202.07 90.3869 202.05C90.3583 202.035 90.3297 202.02 90.2995 202.007L90.292 202.004L90.2916 202.004C90.2781 201.998 90.2655 201.993 90.2543 201.99C90.2466 201.988 90.2396 201.987 90.2334 201.986C90.1615 201.954 90.0937 201.928 90.0269 201.902L89.9634 201.878L89.6731 201.803L89.6347 201.796L89.6026 201.791C89.5801 201.788 89.5571 201.784 89.5338 201.781L89.4976 201.776L89.4767 201.773L89.4426 201.768L89.4182 201.766L89.3787 201.761C89.2831 201.753 89.1944 201.753 89.0896 201.753H89.0892H89.0826C89.0826 201.753 89.0668 201.751 89.0582 201.759H89.0578C88.9674 201.759 88.877 201.759 88.7925 201.769C88.6941 201.777 88.5965 201.794 88.5007 201.818C88.4088 201.834 88.3069 201.858 88.2136 201.89C88.1345 201.912 88.0575 201.941 87.9837 201.977C87.9664 201.977 87.9577 201.984 87.9333 201.99C87.9007 202.005 87.864 202.024 87.8303 202.042C87.8182 202.048 87.8065 202.054 87.7955 202.059C87.4176 201.556 87.0466 201.097 86.8398 200.996C86.6113 200.884 86.6748 201.756 86.8072 202.708C86.343 202.049 85.7739 201.298 85.5067 201.158C85.2208 201.018 85.2713 202.161 85.4497 203.315C80.3616 210.072 70.9429 210.544 65.1678 204.889C66.0902 205.755 67.7223 205.294 68.1531 204.705C67.8683 203.823 67.6123 202.596 67.9009 201.458C68.3332 202.099 68.8653 202.68 69.4844 203.164C68.9959 202.177 68.7303 201.095 68.7064 199.994C69.4991 199.224 70.6886 198.923 71.6497 199.164C71.6842 199.162 71.7172 199.177 71.7504 199.193C71.7726 199.203 71.7949 199.214 71.8179 199.219L71.8399 199.23L71.84 199.23L71.8401 199.23C71.8664 199.244 71.8928 199.257 71.919 199.271C71.9381 199.281 71.9571 199.292 71.9757 199.302C72 199.316 72.0237 199.33 72.0464 199.345C72.1223 199.383 72.1928 199.431 72.2562 199.487C72.3179 199.543 72.3697 199.605 72.43 199.677L72.542 199.811C72.5844 199.883 72.6219 199.957 72.6542 200.035L72.6672 200.065C72.6962 200.132 72.7253 200.199 72.7477 200.274C72.753 200.302 72.7591 200.329 72.7652 200.357C72.779 200.419 72.793 200.481 72.7981 200.55C73.0064 201.105 73.2981 201.452 73.745 201.425C73.8279 201.415 73.9096 201.397 73.9892 201.372C74.0121 201.361 74.0403 201.35 74.0684 201.338C74.0913 201.329 74.1143 201.32 74.1342 201.311L74.2277 201.277C74.3053 201.245 74.3802 201.208 74.4518 201.165C74.5274 201.132 74.5979 201.088 74.6614 201.035C74.7346 200.991 74.8047 200.942 74.8712 200.889C74.9158 200.851 74.9531 200.805 74.9976 200.768C75.0645 200.713 75.123 200.648 75.1715 200.576C75.226 200.515 75.2805 200.455 75.3293 200.384C75.3785 200.314 75.4231 200.241 75.463 200.165C75.503 200.087 75.5333 200.015 75.5736 199.935C75.5773 199.926 75.581 199.918 75.5845 199.909L75.59 199.895C75.5966 199.879 75.6029 199.862 75.6094 199.845L75.6095 199.844L75.6099 199.843L75.61 199.843C75.627 199.798 75.6447 199.751 75.6683 199.703C76.6071 196.61 72.7102 194.48 70.5253 194.75C70.9777 194.204 71.4242 193.633 71.4774 193.39L71.4816 193.357C70.9041 193.448 70.3382 193.588 69.778 193.769C69.0511 194.06 68.3054 194.4 67.978 194.552L67.9708 194.544C67.1061 195.011 66.3064 195.59 65.5923 196.265C61.8795 199.851 61.1655 205.563 63.8948 210.008L63.6476 209.822C63.6044 209.785 63.5602 209.748 63.5155 209.711C63.3925 209.608 63.2661 209.503 63.149 209.391L63.1417 209.382C63.0765 209.331 63.0164 209.276 62.9601 209.225C62.9433 209.209 62.9268 209.194 62.9106 209.18L62.8817 209.145L62.8814 209.145C62.8054 209.072 62.7294 208.999 62.6692 208.927L62.669 208.927C62.5785 208.837 62.488 208.746 62.4061 208.648L62.2856 208.505L62.2781 208.496C62.2729 208.49 62.2675 208.485 62.2618 208.479C62.2494 208.466 62.2359 208.453 62.2225 208.44L62.1983 208.416C62.1836 208.402 62.1696 208.387 62.1574 208.373C62.1343 208.345 62.1141 208.316 62.0941 208.287C62.08 208.266 62.0661 208.246 62.0512 208.227C62.0452 208.219 62.0389 208.211 62.0325 208.203L61.9276 208.078C61.9018 208.048 61.88 208.017 61.858 207.987C61.8358 207.956 61.8134 207.925 61.7868 207.893C61.7566 207.857 61.7265 207.821 61.699 207.771C61.691 207.761 61.6832 207.752 61.6755 207.742C61.6665 207.73 61.6576 207.718 61.6488 207.706L61.6259 207.675C61.6001 207.64 61.5736 207.604 61.5425 207.567C61.5294 207.534 61.5065 207.506 61.4848 207.481L61.3412 207.251C61.3183 207.224 61.2966 207.198 61.2809 207.165C61.251 207.12 61.2243 207.075 61.1976 207.031C61.1665 206.979 61.1355 206.928 61.0999 206.876L61.0854 206.859L60.9288 206.564L60.9071 206.538L60.759 206.254C60.7506 206.244 60.745 206.217 60.7389 206.21C60.687 206.114 60.64 206.016 60.5982 205.916L60.5765 205.891L60.5562 205.842L60.556 205.842C60.5167 205.749 60.4803 205.662 60.4386 205.58C60.44 205.565 60.4328 205.556 60.4328 205.556L60.289 205.221C60.2825 205.202 60.2759 205.183 60.2694 205.165L60.2533 205.119L60.2392 205.08L60.2389 205.079L60.238 205.077C60.215 205.013 60.1921 204.949 60.1698 204.881C60.1529 204.829 60.1342 204.779 60.1158 204.73C60.0918 204.665 60.0684 204.603 60.0505 204.54C60.0349 204.492 60.0206 204.446 60.0065 204.4L60.0064 204.4C59.9854 204.331 59.9646 204.264 59.9399 204.193L59.9499 204.184C59.9181 204.076 59.8807 203.956 59.8563 203.839C59.8459 203.812 59.8377 203.783 59.8318 203.755C59.8325 203.747 59.8307 203.74 59.8289 203.734C59.828 203.73 59.827 203.726 59.8264 203.723L59.826 203.719L59.826 203.717L59.8261 203.713C59.4258 202.04 59.4234 200.297 59.8189 198.623C59.847 198.537 59.8686 198.446 59.8903 198.354L59.8904 198.354L59.9052 198.291C59.908 198.259 59.9266 198.229 59.9308 198.196C59.955 198.096 59.9823 197.996 60.0128 197.897L59.9424 197.866L59.9323 197.874L59.6035 198.241L59.5949 198.248C59.3939 198.478 59.2002 198.716 59.0065 198.954L59.006 198.955C58.95 199.017 58.8953 199.094 58.8466 199.165L58.7445 199.297C58.7177 199.326 58.6927 199.358 58.6675 199.39C58.6414 199.423 58.6152 199.457 58.5867 199.488C58.5795 199.5 58.5721 199.512 58.5645 199.523L58.5568 199.535L58.5467 199.55C58.5359 199.565 58.525 199.58 58.5141 199.596C58.4973 199.619 58.4806 199.642 58.4646 199.666C57.7549 200.629 57.1375 201.646 56.5992 202.688C56.3948 199.538 56.9946 196.389 58.3423 193.535C57.377 194.467 56.4954 195.493 55.747 196.608C53.0527 200.661 52.0572 205.61 52.9749 210.389C51.6116 208.02 50.7888 205.379 50.5652 202.655C50.18 203.948 49.9389 205.28 49.8465 206.626C49.5994 210.378 50.5069 214.117 52.4468 217.338C50.964 216.184 49.6577 214.808 48.5883 213.265C49.6839 227.621 63.3761 231.971 67.896 232.349L67.9005 232.351L67.9086 232.354L67.9152 232.357C67.9228 232.36 67.9295 232.362 67.9356 232.366C67.9374 232.367 67.9391 232.368 67.9408 232.369C67.9442 232.372 67.9474 232.375 67.9506 232.379C67.9513 232.371 67.9516 232.367 67.9508 232.364C67.9501 232.361 67.9482 232.358 67.9447 232.354C67.9477 232.358 67.9494 232.36 67.9517 232.361C67.953 232.362 67.9546 232.362 67.9567 232.363L67.9616 232.363L67.9692 232.363C67.8812 232.258 67.8015 232.146 67.7208 232.033L67.7177 232.028C67.5751 231.808 67.438 231.585 67.3066 231.357C67.1996 231.153 67.1008 230.939 67.0018 230.725L67.0017 230.725L66.9633 230.642C66.8698 230.402 66.7763 230.148 66.7015 229.892C66.6281 229.64 66.5648 229.384 66.5116 229.127C66.4175 228.611 66.3693 228.088 66.3675 227.564C66.3673 227.292 66.3902 227.03 66.4133 226.766C66.4329 226.619 66.4568 226.473 66.4851 226.327L66.5396 225.978C66.5932 225.719 66.6627 225.463 66.7475 225.213C66.8257 224.961 66.9163 224.712 67.0189 224.469C67.1309 224.223 67.2501 223.986 67.3694 223.749C67.6283 223.285 67.9318 222.848 68.2755 222.443C68.4327 222.256 68.6014 222.085 68.7651 221.919L68.7654 221.919L68.8214 221.862C68.9549 221.733 69.0924 221.608 69.2335 221.487C69.4383 221.32 69.6506 221.162 69.8698 221.015C70.0865 220.86 70.3135 220.72 70.5492 220.596C70.7818 220.463 71.0233 220.347 71.2718 220.247L71.2819 220.238L71.2466 220.274L71.2464 220.274C71.0772 220.446 70.909 220.616 70.7532 220.804C70.4107 221.21 70.1073 221.648 69.8471 222.111C69.712 222.346 69.6 222.592 69.4966 222.83C69.3846 223.076 69.2971 223.316 69.2082 223.572C69.1351 223.829 69.0647 224.086 69.0087 224.346C68.9526 224.606 68.9139 224.866 68.891 225.128C68.8523 225.388 68.8453 225.651 68.8395 225.915C68.8397 226.187 68.8497 226.452 68.8686 226.708C68.8728 226.751 68.8842 226.803 68.8887 226.843L68.8975 226.905C68.9259 227.102 68.9541 227.298 68.9893 227.488C69.0904 228.007 69.2425 228.515 69.4436 229.004C69.5371 229.244 69.6565 229.476 69.7771 229.71L69.8072 229.763L69.8073 229.763C69.9315 229.978 70.0514 230.186 70.1882 230.381L70.2201 230.427C70.3634 230.63 70.5071 230.834 70.6597 231.016C70.7648 231.141 70.8767 231.259 70.9885 231.377L70.9895 231.378L71.0375 231.428C71.2226 231.613 71.4133 231.792 71.6095 231.964C71.8125 232.136 72.0235 232.298 72.2418 232.449C72.2741 232.469 72.3066 232.489 72.3392 232.509L72.4164 232.556C72.5809 232.658 72.7486 232.761 72.917 232.854C73.1455 232.981 73.3898 233.094 73.6283 233.198L73.7 233.225C73.9244 233.311 74.1479 233.396 74.3725 233.469C74.6258 233.54 74.8813 233.603 75.1385 233.658C75.3998 233.699 75.6612 233.739 75.9299 233.77C76.0689 233.784 76.2084 233.793 76.348 233.799C77.0117 233.773 77.674 233.717 78.3176 233.632C78.403 233.617 78.4875 233.597 78.5705 233.571C78.9702 233.511 79.3613 233.4 79.731 233.236ZM90.416 167.816L116.805 130L151.277 158.925L118.615 191.471L101.214 183.539L90.416 167.816ZM118.279 150.847L134.793 164.704L138.8 160.714L117.182 142.575L107.397 156.603L122.353 169.152L117.156 174.328L111.249 171.587L107.53 166.254L110.11 162.556L105.778 158.921L100.699 166.205L107.478 176.077L107.504 176.086L118.389 181.049L130.691 168.794L114.965 155.598L118.279 150.847ZM86.3193 126.289L120.808 92.9309L113.303 75.4858L97.7992 64.5176L57.9999 91.317L86.3193 126.289ZM75.7406 88.6101L88.884 95.2801L88.9159 95.2985L80.7249 85.1835L95.5733 75.0772L105.515 81.789L105.52 81.8084L105.526 81.8034L110.013 93.014L103.475 99.2623L99.8733 94.8147L103.269 91.5881L100.668 85.8059L100.622 85.7748L100.628 85.7698L95.1829 82.0149L89.0632 86.4119L93.313 91.6936L101.243 101.553L97.1285 105.44L84.4652 98.8584L83.7283 98.4741L92.7539 109.62L88.7007 113.784L70.9045 91.8076L75.7406 88.6101ZM27.8464 176.008L4 137.846L42.1622 114L66.0085 152.162L27.8464 176.008ZM43.033 161.813C44.0521 160.671 44.6575 159.247 44.5055 157.751C44.4001 156.038 43.4447 154.563 42.3827 152.924C42.1989 152.64 42.0119 152.351 41.8255 152.056C40.4786 149.873 39.1421 147.743 37.7819 145.575L37.7812 145.574L37.7657 145.549L37.7567 145.535L37.7515 145.527C37.0723 144.444 36.3872 143.352 35.6919 142.24L32.1171 144.473C33.0572 145.978 33.9971 147.49 34.9397 149.006L34.9425 149.01L34.9436 149.012C35.9126 150.571 36.8844 152.134 37.8621 153.698C38.1108 154.096 38.3588 154.484 38.5965 154.856C39.5322 156.318 40.3068 157.529 40.3273 158.129C40.4828 159.542 39.0434 160.254 38.2945 160.429C37.4733 160.513 36.879 160.273 36.1203 159.884L36.0521 159.847C35.8728 159.751 35.7409 159.68 35.7124 159.684L33.9181 163.28C35.0212 163.97 36.2711 164.386 37.5323 164.376C39.4054 164.342 41.3932 163.449 43.033 161.813ZM48.7526 155.89C53.2758 156.968 60.1173 152.501 58.704 147.474C58.6642 147.297 58.3901 146.115 57.183 144.782C55.814 143.214 53.7617 142.46 49.5404 143.198C49.2544 143.235 48.9669 143.28 48.6824 143.325L48.6819 143.325L48.6816 143.325L48.6803 143.325C47.468 143.516 46.3101 143.699 45.5471 143.178C45.0864 142.748 44.8868 142.469 44.7787 142.102C44.3963 140.932 45.4084 139.86 46.5493 139.551C47.2965 139.372 48.1788 139.483 49.0053 140.022C49.7875 138.351 49.9473 138.016 50.3298 137.215C50.4277 137.01 50.5401 136.775 50.6812 136.479C49.8515 136.089 49.4377 135.928 48.987 135.821C47.3029 135.333 45.5949 135.606 43.4604 137.001L42.4255 137.85C41.5167 138.796 40.8426 140.006 40.714 141.142C40.1876 144.325 42.9485 147.595 46.0739 147.698C47.4129 147.813 48.793 147.593 50.0438 147.394C51.7689 147.119 53.2483 146.883 54.0356 147.618C55.5962 149.235 54.2075 150.941 52.3187 151.823C50.8571 152.362 49.7274 152.154 48.2029 151.445C47.7518 152.295 47.5234 152.726 47.2944 153.156C47.0594 153.598 46.8238 154.039 46.3465 154.933C47.0543 155.4 47.5833 155.552 48.3484 155.772C48.4759 155.809 48.61 155.848 48.7526 155.89ZM231.506 279.751C231.657 281.247 231.052 282.671 230.033 283.813C228.393 285.449 226.405 286.342 224.532 286.376C223.271 286.386 222.021 285.97 220.918 285.28L222.712 281.684C222.741 281.68 222.873 281.751 223.052 281.847L223.12 281.884C223.879 282.273 224.473 282.513 225.294 282.429C226.043 282.254 227.483 281.542 227.327 280.129C227.307 279.529 226.532 278.318 225.597 276.856C225.359 276.484 225.111 276.097 224.862 275.698C223.887 274.139 222.918 272.58 221.952 271.026L221.941 271.009C220.998 269.492 220.058 267.979 219.117 266.473L222.692 264.24C223.398 265.369 224.093 266.477 224.782 267.575C226.142 269.743 227.479 271.873 228.826 274.056C229.008 274.345 229.191 274.628 229.371 274.906L229.375 274.912L229.382 274.923L229.383 274.924C230.445 276.563 231.4 278.038 231.506 279.751ZM19.314 79.4604C17.2726 79.6234 15.2303 79.156 13.4629 78.1214C11.6956 77.0867 10.2883 75.5346 9.43116 73.6747C8.89941 72.5626 8.59504 71.3556 8.53592 70.1244C8.4768 68.8932 8.6641 67.6626 9.08686 66.5047C9.22835 66.1249 9.39596 65.7554 9.58848 65.3987L9.9471 64.7275L10.5018 65.3058C11.7791 66.6424 13.2752 67.7512 14.9256 68.5845L15.3625 68.8057L15.2367 69.2594C15.066 69.9036 15.1286 70.5873 15.4135 71.1898C15.6713 71.7502 16.0949 72.218 16.6271 72.53C17.1593 72.8419 17.7745 72.983 18.3894 72.9341C18.6712 72.91 18.9477 72.843 19.2093 72.7354L33.0081 67.0181C33.3449 66.8802 33.6492 66.6737 33.9018 66.4118C34.1544 66.1498 34.3497 65.8382 34.4754 65.4967C34.6028 65.1476 34.6595 64.7767 34.642 64.4055C34.6246 64.0343 34.5334 63.6703 34.3738 63.3348C34.1157 62.7745 33.6921 62.3069 33.1599 61.995C32.6278 61.6831 32.0128 61.5419 31.3979 61.5905C31.116 61.6145 30.8396 61.6814 30.578 61.7891L25.3124 63.9725C24.4468 64.3306 23.5316 64.5543 22.5984 64.6358C20.5572 64.799 18.515 64.332 16.7476 63.2977C14.9802 62.2635 13.5727 60.7118 12.7152 58.8522C12.1835 57.7398 11.8794 56.5324 11.8207 55.3008C11.762 54.0692 11.95 52.8383 12.3735 51.6804C12.7904 50.5461 13.4394 49.5112 14.279 48.6419C15.1186 47.7727 16.1304 47.0882 17.2496 46.6322L31.0466 40.9123C31.9121 40.554 32.8274 40.3303 33.7606 40.2491C35.802 40.0861 37.8443 40.5535 39.6117 41.5882C41.379 42.6228 42.7863 44.1749 43.6434 46.0349C44.1752 47.1469 44.4795 48.3539 44.5387 49.5851C44.5978 50.8163 44.4105 52.047 43.9877 53.2048C43.8459 53.5845 43.6783 53.954 43.4861 54.3108L43.1275 54.9821L42.575 54.4041C41.2975 53.0662 39.8008 51.9565 38.1494 51.1228L37.7125 50.9016L37.8378 50.4501C38.0088 49.8053 37.9464 49.1208 37.6615 48.5175C37.4033 47.9574 36.9795 47.4901 36.4472 47.1785C35.915 46.867 35.2999 46.7263 34.6852 46.7755C34.4033 46.7995 34.1269 46.8665 33.8653 46.9741L20.0665 52.6914C19.7296 52.8291 19.4251 53.0355 19.1725 53.2975C18.9198 53.5594 18.7246 53.8712 18.5992 54.2128C18.4715 54.5618 18.4147 54.9328 18.4322 55.304C18.4496 55.6752 18.5409 56.0393 18.7008 56.3747C18.9588 56.935 19.3825 57.4026 19.9146 57.7145C20.4468 58.0264 21.0618 58.1676 21.6767 58.1191C21.9595 58.0946 22.2369 58.027 22.4992 57.9186L27.7626 55.7348C28.628 55.3771 29.5432 55.1542 30.4762 55.0738C32.5174 54.9105 34.5596 55.3775 36.327 56.4118C38.0944 57.446 39.5019 58.9977 40.3594 60.8573C40.8911 61.9697 41.1952 63.1772 41.2539 64.4087C41.3126 65.6403 41.1246 66.8712 40.7011 68.0291C40.2842 69.1638 39.6351 70.199 38.7955 71.0686C37.9558 71.9382 36.944 72.6231 35.8246 73.0795L22.028 78.7972C21.1625 79.1555 20.2472 79.3792 19.314 79.4604ZM49.3237 43.6797C45.6277 35.7288 36.2288 31.9093 28.3739 35.1646L14.575 40.8819C12.7139 41.6408 11.0316 42.7797 9.63557 44.2257C8.23958 45.6718 7.16066 47.3932 6.46775 49.2799C5.29706 52.4581 5.22009 55.9359 6.24905 59.1627C4.90291 60.5856 3.85925 62.2666 3.18112 64.1042C2.47771 66.0295 2.16581 68.0759 2.26371 70.1234C2.36161 72.1708 2.86735 74.1781 3.75126 76.0276C7.44951 83.9789 16.8462 87.798 24.7007 84.5449L38.4995 78.8277C40.3608 78.069 42.0433 76.9302 43.4393 75.4841C44.8353 74.038 45.9142 72.3165 46.6068 70.4296C47.7776 67.2517 47.8554 63.7742 46.8277 60.5472C48.1724 59.1237 49.2146 57.4425 49.8912 55.6049C50.5956 53.6796 50.9082 51.6329 50.8107 49.5851C50.7132 47.5372 50.2077 45.5295 49.3237 43.6797ZM154.462 46.3354L160.757 51.6172L151.256 56.5483L154.462 46.3354ZM163.63 76.8057L141.236 68.4894L129.158 47.8802L150.91 27.2961L172.305 31.4626L180.124 51.8098L163.63 76.8057ZM158.203 34.5833L154.186 31.2123L144.669 64.398L175.698 49.2635L171.681 45.8925L164.979 49.4809L155.833 41.8068L158.203 34.5833ZM209.785 65L209.46 83.6347L216.048 87.6128L209.325 91.3585L209 109.993L248.349 88.1766L209.785 65ZM232.77 87.9046L210.331 100.34L210.476 92.0349L218.391 87.6537L210.634 82.9988L210.779 74.6938L232.77 87.9046Z" fill="black" fill-opacity="0.05"/>
</g>
<defs>
<clipPath id="clip0_217_448">
<rect width="260" height="260" fill="white"/>
</clipPath>
</defs>
</svg>
