<svg width="260" height="260" viewBox="0 0 260 260" fill="none" xmlns="http://www.w3.org/2000/svg">
<g clip-path="url(#clip0_217_448)">
<path fill-rule="evenodd" clip-rule="evenodd" d="M192.721 0L192 -1.15381L230.162 -25L245.784 0H237.484C237.883 -0.848145 238.044 -1.18604 238.335 -1.7959L238.681 -2.521C238.345 -2.6792 238.077 -2.7998 237.847 -2.89453C237.51 -3.0332 237.255 -3.11572 236.987 -3.1792C235.303 -3.66699 233.595 -3.39355 231.46 -1.99951L230.425 -1.1499C230.087 -0.797363 229.781 -0.408203 229.523 0H192.721ZM102.629 0C102.602 -0.218262 102.57 -0.433105 102.533 -0.644531C102.139 -2.88574 101.115 -4.98975 99.0903 -6.15674C97.4224 -7.12158 95.5215 -7.1748 93.7188 -6.7251C91.9268 -6.27783 90.0986 -5.30762 88.3384 -4.01074C86.8696 -2.92871 85.3887 -1.57617 83.9497 0H77.2588C77.5293 -1.44873 78.0957 -2.18896 78.6406 -2.50391C79.3491 -2.90869 80.6992 -2.99316 82.873 -1.83154C83.0239 -1.75146 83.1821 -1.69043 83.3447 -1.64893C83.4375 -1.62549 83.5312 -1.60791 83.626 -1.59717C83.7896 -1.57812 83.9556 -1.57861 84.1196 -1.59863C84.1855 -1.60645 84.251 -1.61768 84.3164 -1.63184C84.3716 -1.64404 84.4263 -1.6582 84.4805 -1.6748C85.0161 -1.83789 85.4648 -2.20654 85.728 -2.70068C85.9912 -3.19434 86.0479 -3.77246 85.8848 -4.30811C85.7217 -4.84326 85.3525 -5.29199 84.8589 -5.55518C82.1982 -6.97266 79.124 -7.65332 76.5312 -6.15723C74.3296 -4.88477 73.313 -2.52734 72.9941 0H0V191.23C-0.501953 191.367 -0.993652 191.568 -1.46875 191.843C-4.05371 193.336 -5.00439 196.326 -5.11133 199.33C-5.12549 199.886 -4.91992 200.425 -4.53906 200.83C-4.33936 201.042 -4.09961 201.209 -3.83691 201.322C-3.59863 201.425 -3.34131 201.484 -3.07715 201.493C-2.521 201.513 -1.98047 201.312 -1.57178 200.935C-1.271 200.657 -1.06006 200.3 -0.959473 199.91C-0.92334 199.77 -0.901367 199.625 -0.89502 199.479C-0.834961 197.779 -0.459473 196.719 0 196.092V206.325C-1.22656 208.507 -2.23877 210.699 -3.02686 212.824C-3.22119 213.349 -3.19971 213.929 -2.9668 214.438C-2.7334 214.946 -2.30811 215.341 -1.78369 215.536C-1.25928 215.73 -0.679199 215.708 -0.17041 215.476C-0.112305 215.449 -0.0551758 215.419 0 215.388V217.63C-1.5127 217.256 -2.88232 216.799 -4.07324 216.278C-5.75781 215.541 -6.98975 214.717 -7.77148 213.91C-8.54199 213.114 -8.78125 212.439 -8.78125 211.904C-8.78125 211.266 -8.43262 210.403 -7.23438 209.401C-6.04736 208.403 -4.21387 207.45 -1.82324 206.69C-1.55908 206.606 -1.31396 206.471 -1.10205 206.293C-0.979004 206.189 -0.868652 206.072 -0.772949 205.944C-0.703613 205.851 -0.641602 205.753 -0.588379 205.65C-0.460938 205.404 -0.382812 205.135 -0.359375 204.859C-0.335938 204.583 -0.366699 204.305 -0.450684 204.041C-0.534668 203.777 -0.669434 203.532 -0.848145 203.32C-1.02637 203.108 -1.24512 202.933 -1.49121 202.806C-1.98779 202.548 -2.56689 202.499 -3.1001 202.668C-5.81396 203.529 -8.19922 204.702 -9.94824 206.167C-11.6895 207.629 -13 209.57 -13 211.904C-13 213.831 -12.1001 215.504 -10.8032 216.84C-9.521 218.168 -7.76855 219.268 -5.76367 220.142C-4.9165 220.513 -4.00781 220.852 -3.0459 221.155C-3.25146 221.166 -3.45264 221.206 -3.64307 221.273C-3.9541 221.383 -4.23828 221.566 -4.46973 221.81C-4.7251 222.079 -4.90283 222.407 -4.98926 222.762C-5.03174 222.937 -5.05225 223.118 -5.04883 223.301C-4.95068 226.316 -4 229.317 -1.40674 230.816C-0.951172 231.079 -0.480469 231.274 0 231.411V261H72.9038C72.8975 261.11 72.8926 261.22 72.8887 261.33C72.8745 261.886 73.0801 262.425 73.4609 262.83C73.8418 263.235 74.3672 263.473 74.9229 263.493C75.479 263.513 76.0195 263.312 76.4282 262.935C76.5669 262.807 76.6865 262.663 76.7852 262.505C76.8555 262.393 76.915 262.274 76.9629 262.151C77.0459 261.938 77.0947 261.711 77.105 261.479C77.1108 261.313 77.1196 261.154 77.1313 261H83.0679C81.3706 262.992 79.7485 265.29 78.292 267.813C76.9336 270.164 75.8228 272.532 74.9731 274.824C74.7788 275.349 74.8003 275.929 75.0332 276.438C75.1641 276.723 75.355 276.972 75.5903 277.171C75.6191 277.195 75.6489 277.219 75.6792 277.242C75.7368 277.285 75.7959 277.326 75.8574 277.363C75.9707 277.431 76.0908 277.489 76.2163 277.536C76.7407 277.73 77.3208 277.708 77.8296 277.476C78.3379 277.242 78.7329 276.817 78.9277 276.292C79.7529 274.088 80.7627 271.958 81.9453 269.922C84.0649 266.248 86.5117 263.196 88.8955 261H90.1592C90.0864 261.046 90.0166 261.097 89.9497 261.152L89.9521 261.158C89.7388 261.334 89.562 261.552 89.4326 261.796C89.3652 261.923 89.3115 262.056 89.2715 262.192L89.2539 262.258L89.2422 262.305L89.2271 262.376C89.2139 262.445 89.2036 262.515 89.1968 262.585C89.1704 262.861 89.1987 263.139 89.2803 263.404C89.3618 263.668 89.4946 263.915 89.6709 264.128C91.1665 265.944 92.5068 267.882 93.6787 269.922C96.3872 274.607 97.9482 279.243 98.356 282.896C98.5615 284.724 98.4629 286.204 98.1538 287.284C97.8496 288.35 97.3828 288.892 96.9219 289.16C96.7749 289.245 96.6011 289.317 96.3975 289.366C96.2749 289.396 96.1416 289.417 95.9971 289.427L95.9116 289.433C95.873 289.435 95.834 289.436 95.7939 289.436C95.7344 289.437 95.6733 289.436 95.6104 289.433C95.1616 289.414 94.623 289.306 93.98 289.072C92.5229 288.543 90.7822 287.436 88.9258 285.742C88.8379 285.664 88.7441 285.593 88.6455 285.53C88.4712 285.42 88.2822 285.337 88.0854 285.282C87.8687 285.222 87.6416 285.196 87.4126 285.208C87.124 285.222 86.8447 285.296 86.5903 285.421C86.355 285.536 86.1411 285.695 85.9609 285.893C85.5864 286.303 85.3892 286.845 85.4116 287.4C85.4233 287.686 85.4927 287.963 85.6128 288.217C85.7261 288.456 85.8848 288.674 86.0825 288.858C88.186 290.779 90.394 292.256 92.5371 293.038C94.6719 293.817 97.0088 293.98 99.0312 292.813C100.702 291.848 101.697 290.231 102.212 288.445C102.718 286.67 102.792 284.601 102.549 282.426C102.063 278.073 100.26 272.881 97.335 267.812C96.0444 265.566 94.5674 263.433 92.9194 261.434C92.8604 261.362 92.7964 261.294 92.7285 261.231C92.665 261.172 92.5977 261.117 92.5273 261.066L92.4438 261.009L92.4287 261H98.4922C98.5996 262.402 98.4585 264.138 98.0215 266.131C97.9497 266.406 97.9341 266.692 97.9756 266.974C97.9917 267.083 98.0161 267.19 98.0488 267.295C98.0781 267.388 98.1138 267.479 98.1553 267.567L98.1714 267.601L98.1938 267.645C98.2158 267.687 98.2388 267.727 98.2632 267.767C98.4116 268.009 98.6074 268.219 98.8389 268.384C99.0703 268.549 99.333 268.665 99.6104 268.726C99.6533 268.735 99.6963 268.743 99.7393 268.75C99.9761 268.787 100.218 268.783 100.454 268.738C100.59 268.713 100.722 268.674 100.85 268.623C100.984 268.568 101.114 268.5 101.235 268.418L101.306 268.369L101.342 268.342C101.386 268.309 101.429 268.273 101.47 268.236C101.521 268.191 101.569 268.143 101.615 268.093C101.694 268.008 101.765 267.916 101.829 267.818L101.871 267.751L101.905 267.693C101.938 267.633 101.968 267.571 101.996 267.509C102.062 267.357 102.11 267.198 102.139 267.034C102.608 264.905 102.823 262.853 102.719 261H191.721L214.846 298.008L253.008 274.162L244.784 261H261V227.609C262.962 227.842 265.032 227.216 266.898 226.226C267.143 226.095 267.36 225.918 267.536 225.705C267.649 225.567 267.745 225.417 267.82 225.256C267.862 225.167 267.897 225.074 267.926 224.979C267.967 224.848 267.994 224.712 268.007 224.576C268.012 224.535 268.015 224.494 268.017 224.453C268.021 224.355 268.018 224.258 268.009 224.161C267.999 224.054 267.98 223.948 267.954 223.845C267.913 223.681 267.852 223.522 267.772 223.372C267.642 223.127 267.465 222.911 267.251 222.734C267.038 222.558 266.791 222.426 266.526 222.345C266.261 222.263 265.983 222.235 265.707 222.262C265.636 222.269 265.565 222.279 265.496 222.293C265.423 222.308 265.351 222.326 265.28 222.348C265.155 222.387 265.034 222.438 264.918 222.499C263.026 223.504 261.759 223.568 261 223.297V218.163C263.632 218.662 266.507 218.932 269.5 218.932C272.09 218.938 274.676 218.727 277.231 218.302L277.278 218.294L277.319 218.286C277.384 218.271 277.449 218.254 277.512 218.234C277.564 218.218 277.616 218.199 277.667 218.179C277.783 218.132 277.895 218.075 278 218.009C278.235 217.862 278.438 217.669 278.599 217.444C278.759 217.218 278.874 216.962 278.935 216.692C278.966 216.558 278.983 216.421 278.987 216.285C278.992 216.146 278.982 216.007 278.958 215.87C278.912 215.596 278.812 215.335 278.665 215.101C278.518 214.866 278.326 214.663 278.1 214.502C278.06 214.474 278.02 214.447 277.979 214.422L277.91 214.382L277.892 214.372C277.862 214.356 277.833 214.34 277.802 214.326L277.749 214.301C277.699 214.278 277.648 214.257 277.597 214.239C277.516 214.209 277.433 214.185 277.349 214.166C277.296 214.154 277.243 214.144 277.189 214.135L277.138 214.128C277.069 214.12 277 214.115 276.931 214.113C276.896 214.113 276.86 214.113 276.825 214.114C276.775 214.115 276.726 214.118 276.677 214.123C276.626 214.127 276.576 214.134 276.525 214.143C274.357 214.511 271.989 214.713 269.5 214.713C266.417 214.713 263.533 214.401 261 213.86V210.101C261.812 207.965 262.797 205.898 263.945 203.922C266.648 199.237 269.883 195.563 272.841 193.387C274.324 192.295 275.651 191.64 276.742 191.367C277.817 191.097 278.522 191.229 278.984 191.497C279.535 191.814 280.109 192.548 280.379 194.084C280.649 195.614 280.559 197.679 280.021 200.131C279.95 200.406 279.934 200.692 279.976 200.974C279.99 201.072 280.012 201.168 280.04 201.263L280.064 201.342C280.092 201.425 280.126 201.507 280.165 201.586C280.194 201.648 280.228 201.708 280.263 201.767C280.308 201.84 280.357 201.911 280.411 201.978C280.46 202.04 280.513 202.1 280.569 202.156C280.652 202.239 280.743 202.315 280.839 202.384C280.922 202.443 281.009 202.496 281.099 202.542C281.183 202.585 281.27 202.623 281.359 202.654C281.441 202.684 281.525 202.708 281.61 202.726C281.768 202.76 281.927 202.776 282.087 202.775C282.21 202.773 282.333 202.761 282.454 202.738L282.51 202.727L282.565 202.714C282.606 202.704 282.646 202.693 282.687 202.68L282.759 202.657C282.808 202.639 282.857 202.62 282.905 202.599C283.02 202.549 283.13 202.489 283.235 202.418C283.472 202.261 283.673 202.057 283.829 201.818L283.857 201.773L283.886 201.726C283.921 201.665 283.953 201.603 283.982 201.538C284.055 201.377 284.108 201.208 284.139 201.034C284.752 198.252 284.93 195.603 284.533 193.355C284.139 191.114 283.115 189.01 281.09 187.843C279.422 186.878 277.521 186.825 275.719 187.275C273.927 187.722 272.099 188.692 270.338 189.989C267.091 192.382 263.787 196.095 261 200.625V191.34C261.769 191.094 263.022 191.18 264.873 192.168C265.367 192.432 265.945 192.488 266.48 192.325C267.016 192.162 267.465 191.793 267.728 191.299C267.881 191.013 267.964 190.697 267.975 190.378C267.983 190.148 267.953 189.917 267.885 189.692C267.722 189.157 267.353 188.708 266.859 188.445C265.006 187.458 262.952 186.828 261 187.042V0H245.784L254.008 13.1621L215.846 37.0083L192.721 0H102.629ZM98.3638 0H102.629C102.892 2.10254 102.695 4.51416 102.139 7.03369C102.114 7.17578 102.074 7.31494 102.021 7.44873C101.969 7.57764 101.905 7.70166 101.829 7.81836C101.673 8.05664 101.472 8.26074 101.235 8.41846C101.106 8.50488 100.968 8.57666 100.824 8.63281C100.795 8.64404 100.766 8.65479 100.737 8.66455C100.709 8.67383 100.682 8.68262 100.654 8.69043L100.581 8.70996L100.527 8.72314L100.479 8.7334L100.454 8.73828C100.175 8.79102 99.8882 8.78662 99.6104 8.72607C99.333 8.66504 99.0703 8.54883 98.8389 8.38379C98.6074 8.21924 98.4116 8.00928 98.2632 7.76709C98.1147 7.52441 98.0171 7.25488 97.9756 6.97363C97.9341 6.69238 97.9497 6.40576 98.0215 6.13086C98.5591 3.67871 98.6489 1.61426 98.3789 0.0839844C98.374 0.0556641 98.3691 0.027832 98.3638 0ZM98.3638 0H90.0493C90.3149 -0.21582 90.5791 -0.42041 90.8413 -0.613281C92.3237 -1.70459 93.6509 -2.35986 94.7422 -2.63281C95.8169 -2.90283 96.5225 -2.77051 96.9839 -2.50342C97.5249 -2.19141 98.0879 -1.47852 98.3638 0ZM261 187.042V191.34C260.866 191.383 260.746 191.436 260.641 191.496C259.935 191.904 259.192 193.026 259.105 195.479C259.08 196.034 258.837 196.558 258.428 196.935C258.226 197.122 257.991 197.265 257.738 197.359C257.48 197.457 257.204 197.503 256.923 197.493C256.367 197.473 255.842 197.235 255.461 196.83C255.282 196.64 255.141 196.419 255.044 196.181C254.993 196.055 254.954 195.924 254.928 195.791C254.898 195.64 254.885 195.485 254.889 195.33C254.996 192.326 255.946 189.336 258.531 187.843C259.318 187.389 260.149 187.135 261 187.042ZM261 200.625C260.76 201.015 260.524 201.411 260.292 201.813C258.934 204.164 257.823 206.532 256.973 208.824C256.779 209.349 256.8 209.929 257.033 210.438C257.267 210.946 257.692 211.341 258.216 211.536C258.258 211.551 258.3 211.565 258.342 211.578L258.389 211.592L258.418 211.6C258.461 211.611 258.504 211.621 258.548 211.629C258.643 211.647 258.739 211.659 258.836 211.665C259.174 211.683 259.516 211.619 259.83 211.476C260.106 211.349 260.349 211.165 260.545 210.939C260.575 210.904 260.604 210.868 260.632 210.832C260.661 210.792 260.689 210.752 260.716 210.711C260.801 210.581 260.873 210.441 260.928 210.292C260.952 210.229 260.976 210.165 261 210.101V200.625ZM256.954 217.155C256.414 217.183 255.903 217.417 255.53 217.81C255.149 218.211 254.941 218.747 254.951 219.301C255.049 222.316 256 225.317 258.593 226.816C259.361 227.259 260.171 227.51 261 227.609V223.297C260.891 223.258 260.792 223.211 260.703 223.16C259.994 222.752 259.251 221.621 259.167 219.16C259.148 218.78 259.028 218.416 258.822 218.103C258.729 217.96 258.617 217.829 258.49 217.711C258.424 217.65 258.354 217.594 258.282 217.543C259.153 217.777 260.061 217.984 261 218.163V213.86C259.088 213.451 257.375 212.912 255.927 212.278C254.242 211.541 253.01 210.717 252.229 209.91C251.458 209.114 251.219 208.439 251.219 207.904C251.219 207.266 251.567 206.403 252.766 205.401C253.953 204.403 255.786 203.45 258.177 202.69C258.272 202.66 258.366 202.623 258.456 202.579C258.614 202.503 258.763 202.407 258.898 202.293C259.11 202.114 259.284 201.896 259.412 201.65C259.539 201.404 259.617 201.135 259.641 200.859C259.647 200.785 259.649 200.711 259.648 200.637L259.645 200.559L259.641 200.498C259.638 200.464 259.634 200.431 259.629 200.398L259.621 200.343L259.61 200.28C259.595 200.199 259.574 200.119 259.549 200.041C259.465 199.777 259.331 199.532 259.152 199.32C259.11 199.27 259.065 199.222 259.019 199.176L258.953 199.113L258.897 199.064C258.778 198.964 258.647 198.877 258.509 198.806C258.012 198.548 257.433 198.499 256.9 198.668C254.186 199.529 251.801 200.702 250.052 202.167C248.311 203.629 247 205.57 247 207.904C247 209.831 247.9 211.504 249.197 212.84C250.479 214.168 252.231 215.268 254.236 216.142C255.083 216.513 255.992 216.852 256.954 217.155ZM256.954 217.155L256.99 217.154C257.454 217.138 257.907 217.276 258.282 217.543C257.83 217.421 257.386 217.292 256.954 217.155ZM236.484 261H244.784L229.162 236L191 259.846L191.721 261H228.523C228.09 261.688 227.795 262.429 227.714 263.142C227.188 266.325 229.949 269.595 233.074 269.698C234.411 269.813 235.789 269.594 237.038 269.395L237.044 269.394C238.769 269.119 240.248 268.883 241.036 269.618C242.596 271.234 241.208 272.941 239.319 273.823C237.857 274.362 236.728 274.154 235.203 273.445C234.289 275.168 234.289 275.168 233.347 276.933C234.054 277.4 234.583 277.552 235.348 277.772L235.752 277.89C240.276 278.968 247.117 274.501 245.704 269.474C245.692 269.42 245.658 269.271 245.581 269.052C245.47 268.735 245.271 268.271 244.92 267.734C244.725 267.435 244.483 267.113 244.183 266.782C242.814 265.213 240.762 264.459 236.541 265.198L236.358 265.222L236.184 265.248C236.016 265.272 235.848 265.299 235.681 265.325C234.468 265.517 233.31 265.699 232.547 265.178C232.353 264.997 232.205 264.842 232.09 264.696C231.934 264.497 231.841 264.314 231.779 264.102C231.396 262.932 232.408 261.86 233.549 261.551C234.296 261.372 235.179 261.483 236.005 262.022C236.199 261.608 236.354 261.277 236.484 261ZM236.484 261H228.523C228.781 260.592 229.087 260.203 229.425 259.85L230.46 259C232.595 257.606 234.303 257.333 235.987 257.821C236.438 257.928 236.852 258.088 237.681 258.479L237.147 259.599C236.956 260.001 236.789 260.351 236.484 261ZM102.719 261C102.688 260.432 102.626 259.883 102.533 259.355C102.139 257.114 101.115 255.01 99.0903 253.843C97.4224 252.878 95.5215 252.825 93.7188 253.275C91.9268 253.722 90.0986 254.692 88.3384 255.989C86.5674 257.294 84.7793 258.992 83.0679 261H88.8955C89.5513 260.396 90.2031 259.856 90.8413 259.387C92.3237 258.295 93.6509 257.64 94.7422 257.367C95.8169 257.097 96.5225 257.229 96.9839 257.497C97.5352 257.814 98.1089 258.548 98.3789 260.084C98.4297 260.371 98.4673 260.677 98.4922 261H102.719ZM92.4287 261L92.3657 260.961L92.2812 260.914C92.0366 260.784 91.7686 260.704 91.4927 260.678C91.2168 260.652 90.939 260.68 90.6738 260.762C90.4917 260.818 90.3188 260.898 90.1592 261H92.4287ZM77.1313 261C77.292 258.878 77.9824 257.877 78.6406 257.496C79.3491 257.091 80.6992 257.007 82.873 258.168C83.3672 258.432 83.9453 258.488 84.4805 258.325C85.0161 258.162 85.4648 257.793 85.728 257.299C85.9912 256.806 86.0479 256.228 85.8848 255.692C85.8174 255.47 85.7144 255.264 85.582 255.079C85.4893 254.95 85.3823 254.831 85.2622 254.725C85.1401 254.617 85.0049 254.523 84.8589 254.445C82.1982 253.027 79.124 252.347 76.5312 253.843C74.041 255.282 73.0674 258.109 72.9038 261H77.1313ZM0 226.477C0.220215 226.802 0.463379 227.022 0.702637 227.16C1.40576 227.567 2.75293 227.649 4.91846 226.499C5.0459 226.431 5.17969 226.377 5.31738 226.336C5.44434 226.299 5.57471 226.274 5.70703 226.262C5.98291 226.235 6.26123 226.263 6.52588 226.345C6.65283 226.383 6.77539 226.434 6.89209 226.496C7.01904 226.562 7.13965 226.643 7.25098 226.734C7.46484 226.911 7.6416 227.127 7.77197 227.372C7.90186 227.617 7.98242 227.885 8.00879 228.161C8.03516 228.437 8.00732 228.715 7.92627 228.979C7.84521 229.245 7.7124 229.491 7.53613 229.705C7.35986 229.918 7.14307 230.095 6.89844 230.226C4.71143 231.386 2.24609 232.047 0 231.411V226.477ZM-1.71777 221.543C-1.64551 221.594 -1.57617 221.65 -1.51025 221.711C-1.10303 222.086 -0.859863 222.607 -0.833008 223.16C-0.776855 224.791 -0.432617 225.837 0 226.477V221.959C2.89648 222.588 6.12354 222.932 9.5 222.932C12.0903 222.938 14.6763 222.727 17.2314 222.302C17.5049 222.256 17.7661 222.156 18.0005 222.009C18.2354 221.862 18.4385 221.669 18.5991 221.444C18.7593 221.218 18.8735 220.962 18.9351 220.692C18.9971 220.422 19.0049 220.143 18.9585 219.87C18.9121 219.596 18.8125 219.335 18.665 219.101C18.583 218.97 18.4873 218.85 18.3799 218.74C18.2939 218.653 18.2002 218.573 18.0996 218.502C17.874 218.342 17.6187 218.228 17.3486 218.166C17.0781 218.104 16.7988 218.096 16.5254 218.143C14.3574 218.511 11.9893 218.713 9.5 218.713C6.00293 218.713 2.76318 218.312 0 217.63V221.959C-0.586426 221.832 -1.15967 221.693 -1.71777 221.543ZM-1.71777 221.543C-2.09277 221.276 -2.5459 221.138 -3.01025 221.154L-3.0459 221.155C-2.61377 221.292 -2.17041 221.421 -1.71777 221.543ZM0 215.388C0.425781 215.143 0.755371 214.757 0.927734 214.292C1.75293 212.088 2.7627 209.958 3.94531 207.922C6.64844 203.237 9.88281 199.563 12.8413 197.387C14.3237 196.295 15.6509 195.64 16.7422 195.367C17.8169 195.097 18.5225 195.229 18.9839 195.497C19.3579 195.712 19.7422 196.119 20.0347 196.837C20.1738 197.178 20.292 197.59 20.3789 198.084C20.6489 199.614 20.5591 201.679 20.0215 204.131C19.9907 204.249 19.9702 204.369 19.96 204.49C19.9468 204.651 19.9517 204.813 19.9756 204.974C20.0171 205.255 20.1147 205.524 20.2632 205.767C20.2871 205.806 20.312 205.844 20.3384 205.882C20.3594 205.912 20.3813 205.94 20.4038 205.969C20.4507 206.029 20.501 206.086 20.5542 206.14C20.605 206.192 20.6587 206.242 20.7148 206.288C20.7549 206.321 20.7964 206.354 20.8389 206.384C21.0703 206.549 21.333 206.665 21.6104 206.726C21.8882 206.787 22.1748 206.791 22.4541 206.738C22.6211 206.707 22.7837 206.655 22.9375 206.585C23.041 206.538 23.1406 206.482 23.2354 206.418C23.4717 206.261 23.6733 206.057 23.8286 205.818C23.9839 205.581 24.0894 205.313 24.1392 205.034C24.7524 202.252 24.9297 199.603 24.5327 197.355C24.1392 195.114 23.1152 193.01 21.0903 191.843C19.4224 190.878 17.5215 190.825 15.7188 191.275C13.9268 191.722 12.0986 192.692 10.3384 193.989C6.81152 196.588 3.2168 200.745 0.291992 205.813C0.193359 205.984 0.0961914 206.154 0 206.325V215.388ZM0 196.092C0.203613 195.814 0.423828 195.622 0.640625 195.496C1.34912 195.091 2.69922 195.007 4.87305 196.168C5.36719 196.432 5.94531 196.488 6.48047 196.325C7.01611 196.162 7.46484 195.793 7.72803 195.299C7.99121 194.806 8.04785 194.228 7.88477 193.692C7.72168 193.157 7.35254 192.708 6.85889 192.445C4.68604 191.287 2.2373 190.621 0 191.23V196.092ZM72.9941 0H77.2588C77.1787 0.428711 77.125 0.918945 77.105 1.479C77.0801 2.03418 76.8369 2.55762 76.4282 2.93506C76.2881 3.06445 76.1323 3.17285 75.9653 3.25879C75.8779 3.3042 75.7876 3.34326 75.6948 3.37598C75.4497 3.46191 75.188 3.50244 74.9229 3.49316C74.6475 3.4834 74.3794 3.41992 74.1328 3.30859C73.8818 3.1958 73.6528 3.03418 73.4609 2.83008C73.0801 2.4248 72.8745 1.88574 72.8887 1.32959C72.9043 0.884277 72.9385 0.439453 72.9941 0ZM90.0493 0C87.314 2.22217 84.4092 5.65186 81.9453 9.92236C80.7627 11.9575 79.7529 14.0884 78.9277 16.2925C78.7329 16.8169 78.3379 17.2422 77.8296 17.4756C77.3208 17.7085 76.7407 17.7305 76.2163 17.5356C75.6919 17.3408 75.2666 16.9458 75.0332 16.4375C74.8003 15.9292 74.7788 15.3486 74.9731 14.8242C75.8228 12.5322 76.9336 10.1641 78.292 7.81299C79.9985 4.85547 81.9331 2.2085 83.9497 0H90.0493ZM229.523 0C229.09 0.6875 228.795 1.42871 228.714 2.1416C228.188 5.32471 230.949 8.59521 234.074 8.69824C235.411 8.81299 236.789 8.59375 238.038 8.39502L238.044 8.39355C239.769 8.11865 241.248 7.8833 242.036 8.61816C243.596 10.2344 242.208 11.9409 240.319 12.8228C238.857 13.3623 237.728 13.1543 236.203 12.4448L236.064 12.7061L236.042 12.7471L235.978 12.8701L235.38 13.9956L235.126 14.4727L234.347 15.9331C235.172 16.478 235.755 16.5942 236.752 16.8896C241.276 17.9683 248.117 13.501 246.704 8.47412C246.664 8.29736 246.39 7.11475 245.183 5.78223C243.814 4.21338 241.762 3.45947 237.541 4.19824C237.254 4.23486 236.966 4.28027 236.681 4.3252C235.468 4.5166 234.31 4.69873 233.547 4.17773C233.381 4.02295 233.249 3.8877 233.143 3.76074C232.954 3.53516 232.848 3.33643 232.779 3.10205C232.396 1.93164 233.408 0.859863 234.549 0.55127C235.296 0.37207 236.179 0.48291 237.005 1.02197C237.199 0.608887 237.354 0.276855 237.484 0H229.523ZM231.033 22.8125C232.052 21.6709 232.657 20.2471 232.505 18.751C232.4 17.0381 231.445 15.563 230.383 13.9238L230.356 13.8843L230.257 13.73L230.25 13.7183C230.109 13.501 229.967 13.2808 229.826 13.0557C227.796 9.76709 225.791 6.59814 223.692 3.23975L220.117 5.47363C221.057 6.97754 221.997 8.48926 222.939 10.0049L223.213 10.4443L224.635 12.731C225.043 13.3867 225.452 14.0425 225.862 14.6987C227.09 16.6636 228.302 18.3765 228.327 19.1289C228.483 20.542 227.043 21.2539 226.294 21.4292C225.825 21.4771 225.43 21.4194 225.036 21.2881C224.74 21.1899 224.445 21.0508 224.12 20.8838L224.04 20.8408L223.917 20.7749L223.841 20.7354C223.773 20.7012 223.728 20.6816 223.712 20.6841L221.918 24.2803C223.021 24.9702 224.271 25.3862 225.532 25.376C227.405 25.3423 229.393 24.4487 231.033 22.8125ZM90.6738 0.761719C90.5703 0.793457 90.4697 0.833496 90.3726 0.880859C90.2217 0.954102 90.0796 1.04492 89.9497 1.15234L89.9521 1.1582C89.8374 1.25293 89.7334 1.35938 89.6421 1.47559C89.563 1.57568 89.4927 1.68311 89.4326 1.79639C89.3027 2.04102 89.2227 2.30908 89.1968 2.58496C89.1704 2.86084 89.1987 3.13916 89.2803 3.40381C89.3618 3.66846 89.4946 3.91455 89.6709 4.12842C91.1665 5.94434 92.5068 7.88232 93.6787 9.92188C96.3872 14.6074 97.9482 19.2427 98.356 22.896C98.5615 24.7241 98.4629 26.2036 98.1538 27.2837C97.8496 28.3496 97.3828 28.8921 96.9219 29.1597C96.3706 29.48 95.4478 29.6064 93.98 29.0723C92.5229 28.5435 90.7822 27.4355 88.9258 25.7422C88.5117 25.3716 87.9678 25.1797 87.4126 25.2075C86.8574 25.2358 86.3359 25.4819 85.9609 25.8926C85.5864 26.3032 85.3892 26.8452 85.4116 27.4004C85.4346 27.9561 85.6753 28.48 86.0825 28.8584C88.186 30.7793 90.394 32.2559 92.5371 33.0381C94.6719 33.8169 97.0088 33.98 99.0312 32.813C100.702 31.8481 101.697 30.231 102.212 28.4448C102.718 26.6704 102.792 24.6006 102.549 22.4263C102.063 18.0728 100.26 12.8809 97.335 7.8125C96.0444 5.56641 94.5674 3.43262 92.9194 1.43359C92.7432 1.22021 92.5264 1.04346 92.2812 0.914062C92.0366 0.78418 91.7686 0.704102 91.4927 0.678223C91.2168 0.651855 90.939 0.680176 90.6738 0.761719ZM272.674 194.762C272.409 194.843 272.163 194.976 271.95 195.152L271.952 195.158C271.739 195.334 271.562 195.552 271.433 195.796C271.303 196.041 271.223 196.309 271.197 196.585C271.17 196.861 271.199 197.139 271.28 197.404C271.312 197.506 271.351 197.606 271.397 197.702C271.471 197.854 271.563 197.998 271.671 198.128C273.167 199.944 274.507 201.882 275.679 203.922C278.387 208.607 279.948 213.243 280.356 216.896C280.562 218.724 280.463 220.204 280.154 221.284C279.85 222.35 279.383 222.892 278.922 223.16C278.371 223.48 277.448 223.606 275.98 223.072C274.523 222.543 272.782 221.436 270.926 219.742C270.512 219.372 269.968 219.18 269.413 219.208C268.857 219.236 268.336 219.482 267.961 219.893C267.787 220.083 267.651 220.303 267.558 220.538C267.45 220.81 267.399 221.103 267.412 221.4C267.435 221.956 267.675 222.48 268.083 222.858C270.186 224.779 272.394 226.256 274.537 227.038C276.672 227.817 279.009 227.98 281.031 226.813C282.702 225.848 283.697 224.231 284.212 222.445C284.718 220.67 284.792 218.601 284.549 216.426C284.063 212.073 282.26 206.881 279.335 201.812C278.044 199.566 276.567 197.433 274.919 195.434C274.865 195.368 274.807 195.306 274.745 195.247C274.697 195.202 274.647 195.159 274.595 195.118C274.497 195.041 274.392 194.973 274.281 194.914C274.136 194.837 273.982 194.777 273.824 194.736C273.715 194.708 273.604 194.688 273.493 194.678C273.217 194.652 272.939 194.68 272.674 194.762ZM11.9497 199.152C12.1631 198.976 12.4092 198.843 12.6738 198.762C12.939 198.68 13.2168 198.652 13.4927 198.678C13.5308 198.682 13.5684 198.687 13.606 198.692C13.6948 198.705 13.7827 198.724 13.8687 198.749C14.0112 198.789 14.1494 198.844 14.2812 198.914C14.3989 198.976 14.5103 199.049 14.6133 199.132C14.7251 199.222 14.8276 199.323 14.9194 199.434C16.5674 201.433 18.0444 203.566 19.335 205.812C22.2603 210.881 24.063 216.073 24.5493 220.426C24.7915 222.601 24.7183 224.67 24.2119 226.445C23.6973 228.231 22.7017 229.848 21.0312 230.813C19.0088 231.98 16.6719 231.817 14.5371 231.038C12.394 230.256 10.186 228.779 8.08252 226.858C7.67529 226.48 7.43457 225.956 7.41162 225.4C7.38916 224.845 7.58643 224.303 7.96094 223.893C8.16162 223.673 8.40381 223.5 8.6709 223.383C8.90332 223.281 9.1543 223.221 9.4126 223.208C9.96777 223.18 10.5117 223.372 10.9258 223.742C12.7822 225.436 14.5229 226.543 15.98 227.072C16.8804 227.4 17.5757 227.479 18.106 227.417C18.4399 227.378 18.7085 227.284 18.9219 227.16C19.3828 226.892 19.8496 226.35 20.1538 225.284C20.4629 224.204 20.5615 222.724 20.356 220.896C19.9482 217.243 18.3872 212.607 15.6787 207.922C14.5068 205.882 13.1665 203.944 11.6709 202.128C11.4946 201.915 11.3618 201.668 11.2803 201.404C11.1987 201.139 11.1704 200.861 11.1968 200.585C11.2075 200.469 11.228 200.354 11.2578 200.242C11.2788 200.163 11.3047 200.084 11.335 200.008C11.3633 199.936 11.396 199.865 11.4326 199.796C11.562 199.552 11.7388 199.334 11.9521 199.158L11.9497 199.152ZM105.781 13.9043C105.781 13.0889 105.179 11.8823 103.101 10.5859C102.866 10.439 102.662 10.2471 102.501 10.0215C102.44 9.93701 102.387 9.84863 102.34 9.75684C102.261 9.60303 102.202 9.43994 102.163 9.271C102.1 9.00098 102.091 8.72119 102.137 8.44775C102.183 8.17432 102.282 7.9126 102.429 7.67773C102.725 7.20264 103.198 6.86523 103.744 6.73926C103.887 6.70605 104.034 6.68799 104.181 6.68506C104.225 6.68408 104.27 6.68457 104.314 6.68652C104.348 6.68848 104.381 6.69092 104.415 6.69434L104.478 6.70117C104.507 6.70459 104.537 6.70898 104.567 6.71387C104.84 6.75977 105.102 6.8584 105.337 7.00537C107.885 8.6001 110 10.9175 110 13.9043C110 16.897 107.874 19.2202 105.314 20.8149C104.84 21.0996 104.272 21.1865 103.734 21.0566C103.197 20.9272 102.731 20.5913 102.438 20.1216C102.146 19.6519 102.05 19.0859 102.17 18.5459C102.291 18.0059 102.619 17.5347 103.084 17.2344C105.177 15.9297 105.781 14.7202 105.781 13.9043ZM96.9585 21.8696C97.0049 22.1426 96.9971 22.4224 96.9351 22.6924C96.9199 22.7583 96.9019 22.8237 96.8804 22.8882C96.8447 22.9966 96.7998 23.1016 96.7466 23.2026L96.7222 23.2476L96.6973 23.2915C96.6841 23.3145 96.6704 23.3374 96.6558 23.3599L96.6304 23.3989L96.5991 23.4438C96.5527 23.5088 96.5029 23.5708 96.4502 23.6299C96.3989 23.687 96.3447 23.7412 96.2881 23.7925L96.25 23.8257C96.2104 23.8594 96.1699 23.8916 96.1279 23.9224L96.0713 23.9629L96.0005 24.0088C95.7661 24.1562 95.5049 24.2559 95.2314 24.3022C92.6763 24.7271 90.0903 24.9375 87.5 24.9321C83.4395 24.9321 79.5957 24.4351 76.2822 23.543C75.9072 23.2764 75.4541 23.1382 74.9897 23.1538L74.9541 23.1553C73.9922 22.8516 73.0835 22.5132 72.2363 22.1421C70.2314 21.2676 68.479 20.168 67.1968 18.8403C65.8999 17.5044 65 15.8311 65 13.9043C65 11.5703 66.3105 9.62939 68.0518 8.16699C69.8008 6.70166 72.186 5.52881 74.8999 4.66846C75.4331 4.49902 76.0122 4.54834 76.5088 4.80566C76.7549 4.93311 76.9736 5.10791 77.1519 5.31982C77.3306 5.53174 77.4653 5.77686 77.5493 6.04053C77.6333 6.30469 77.6641 6.58301 77.6406 6.85889C77.6377 6.89209 77.6343 6.92529 77.6299 6.9585L77.6182 7.03369L77.6074 7.09229C77.5981 7.13916 77.5874 7.18555 77.5747 7.23145C77.5356 7.37598 77.481 7.51611 77.4116 7.6499C77.2842 7.89551 77.1099 8.11426 76.8979 8.29297C76.686 8.47119 76.4409 8.60645 76.1768 8.68994C73.7861 9.44971 71.9526 10.4028 70.7656 11.4014C69.5674 12.4028 69.2188 13.2661 69.2188 13.9043C69.2188 14.439 69.458 15.1138 70.2285 15.9097C71.0103 16.7168 72.2422 17.541 73.9268 18.2778C77.2935 19.7515 82.0889 20.7134 87.5 20.7134C89.9893 20.7134 92.3574 20.5112 94.5254 20.1426C94.6226 20.126 94.7202 20.1167 94.8179 20.1138C94.9956 20.1084 95.1738 20.126 95.3486 20.166C95.6187 20.2275 95.874 20.3418 96.0996 20.502C96.3257 20.6626 96.5176 20.8657 96.665 21.1006C96.8125 21.335 96.9121 21.5962 96.9585 21.8696ZM74.9541 23.1553C74.4136 23.1826 73.9033 23.4165 73.5303 23.8096C73.1489 24.2114 72.9409 24.7471 72.9512 25.3008C73.0493 28.3159 74 31.3169 76.5933 32.8159C79.1777 34.3066 82.2437 33.6343 84.8984 32.2256C85.1431 32.0952 85.3599 31.9185 85.5361 31.7046C85.7124 31.4907 85.8452 31.2446 85.9263 30.9795C86.0073 30.7148 86.0352 30.4365 86.0088 30.1606C85.9824 29.8848 85.9019 29.6167 85.772 29.3721C85.6416 29.1274 85.4648 28.9106 85.251 28.7344C85.1733 28.6704 85.0913 28.6118 85.0059 28.5596C84.856 28.4688 84.6948 28.3965 84.5259 28.3447C84.2612 28.2632 83.9829 28.2354 83.707 28.2617C83.4312 28.2881 83.1631 28.3687 82.9185 28.499C80.7529 29.6489 79.4058 29.5674 78.7026 29.1597C77.9937 28.752 77.2515 27.6211 77.167 25.1602C77.1484 24.7808 77.0288 24.417 76.8237 24.1045C76.7842 24.0444 76.7417 23.9863 76.6963 23.9307C76.6328 23.853 76.564 23.7798 76.4897 23.7109C76.4595 23.6831 76.4287 23.6567 76.3975 23.6309C76.3599 23.6001 76.3213 23.5708 76.2822 23.543C75.8296 23.4209 75.3862 23.2915 74.9541 23.1553ZM285.101 204.586C287.179 205.882 287.781 207.089 287.781 207.904C287.781 208.72 287.177 209.93 285.084 211.234C284.619 211.535 284.291 212.006 284.17 212.546C284.05 213.086 284.146 213.652 284.438 214.122C284.569 214.331 284.734 214.514 284.924 214.664C285.008 214.73 285.096 214.79 285.189 214.842C285.277 214.892 285.369 214.935 285.463 214.972C285.551 215.006 285.642 215.034 285.734 215.057C286.059 215.135 286.393 215.134 286.712 215.06C286.922 215.01 287.125 214.928 287.314 214.815C289.874 213.22 292 210.897 292 207.904C292 204.917 289.885 202.6 287.337 201.005C287.252 200.953 287.164 200.906 287.073 200.866C286.912 200.794 286.742 200.743 286.567 200.714C286.293 200.668 286.014 200.677 285.744 200.739C285.198 200.865 284.725 201.203 284.429 201.678C284.282 201.913 284.183 202.174 284.137 202.448C284.091 202.721 284.1 203.001 284.163 203.271C284.225 203.541 284.34 203.796 284.501 204.021C284.662 204.247 284.866 204.439 285.101 204.586ZM27.7812 211.904C27.7812 211.089 27.1792 209.882 25.1011 208.586C24.9668 208.502 24.8428 208.404 24.7314 208.293C24.6475 208.209 24.5703 208.119 24.501 208.021C24.3838 207.857 24.291 207.677 24.2251 207.487C24.2007 207.417 24.1797 207.344 24.1626 207.271C24.1206 207.088 24.103 206.902 24.1099 206.715C24.1133 206.626 24.1226 206.537 24.1372 206.448C24.1831 206.174 24.2817 205.913 24.4287 205.678C24.5942 205.413 24.8149 205.19 25.0723 205.023L25.1226 204.992L25.1758 204.961L25.2163 204.939L25.2402 204.926L25.2563 204.917C25.2915 204.899 25.3271 204.882 25.3638 204.866C25.3955 204.852 25.4277 204.839 25.4604 204.826L25.519 204.805L25.5645 204.789L25.6479 204.764C25.6797 204.755 25.7114 204.747 25.7437 204.739C26.0137 204.677 26.2935 204.668 26.5669 204.714C26.8398 204.76 27.1016 204.858 27.3369 205.005C29.8848 206.6 32 208.917 32 211.904C32 214.897 29.8735 217.22 27.3145 218.815C26.8398 219.1 26.2725 219.187 25.7344 219.057C25.5522 219.013 25.3784 218.945 25.2168 218.857C24.9009 218.684 24.6318 218.432 24.4385 218.122C24.146 217.652 24.0498 217.086 24.1704 216.546C24.291 216.006 24.6191 215.535 25.084 215.234C27.1768 213.93 27.7812 212.72 27.7812 211.904ZM103.101 270.586C105.179 271.882 105.781 273.089 105.781 273.904C105.781 274.72 105.177 275.93 103.084 277.234C102.619 277.535 102.291 278.006 102.17 278.546C102.05 279.086 102.146 279.652 102.438 280.122C102.731 280.591 103.197 280.927 103.734 281.057C103.948 281.108 104.166 281.125 104.38 281.11C104.708 281.086 105.028 280.987 105.314 280.815C107.874 279.22 110 276.897 110 273.904C110 270.917 107.885 268.6 105.337 267.005C105.102 266.858 104.84 266.76 104.567 266.714C104.432 266.691 104.294 266.682 104.158 266.686C104.067 266.688 103.977 266.697 103.887 266.711C103.839 266.719 103.791 266.728 103.744 266.739C103.492 266.797 103.255 266.9 103.045 267.042C102.917 267.127 102.798 267.227 102.692 267.339C102.594 267.442 102.505 267.555 102.429 267.678C102.37 267.772 102.318 267.87 102.275 267.972C102.211 268.124 102.165 268.284 102.137 268.448C102.091 268.721 102.1 269.001 102.163 269.271C102.225 269.541 102.34 269.796 102.501 270.021C102.662 270.247 102.866 270.439 103.101 270.586ZM96.9351 282.692C96.9971 282.422 97.0049 282.143 96.9585 281.87C96.936 281.738 96.9014 281.61 96.855 281.486C96.8052 281.352 96.7417 281.222 96.665 281.101C96.5586 280.931 96.4287 280.777 96.2793 280.645C96.2222 280.594 96.1621 280.546 96.0996 280.502C95.874 280.342 95.6187 280.228 95.3486 280.166C95.0781 280.104 94.7988 280.096 94.5254 280.143C92.3574 280.511 89.9893 280.713 87.5 280.713C82.0889 280.713 77.2935 279.751 73.9268 278.278C72.2422 277.541 71.0103 276.717 70.2285 275.91C69.458 275.114 69.2188 274.439 69.2188 273.904C69.2188 273.625 69.2852 273.303 69.4604 272.945C69.686 272.484 70.0913 271.965 70.7656 271.401C71.9526 270.403 73.7861 269.45 76.1768 268.69C76.2998 268.651 76.4185 268.601 76.5317 268.541C76.6621 268.471 76.7847 268.388 76.8979 268.293C77.1099 268.114 77.2842 267.896 77.4116 267.65C77.5391 267.404 77.6172 267.135 77.6406 266.859C77.6641 266.583 77.6333 266.305 77.5493 266.041C77.4653 265.777 77.3306 265.532 77.1519 265.32C76.9736 265.108 76.7549 264.933 76.5088 264.806C76.0122 264.548 75.4331 264.499 74.8999 264.668C72.186 265.529 69.8008 266.702 68.0518 268.167C66.3105 269.629 65 271.57 65 273.904C65 275.831 65.8999 277.504 67.1968 278.84C68.479 280.168 70.2314 281.268 72.2363 282.142C72.6821 282.337 73.145 282.523 73.6235 282.701C74.0547 282.86 74.4985 283.011 74.9541 283.155C74.4136 283.183 73.9033 283.417 73.5303 283.81C73.1489 284.211 72.9409 284.747 72.9512 285.301C73.0493 288.316 74 291.317 76.5933 292.816C79.1777 294.307 82.2437 293.634 84.8984 292.226C85.1431 292.095 85.3599 291.918 85.5361 291.705C85.7124 291.491 85.8452 291.245 85.9263 290.979C86.0073 290.715 86.0352 290.437 86.0088 290.161C85.9946 290.013 85.9648 289.867 85.9204 289.726C85.8818 289.604 85.832 289.485 85.772 289.372C85.6416 289.127 85.4648 288.911 85.251 288.734C85.0376 288.558 84.791 288.426 84.5259 288.345C84.2612 288.263 83.9829 288.235 83.707 288.262L83.667 288.266L83.582 288.277C83.5156 288.288 83.4502 288.301 83.3853 288.318C83.3193 288.335 83.2539 288.355 83.1895 288.378C83.0967 288.412 83.0059 288.452 82.9185 288.499C80.7529 289.649 79.4058 289.567 78.7026 289.16C77.9937 288.752 77.2515 287.621 77.167 285.16C77.1401 284.607 76.897 284.086 76.4897 283.711C76.4238 283.65 76.3545 283.594 76.2822 283.543C79.5957 284.435 83.4395 284.932 87.5 284.932C90.0903 284.938 92.6763 284.727 95.2314 284.302C95.5049 284.256 95.7661 284.156 96.0005 284.009C96.2354 283.862 96.4385 283.669 96.5991 283.444C96.6187 283.417 96.6377 283.389 96.6558 283.36C96.6958 283.297 96.7324 283.232 96.7656 283.166C96.8013 283.095 96.8325 283.022 96.8594 282.948C96.8716 282.915 96.8828 282.882 96.8931 282.848C96.9092 282.797 96.9229 282.745 96.9351 282.692ZM76.2822 283.543C75.9072 283.276 75.4541 283.138 74.9897 283.154L74.9541 283.155C75.1987 283.232 75.4468 283.307 75.6982 283.38C75.8911 283.436 76.0859 283.49 76.2822 283.543ZM91.606 13.5112C91.606 14.5254 91.2031 15.4985 90.4858 16.2158C89.7686 16.9331 88.7954 17.3359 87.7812 17.3359C86.7666 17.3359 85.7935 16.9331 85.0762 16.2158C84.3589 15.4985 83.9561 14.5254 83.9561 13.5112C83.9561 12.4966 84.3589 11.5234 85.0762 10.8062C85.7935 10.0889 86.7666 9.68604 87.7812 9.68604C88.7954 9.68604 89.7686 10.0889 90.4858 10.8062C91.2031 11.5234 91.606 12.4966 91.606 13.5112ZM272.486 210.216C273.203 209.499 273.606 208.525 273.606 207.511C273.606 206.497 273.203 205.523 272.486 204.806C271.769 204.089 270.795 203.686 269.781 203.686C268.767 203.686 267.793 204.089 267.076 204.806C266.359 205.523 265.956 206.497 265.956 207.511C265.956 208.525 266.359 209.499 267.076 210.216C267.793 210.933 268.767 211.336 269.781 211.336C270.795 211.336 271.769 210.933 272.486 210.216ZM13.606 211.511C13.606 212.525 13.2031 213.499 12.4858 214.216C11.7686 214.933 10.7954 215.336 9.78125 215.336C8.7666 215.336 7.79346 214.933 7.07617 214.216C6.35889 213.499 5.95605 212.525 5.95605 211.511C5.95605 210.497 6.35889 209.523 7.07617 208.806C7.79346 208.089 8.7666 207.686 9.78125 207.686C10.7954 207.686 11.7686 208.089 12.4858 208.806C13.2031 209.523 13.606 210.497 13.606 211.511ZM90.4858 276.216C90.7959 275.906 91.0469 275.548 91.2324 275.16C91.2671 275.087 91.2993 275.014 91.3291 274.939C91.3936 274.779 91.4473 274.615 91.4897 274.447C91.5312 274.284 91.562 274.117 91.5811 273.948C91.5879 273.89 91.5933 273.832 91.5972 273.774C91.603 273.687 91.606 273.599 91.606 273.511C91.606 272.497 91.2031 271.523 90.4858 270.806C89.7686 270.089 88.7954 269.686 87.7812 269.686C86.7666 269.686 85.7935 270.089 85.0762 270.806C84.3589 271.523 83.9561 272.497 83.9561 273.511C83.9561 274.525 84.3589 275.499 85.0762 276.216C85.4868 276.626 85.981 276.934 86.519 277.122C86.9209 277.262 87.3472 277.336 87.7812 277.336C88.7954 277.336 89.7686 276.933 90.4858 276.216ZM159.169 137.79C156.95 135.786 156.302 131.576 157.228 128.525C158.832 130.448 161.057 131.059 163.361 131.402C166.917 131.933 170.409 131.734 173.711 130.131C173.866 130.057 174.015 129.972 174.166 129.88L174.312 129.791L174.458 129.699L174.481 129.684L174.526 129.656C174.631 129.59 174.738 129.523 174.851 129.457C175.162 130.343 175.243 131.237 175.134 132.15C174.872 134.371 173.75 136.086 171.97 137.387C171.482 137.743 170.975 138.073 170.467 138.404L170.085 138.653L169.768 138.862C167.509 140.369 166.898 142.137 167.747 144.708L167.83 144.986C166.749 144.522 165.831 143.747 165.192 142.759C164.528 141.749 164.173 140.566 164.172 139.357L164.171 139.209L164.166 138.862C164.165 138.764 164.163 138.666 164.159 138.567C164.157 138.486 164.154 138.404 164.15 138.323C164.138 138.068 164.118 137.813 164.083 137.562C163.884 136.12 163.198 135.475 161.906 135.438C160.581 135.4 159.531 136.208 159.254 137.481C159.237 137.554 159.217 137.626 159.194 137.705L159.169 137.79ZM148 129.46C148 129.46 154.073 126.508 160.165 126.508L164.759 112.328C164.932 111.642 165.434 111.177 166 111.177C166.566 111.177 167.068 111.642 167.241 112.328L171.833 126.508C179.05 126.508 184 129.46 184 129.46L173.663 101.363C173.366 100.534 172.866 100 172.191 100H159.809C159.134 100 158.656 100.534 158.339 101.363L148 129.46ZM208.455 170.484C218.267 172.57 224.128 184.114 221.545 196.27C218.959 208.425 208.911 216.587 199.099 214.501C193.013 213.208 188.441 208.293 186.486 201.818C185.879 199.854 185.207 197.911 184.472 195.992C183.208 192.595 182.25 190.02 182.678 188.008C183.099 186.027 184.619 184.476 187.083 181.963L187.123 181.924C187.578 181.458 188.064 180.96 188.581 180.422C189.541 179.422 190.607 178.281 191.773 176.943C196.194 171.821 202.369 169.191 208.455 170.484ZM183.98 190.016C185.502 190.33 186.942 190.96 188.204 191.869C189.458 192.769 190.504 193.927 191.272 195.266C191.36 195.415 191.557 195.422 191.649 195.326C191.669 195.304 191.685 195.277 191.693 195.245C191.696 195.231 191.698 195.215 191.698 195.199L191.697 195.175L191.695 195.158C191.298 192.86 189.377 189.461 184.017 189.583C183.873 189.578 183.797 189.665 183.787 189.762C183.776 189.868 183.842 189.987 183.98 190.016ZM184.286 188.589C185.742 188.093 187.287 187.911 188.819 188.054C190.356 188.198 191.845 188.665 193.188 189.424C193.31 189.495 193.444 189.448 193.507 189.359C193.542 189.31 193.554 189.247 193.528 189.184C193.521 189.165 193.509 189.146 193.493 189.126C191.981 187.365 188.649 185.401 184.013 188.177C183.807 188.323 184.003 188.662 184.256 188.583L184.286 188.589ZM184.542 186.831C185.68 185.808 187.024 185.04 188.483 184.579C189.956 184.113 191.51 183.962 193.045 184.135C193.063 184.141 193.082 184.145 193.101 184.146C193.119 184.147 193.138 184.146 193.157 184.143C193.173 184.139 193.19 184.134 193.206 184.127C193.256 184.105 193.295 184.065 193.316 184.014C193.336 183.964 193.335 183.907 193.313 183.857C193.299 183.821 193.276 183.79 193.246 183.766C193.233 183.756 193.218 183.747 193.203 183.739C191.075 182.683 187.167 182.196 184.161 186.531C184.005 186.763 184.317 186.998 184.517 186.825L184.542 186.831ZM188.559 198.3C188.423 196.774 188.29 195.471 187.529 194.127C186.771 192.779 185.027 191.739 184.469 191.621C184.084 191.602 184.24 191.933 184.24 191.933C186.068 193.515 187.182 194.948 188.166 198.516C188.194 198.533 188.222 198.545 188.249 198.552C188.268 198.557 188.288 198.56 188.307 198.56C188.353 198.559 188.396 198.543 188.433 198.516C188.493 198.471 188.539 198.396 188.559 198.3ZM212.548 191.762C211.985 190.747 211.116 189.934 210.065 189.438C209.938 189.392 209.796 189.406 209.68 189.477C209.623 189.511 209.576 189.558 209.541 189.613C209.505 189.669 209.483 189.732 209.477 189.798L207.932 197.07C207.921 197.101 207.915 197.133 207.912 197.166C207.908 197.199 207.909 197.233 207.913 197.266C207.917 197.301 207.926 197.335 207.939 197.368C207.951 197.397 207.965 197.425 207.983 197.451C208.021 197.506 208.072 197.552 208.13 197.586C208.188 197.62 208.254 197.64 208.321 197.646C209.479 197.626 210.601 197.244 211.53 196.554C212.318 196.037 212.902 195.262 213.184 194.362C213.219 194.003 213.206 193.644 213.146 193.293C213.054 192.75 212.852 192.229 212.548 191.762ZM204.037 200.99C204.289 200.207 204.257 199.361 203.947 198.6C203.675 197.942 203.213 197.378 202.624 196.98C202.03 196.58 201.333 196.359 200.617 196.346C199.9 196.333 199.196 196.527 198.587 196.905C198.313 197.078 198.066 197.287 197.851 197.523C197.597 197.804 197.388 198.123 197.236 198.471C196.956 199.114 196.877 199.828 197.012 200.517C197.031 200.615 197.055 200.712 197.082 200.808C197.103 200.882 197.126 200.955 197.152 201.027C197.328 201.521 197.612 201.973 197.99 202.35C198.582 202.941 199.356 203.314 200.187 203.41C201.019 203.505 201.857 203.318 202.568 202.877C203.265 202.44 203.785 201.772 204.037 200.99ZM207.35 185.41C207.604 184.629 207.575 183.783 207.268 183.022C206.998 182.362 206.539 181.796 205.949 181.396C205.357 180.992 204.66 180.769 203.944 180.753C203.227 180.736 202.521 180.928 201.911 181.304C201.309 181.683 200.836 182.228 200.554 182.872C200.272 183.515 200.192 184.229 200.326 184.918C200.459 185.609 200.798 186.249 201.303 186.753C201.806 187.263 202.453 187.611 203.157 187.761C204.09 187.962 205.064 187.793 205.875 187.29C206.573 186.856 207.095 186.19 207.35 185.41ZM144.424 208.96C145.097 208.901 145.795 209.022 146.417 209.312L152.927 212.432C153.429 212.661 153.554 212.83 153.518 212.958C153.483 213.076 153.309 213.159 153.168 213.22C151.972 213.759 151.729 213.872 150.48 214.739C150.347 214.832 150.164 214.817 150.016 214.739L145.013 212.336C144.833 212.251 144.593 212.272 144.441 212.386L126.845 224.703C126.752 224.77 126.682 224.867 126.643 224.976C126.613 225.057 126.601 225.144 126.608 225.229L128.479 246.62C128.487 246.708 128.513 246.79 128.555 246.862C128.614 246.966 128.704 247.051 128.815 247.106L148.272 256.171C148.451 256.257 148.682 256.237 148.844 256.122L166.419 243.807C166.591 243.69 166.684 243.48 166.666 243.269L164.795 221.888C164.789 221.815 164.768 221.743 164.734 221.678C164.702 221.615 164.659 221.559 164.606 221.513C164.563 221.475 164.515 221.444 164.461 221.422L159.128 218.937C156.249 217.803 154.704 219.566 154.847 221.202L156.694 242.312C156.721 242.613 156.5 242.865 156.199 242.891L153.851 243.096C153.56 243.122 153.289 242.913 153.263 242.612L151.415 221.492C151.094 217.82 152.916 215.537 156.397 215.232C157.471 215.139 158.314 215.065 160.764 216.023L165.865 218.398C167.129 218.985 167.985 220.214 168.107 221.609L169.978 242.99C170.099 244.374 169.47 245.744 168.327 246.541L150.751 258.856C149.635 259.621 148.08 259.757 146.858 259.197L127.39 250.112C126.125 249.525 125.27 248.296 125.148 246.901L123.277 225.521C123.156 224.136 123.785 222.777 124.928 221.969L142.523 209.652C143.086 209.259 143.742 209.02 144.424 208.96ZM131.309 231.349C131.659 235.353 134.461 236.179 140.216 236.434C146.042 236.692 146.658 237.033 146.776 238.377C146.873 239.491 146.511 241.019 142.247 241.392C138.445 241.725 136.968 241.025 136.161 238.507C136.09 238.271 135.854 238.109 135.603 238.131L133.195 238.342C133.044 238.355 132.909 238.428 132.818 238.547C132.728 238.666 132.69 238.821 132.714 238.971C133.472 243.363 136.592 245.162 142.532 244.643C147.819 244.18 150.775 241.677 150.447 237.935C150.093 233.881 146.854 233.032 141.743 232.974C135.621 232.913 135.072 232.061 134.967 230.867C134.786 228.8 136.375 227.772 140.277 227.43C145.184 227.001 146.365 228.141 146.94 230.548C147.003 230.805 147.24 230.977 147.511 230.953L149.909 230.743C150.21 230.717 150.42 230.456 150.395 230.165C150.122 227.044 148.1 223.47 139.983 224.18C134.125 224.703 130.956 227.316 131.309 231.349ZM219.48 142.788C219.515 141.003 219.045 139.246 218.126 137.716C217.202 136.479 215.904 135.572 214.424 135.129C212.945 134.687 211.362 134.731 209.91 135.256C211.914 133.492 214.508 132.547 217.177 132.609C219.846 132.671 222.394 133.737 224.313 135.593C225.848 136.835 227.08 138.411 227.915 140.2C228.749 141.99 229.165 143.946 229.129 145.92C229.099 147.708 229.563 149.469 230.469 151.01C231.394 152.238 232.685 153.142 234.157 153.589C235.628 154.038 237.203 154.007 238.656 153.503C236.653 155.268 234.058 156.213 231.389 156.15C228.72 156.088 226.172 155.022 224.253 153.167C222.719 151.915 221.491 150.329 220.664 148.53C219.836 146.731 219.432 144.767 219.48 142.788ZM246.381 142.862C246.347 144.646 246.816 146.404 247.735 147.934C248.66 149.171 249.958 150.078 251.438 150.521C252.917 150.963 254.5 150.918 255.952 150.393C253.948 152.158 251.354 153.103 248.685 153.041C246.016 152.978 243.468 151.913 241.549 150.056C240.018 148.811 238.788 147.235 237.954 145.446C237.12 143.657 236.702 141.703 236.732 139.729C236.763 137.942 236.299 136.181 235.393 134.64C234.468 133.412 233.176 132.508 231.705 132.06C230.234 131.612 228.658 131.642 227.206 132.146C229.209 130.382 231.804 129.437 234.473 129.499C237.142 129.562 239.689 130.627 241.608 132.483C243.143 133.734 244.371 135.32 245.198 137.119C246.025 138.918 246.43 140.882 246.381 142.862ZM82.9873 231.368C83.0806 231.289 83.1655 231.205 83.2432 231.118C83.3716 230.973 83.48 230.817 83.5762 230.661C82.8691 230.74 82.2822 230.547 81.7778 230.197L81.7373 230.165L81.6934 230.132C81.6626 230.11 81.6323 230.088 81.6006 230.06C81.5454 230.015 81.4941 229.967 81.4473 229.914C80.959 229.381 80.8936 229.075 80.8198 228.729C80.8042 228.655 80.7881 228.579 80.7671 228.499C80.7534 228.446 80.7378 228.392 80.7192 228.334L80.6924 228.256C80.5732 227.856 80.3652 227.512 80.0962 227.236C79.8184 226.951 79.4756 226.738 79.0986 226.608C79.0122 226.562 78.9209 226.526 78.8271 226.5C80.3931 227.884 80.0693 229.242 79.8242 230.271C79.7866 230.429 79.751 230.58 79.7241 230.721C79.7026 230.834 79.687 230.942 79.6807 231.043L79.6777 231.122V231.145L79.6787 231.192L79.6816 231.244C79.6831 231.262 79.6855 231.28 79.6885 231.298L79.6919 231.321L79.6987 231.355L79.7031 231.377C80.1919 232.015 81.0425 231.999 81.6816 231.947C82.1626 231.881 82.6152 231.679 82.9873 231.368ZM79.731 233.236C79.644 233.088 79.6191 233.063 79.5928 233.037C79.5771 233.021 79.561 233.005 79.5312 232.963L79.502 232.921L79.4775 232.888L79.4482 232.848L79.439 232.835C79.4087 232.795 79.3789 232.755 79.3545 232.718C79.313 232.63 79.27 232.544 79.2383 232.451C79.1953 232.364 79.1606 232.271 79.1304 232.176L79.0557 231.892C79.0547 231.86 79.0503 231.832 79.0459 231.804C79.043 231.785 79.04 231.767 79.0386 231.748L79.0371 231.724L79.0239 231.6C79.0151 231.503 79.0098 231.407 79.0078 231.31L79.0103 231.266L79.0122 231.219L79.0142 231.157L79.0186 231.1C79.0215 231.071 79.0264 231.042 79.0337 231.014L79.0264 231.005C79.0425 230.917 79.0508 230.818 79.0757 230.72C79.1152 230.545 79.1733 230.375 79.2319 230.204C79.2739 230.083 79.3159 229.961 79.3511 229.837C79.3765 229.742 79.4082 229.652 79.417 229.554L79.4229 229.531L79.4307 229.498L79.439 229.46C79.4521 229.397 79.4614 229.333 79.4673 229.27C79.4844 229.165 79.4844 229.074 79.4844 228.967V228.947C79.4844 228.904 79.4844 228.859 79.4824 228.814C79.4805 228.768 79.4766 228.72 79.4688 228.676C79.4629 228.579 79.4521 228.481 79.437 228.385C79.4258 228.337 79.4141 228.293 79.4023 228.25C79.3887 228.201 79.3755 228.152 79.3633 228.099C79.3306 228.004 79.3042 227.921 79.2627 227.833C79.2246 227.74 79.1831 227.648 79.1377 227.559L79.1177 227.522L79.0977 227.493C79.083 227.472 79.0688 227.45 79.0586 227.43C79.0508 227.413 79.0415 227.397 79.0322 227.381L79.0205 227.364L79.0132 227.354C79.0039 227.338 78.9946 227.322 78.9868 227.306C78.9653 227.281 78.9443 227.253 78.9233 227.226L78.8989 227.193C78.8691 227.153 78.8394 227.113 78.8086 227.076C78.7642 227.023 78.7192 226.97 78.666 226.924C78.606 226.852 78.5371 226.788 78.4521 226.724C78.4263 226.7 78.3994 226.677 78.3716 226.655L78.3369 226.627C78.3062 226.603 78.2739 226.579 78.2417 226.555L78.2285 226.545C78.2026 226.531 78.1777 226.516 78.1528 226.501L78.082 226.457C78.0483 226.435 78.0142 226.414 77.978 226.393C77.9541 226.381 77.9282 226.369 77.9023 226.358L77.8477 226.336L77.8101 226.321L80.5234 225.395C80.7598 225.289 80.9922 225.181 81.2222 225.071C81.4087 224.981 81.5942 224.89 81.7803 224.795L82.4526 224.459C83.0762 224.117 83.6865 223.742 84.2739 223.339C84.293 223.324 84.3086 223.325 84.3257 223.311C85.3203 222.633 86.2544 221.87 87.1167 221.03C87.6294 220.539 88.1133 220.013 88.5815 219.468C88.9268 219.06 89.2578 218.64 89.5742 218.209L89.8857 217.767C89.9062 217.729 89.9263 217.69 89.9453 217.651L90.0068 217.526L90.0464 217.442L90.1255 217.277L90.3076 216.896C90.311 216.888 90.3154 216.882 90.3198 216.875L90.3228 216.87C90.3296 216.86 90.3354 216.852 90.3364 216.843L90.3799 216.746C90.4165 216.665 90.4507 216.589 90.4814 216.508C90.5542 216.36 90.6201 216.208 90.6782 216.054C90.6953 216.021 90.7109 215.986 90.7256 215.951C90.7456 215.904 90.7637 215.857 90.7817 215.816C90.7939 215.778 90.8081 215.742 90.8242 215.707L90.853 215.629L90.8589 215.613L90.8647 215.597C90.8931 215.521 90.9204 215.447 90.9438 215.376C90.9829 215.274 91.0166 215.17 91.0444 215.064L91.0708 214.974L91.0835 214.932C91.0977 214.884 91.1104 214.838 91.1187 214.791C91.1191 214.774 91.1289 214.766 91.1304 214.75L91.1558 214.654L91.1758 214.573L91.1948 214.482L91.1978 214.451L91.2422 214.232C91.2461 214.221 91.249 214.208 91.252 214.196L91.2563 214.178C91.2588 214.168 91.2617 214.16 91.2651 214.152C91.272 214.118 91.2773 214.081 91.2822 214.045C91.2881 214.004 91.2939 213.963 91.3022 213.925L91.3003 213.915L91.2998 213.906C91.2998 213.893 91.3032 213.88 91.3057 213.87L91.3081 213.859C91.3115 213.812 91.3169 213.767 91.3223 213.723L91.3252 213.702L91.3325 213.645L91.3398 213.573C91.3496 213.564 91.3428 213.556 91.3442 213.54C91.3589 213.445 91.3691 213.35 91.3755 213.254V213.241V213.237C91.375 213.232 91.3745 213.229 91.3755 213.226L91.3799 213.221L91.3848 213.162L91.3901 213.081L91.3926 213.011L91.3931 212.965C91.3945 212.948 91.3984 212.929 91.4023 212.909C91.4058 212.893 91.4092 212.877 91.4111 212.862C91.4111 212.816 91.4126 212.77 91.4155 212.724C91.4185 212.674 91.4229 212.624 91.4287 212.573C91.4272 212.568 91.4268 212.562 91.4268 212.557L91.4277 212.536C91.4282 212.524 91.4292 212.512 91.4268 212.501L91.4351 212.385L91.4424 212.239C91.4448 212.198 91.4478 212.156 91.4517 212.113L91.4556 212.066C91.4717 211.793 91.4956 211.516 91.5444 211.247C91.5835 210.97 91.6421 210.695 91.7139 210.437C91.8501 209.908 92.0474 209.397 92.3013 208.914C92.356 208.805 92.4146 208.696 92.4756 208.588C92.5469 208.461 92.6226 208.336 92.7002 208.214C93.0063 207.82 93.2632 207.348 93.5693 207.044C93.5933 207.024 93.6167 207.001 93.6392 206.978C93.6626 206.953 93.6855 206.927 93.708 206.901L93.77 206.832L93.9482 206.592L94.0947 206.332C94.1191 206.287 94.1416 206.241 94.1631 206.194L94.2085 206.094L94.2256 206.056C94.2383 206.006 94.2554 205.957 94.2725 205.908L94.2852 205.87L94.2993 205.827L94.3174 205.766C94.3423 205.667 94.3589 205.565 94.3677 205.464C94.3931 205.369 94.4033 205.252 94.4121 205.155L94.4146 205.057C94.417 204.987 94.4189 204.919 94.4131 204.85C94.4067 204.808 94.4033 204.765 94.3999 204.724C94.3965 204.682 94.3931 204.64 94.3872 204.599L94.3813 204.565L94.3745 204.533C94.3711 204.481 94.3652 204.431 94.3579 204.38C94.3501 204.328 94.3403 204.276 94.3286 204.224L94.3076 204.149C94.2925 204.094 94.2778 204.041 94.2603 203.988C94.2515 203.962 94.2422 203.936 94.2319 203.911C94.1992 203.816 94.1572 203.714 94.1182 203.612L94.1035 203.581L94.1006 203.577L94.0483 203.474C94.0337 203.446 94.0186 203.42 94.0024 203.394L93.9805 203.36C93.9775 203.357 93.9766 203.351 93.9756 203.344L93.9736 203.335L93.9692 203.326C93.9487 203.287 93.9214 203.246 93.894 203.207L93.8608 203.161L93.8315 203.12C93.8169 203.099 93.8042 203.08 93.7949 203.063C93.7505 202.993 93.7158 202.934 93.6631 202.871C93.5347 202.714 93.3696 202.592 93.1831 202.515L93.1758 202.506C93.1333 202.488 93.0869 202.472 93.0391 202.458L92.9414 202.428C92.8628 202.404 92.7808 202.382 92.6929 202.365C92.6108 202.358 92.5122 202.348 92.4204 202.35C92.3247 202.341 92.2285 202.341 92.1328 202.348L92.0015 202.345C91.7305 202.338 91.6064 202.335 91.2622 202.413C91.2324 202.418 91.2041 202.424 91.1748 202.432L91.145 202.439C91.1177 202.447 91.0894 202.455 91.0581 202.462C91.0493 202.469 91.0337 202.468 91.0249 202.475C91.0093 202.457 91.002 202.448 90.979 202.438C90.835 202.308 90.6758 202.197 90.5049 202.106C90.481 202.097 90.458 202.086 90.4355 202.075L90.3857 202.05C90.3574 202.035 90.3291 202.021 90.2993 202.007C90.2739 201.997 90.2505 201.987 90.2334 201.986C90.1616 201.954 90.0942 201.928 90.0278 201.903L89.9634 201.878L89.6733 201.803C89.584 201.787 89.4775 201.771 89.3789 201.761C89.2808 201.753 89.1904 201.753 89.0825 201.753C89.0825 201.753 89.0669 201.751 89.0581 201.759C88.9678 201.759 88.877 201.759 88.7925 201.769C88.6938 201.777 88.5967 201.793 88.5005 201.817L88.46 201.825L88.397 201.838L88.3291 201.854C88.29 201.865 88.251 201.877 88.2134 201.89C88.1343 201.912 88.0576 201.941 87.9839 201.978C87.9775 201.978 87.9727 201.978 87.9673 201.979L87.9551 201.983L87.9331 201.99L87.8818 202.016L87.7954 202.06C87.4175 201.557 87.0464 201.097 86.8398 200.996C86.6113 200.884 86.6748 201.756 86.8071 202.708C86.5762 202.38 86.3193 202.03 86.0864 201.743C85.8516 201.453 85.6411 201.229 85.5068 201.158C85.2207 201.018 85.2715 202.161 85.4497 203.315C80.3613 210.072 70.9429 210.544 65.168 204.89C66.0903 205.755 67.7222 205.294 68.1533 204.705C67.8682 203.823 67.6123 202.596 67.9009 201.458C68.333 202.099 68.8652 202.68 69.4844 203.165C68.9961 202.177 68.7305 201.095 68.7065 199.994C69.499 199.224 70.6885 198.923 71.6499 199.164C71.707 199.16 71.7603 199.206 71.8179 199.219L71.8384 199.229L71.8442 199.232C71.9136 199.268 71.9844 199.305 72.0464 199.345C72.0918 199.368 72.1357 199.395 72.1772 199.424C72.2046 199.444 72.231 199.465 72.2563 199.487C72.2847 199.513 72.3105 199.54 72.3364 199.568C72.3672 199.602 72.3975 199.638 72.4302 199.677L72.542 199.811C72.5615 199.844 72.5801 199.877 72.5972 199.912C72.6177 199.952 72.6367 199.993 72.6543 200.035L72.666 200.061L72.7036 200.151C72.7197 200.19 72.7349 200.231 72.7476 200.274L72.7603 200.333L72.7656 200.357L72.7812 200.429C72.7861 200.454 72.79 200.479 72.7935 200.506L72.7979 200.55C73.0063 201.105 73.2979 201.453 73.7451 201.425C73.8276 201.415 73.9097 201.397 73.9893 201.372C74.0308 201.352 74.0898 201.332 74.1343 201.312L74.2275 201.277L74.2866 201.252L74.3525 201.22C74.3862 201.203 74.4194 201.184 74.4517 201.165C74.5273 201.132 74.5981 201.088 74.6616 201.035C74.6978 201.014 74.7329 200.991 74.7676 200.967C74.8027 200.942 74.8374 200.916 74.8711 200.889L74.8984 200.864L74.9346 200.828L74.9727 200.791L74.9976 200.768C75.0645 200.712 75.123 200.648 75.1714 200.576C75.2261 200.515 75.2808 200.455 75.3291 200.384C75.3481 200.357 75.3662 200.33 75.3838 200.302C75.4121 200.258 75.4385 200.211 75.4629 200.165L75.5 200.089L75.5176 200.051C75.5352 200.013 75.5532 199.975 75.5737 199.935L75.5864 199.904L75.5952 199.882L75.6094 199.845L75.6396 199.767L75.6543 199.733L75.6685 199.704C76.6069 196.61 72.7104 194.48 70.5254 194.75C70.792 194.428 71.0566 194.098 71.2397 193.831C71.3672 193.645 71.4556 193.49 71.4775 193.391L71.4814 193.357C70.9043 193.448 70.3384 193.587 69.7778 193.769C69.0513 194.061 68.3057 194.4 67.978 194.552L67.9707 194.543C67.106 195.011 66.3066 195.59 65.5923 196.265C61.8794 199.851 61.1655 205.563 63.895 210.008L63.6475 209.822L63.4043 209.618C63.3174 209.544 63.231 209.469 63.1489 209.391L63.1416 209.382C63.0571 209.316 62.981 209.243 62.9106 209.18L62.8818 209.145C62.8057 209.072 62.7295 208.999 62.6689 208.927L62.6543 208.913C62.5688 208.827 62.4834 208.741 62.4062 208.648L62.2856 208.505C62.2676 208.483 62.2451 208.461 62.2222 208.439C62.1992 208.417 62.1763 208.395 62.1572 208.373L62.1289 208.336L62.1079 208.306L62.1045 208.3L62.1001 208.294L62.0957 208.289L62.0898 208.28C62.0713 208.253 62.0532 208.228 62.0322 208.203L61.9277 208.078C61.876 208.017 61.8398 207.956 61.7866 207.893L61.7822 207.887C61.7539 207.853 61.7251 207.818 61.6992 207.771C61.646 207.708 61.6025 207.639 61.5425 207.567C61.5376 207.555 61.5317 207.544 61.5254 207.534C61.5132 207.515 61.499 207.497 61.4849 207.48L61.3413 207.251C61.3184 207.224 61.2964 207.198 61.2808 207.165L61.2417 207.104L61.2002 207.035C61.168 206.982 61.1362 206.929 61.0996 206.876L61.0854 206.859L60.9287 206.564L60.9072 206.539L60.7588 206.254L60.7534 206.244L60.7476 206.229C60.7446 206.221 60.7417 206.213 60.7388 206.209C60.687 206.114 60.6401 206.017 60.5981 205.917L60.5767 205.891L60.5586 205.848C60.5186 205.752 60.481 205.664 60.4385 205.581C60.4399 205.564 60.4326 205.556 60.4326 205.556L60.2891 205.221L60.2378 205.077C60.2148 205.013 60.1919 204.949 60.1699 204.881L60.147 204.815L60.1162 204.731C60.0918 204.666 60.0684 204.603 60.0503 204.54L60.0078 204.403L60.0039 204.391C59.9839 204.326 59.9639 204.261 59.9399 204.192L59.9497 204.184L59.938 204.144L59.9351 204.135L59.9307 204.12C59.9116 204.054 59.8916 203.986 59.875 203.919L59.8564 203.839C59.8457 203.812 59.8379 203.783 59.8315 203.754C59.833 203.739 59.8247 203.729 59.8262 203.713C59.4258 202.04 59.4233 200.297 59.8188 198.623C59.835 198.574 59.8486 198.523 59.8618 198.471C59.8716 198.434 59.8804 198.396 59.8892 198.357L59.9053 198.291C59.9062 198.277 59.9106 198.263 59.9155 198.25C59.9204 198.236 59.9258 198.223 59.9287 198.209L59.9307 198.196C59.9551 198.096 59.9824 197.996 60.0127 197.897L59.9424 197.866L59.9321 197.874L59.6035 198.241L59.5947 198.248C59.3936 198.478 59.1997 198.716 59.0059 198.955L58.9814 198.983L58.9551 199.016L58.9106 199.074L58.8716 199.128L58.8613 199.144L58.8467 199.165L58.7446 199.297C58.7173 199.327 58.6919 199.359 58.6665 199.392C58.6406 199.424 58.6147 199.457 58.5869 199.488C58.5493 199.551 58.5044 199.606 58.4648 199.666C57.7549 200.629 57.1377 201.646 56.5991 202.688C56.3945 199.539 56.9946 196.389 58.3423 193.535C57.377 194.467 56.4951 195.493 55.7471 196.608C53.0527 200.661 52.0571 205.61 52.9751 210.389C51.6118 208.02 50.7886 205.379 50.5654 202.655C50.3862 203.257 50.2383 203.867 50.1216 204.482C49.9878 205.19 49.896 205.906 49.8467 206.626C49.5996 210.378 50.5068 214.117 52.4468 217.338C50.9639 216.184 49.6577 214.808 48.5884 213.265C49.6841 227.621 63.376 231.971 67.896 232.349L67.9263 232.361C67.9307 232.363 67.9351 232.365 67.939 232.368C67.9429 232.371 67.9468 232.374 67.9507 232.379L67.9517 232.368L67.9507 232.362L67.9448 232.354L67.9517 232.361C67.9551 232.363 67.959 232.363 67.9692 232.363C67.8799 232.257 67.7993 232.143 67.7178 232.028C67.5752 231.808 67.438 231.584 67.3066 231.357C67.1855 231.126 67.0752 230.883 66.9634 230.642C66.9258 230.546 66.8882 230.447 66.8521 230.348C66.7979 230.198 66.7466 230.045 66.7017 229.893C66.6279 229.64 66.5649 229.384 66.5117 229.126C66.4175 228.611 66.3691 228.088 66.3677 227.563C66.3672 227.292 66.3901 227.03 66.4131 226.766C66.4331 226.619 66.457 226.473 66.4849 226.327L66.5396 225.978C66.5933 225.719 66.6626 225.463 66.7476 225.213C66.8257 224.961 66.9165 224.712 67.019 224.469C67.0654 224.367 67.1128 224.268 67.1611 224.168L67.2593 223.969L67.3691 223.749C67.6284 223.285 67.9316 222.848 68.2754 222.443C68.3223 222.387 68.3706 222.333 68.4189 222.28L68.5234 222.167C68.6011 222.085 68.6797 222.006 68.7568 221.927L68.8213 221.862C68.8813 221.804 68.9424 221.747 69.0039 221.69C69.0791 221.622 69.1558 221.554 69.2334 221.487C69.4385 221.32 69.6509 221.163 69.8696 221.015C70.0864 220.86 70.3135 220.72 70.5493 220.596L70.6753 220.526C70.7397 220.491 70.8052 220.458 70.8711 220.425C71.0024 220.361 71.1362 220.301 71.272 220.247L71.2451 220.275C71.0762 220.447 70.9087 220.617 70.7534 220.804C70.4106 221.21 70.1074 221.647 69.8472 222.11C69.7119 222.346 69.6001 222.592 69.4966 222.831C69.3848 223.076 69.2969 223.316 69.208 223.572L69.1328 223.843C69.0874 224.01 69.0449 224.178 69.0088 224.346C68.9526 224.606 68.9141 224.866 68.8911 225.128C68.8691 225.275 68.8574 225.423 68.8501 225.571L68.8447 225.714L68.8394 225.915C68.8394 226.04 68.8418 226.164 68.8457 226.287C68.8506 226.43 68.8584 226.571 68.8687 226.708C68.8726 226.751 68.8843 226.803 68.8887 226.843C68.9204 227.062 68.9502 227.278 68.9893 227.488C69.0151 227.62 69.0439 227.751 69.0762 227.881L69.0923 227.944L69.1333 228.1L69.1812 228.265L69.2188 228.386C69.2852 228.595 69.3604 228.801 69.4438 229.004C69.5371 229.244 69.6562 229.476 69.7769 229.71L69.8047 229.759C69.9302 229.976 70.0508 230.185 70.188 230.381C70.3423 230.6 70.4956 230.821 70.6597 231.016C70.7046 231.069 70.7505 231.122 70.7969 231.173L70.9028 231.287L70.9805 231.37L70.9922 231.381L71.0376 231.428C71.2227 231.613 71.4131 231.792 71.6094 231.964C71.667 232.013 71.7251 232.061 71.7847 232.108L71.8433 232.155L71.9463 232.234L72.0796 232.334C72.1328 232.373 72.187 232.412 72.2417 232.449L72.4678 232.588L72.5991 232.668L72.7104 232.735L72.8159 232.798L72.917 232.854C73.0518 232.929 73.1924 233 73.334 233.065C73.4321 233.111 73.5308 233.155 73.6284 233.198C73.877 233.292 74.124 233.389 74.3726 233.469C74.626 233.54 74.8813 233.603 75.1387 233.658L75.2798 233.68L75.4985 233.713C75.6406 233.733 75.7842 233.753 75.9297 233.77C76.0688 233.784 76.2085 233.793 76.3481 233.799C76.6328 233.788 76.917 233.771 77.1992 233.749C77.5757 233.719 77.9497 233.68 78.3179 233.632C78.4028 233.617 78.4873 233.597 78.5703 233.571C78.9702 233.511 79.3613 233.4 79.731 233.236ZM90.416 167.816L116.805 130L151.277 158.925L118.615 191.471L101.214 183.539L90.416 167.816ZM118.279 150.847L134.792 164.704L138.8 160.714L117.182 142.575L107.397 156.603L122.353 169.152L117.156 174.329L111.249 171.587L107.53 166.254L110.109 162.556L105.778 158.921L100.699 166.205L107.478 176.077L107.504 176.086L118.389 181.049L130.691 168.794L114.965 155.598L118.279 150.847ZM86.3193 126.289L120.808 92.9312L113.303 75.4858L97.7993 64.5176L58 91.3169L86.3193 126.289ZM75.7407 88.6099L88.8838 95.2803L88.916 95.2983L80.7251 85.1836L95.5732 75.0771L105.515 81.7891L105.52 81.8086L105.526 81.8032L110.013 93.0142L103.475 99.2622L99.8735 94.8145L103.269 91.5879L100.668 85.8062L100.622 85.7749L100.628 85.77L95.1831 82.0146L89.0635 86.4116L93.313 91.6934L101.243 101.553L97.1284 105.44L84.4653 98.8584L83.7285 98.4741L92.7539 109.62L88.7007 113.784L70.9043 91.8076L75.7407 88.6099ZM27.8462 176.008L4 137.846L42.1621 114L66.0083 152.162L27.8462 176.008ZM43.0332 161.812C44.0522 160.671 44.6572 159.247 44.5054 157.751C44.3999 156.038 43.4448 154.563 42.3828 152.924L42.1909 152.627C42.0698 152.439 41.9478 152.249 41.8257 152.056C40.5547 149.996 39.2925 147.984 38.0112 145.941L37.8599 145.7L37.7793 145.571C37.0908 144.474 36.3965 143.368 35.6919 142.24L32.1172 144.474C33.1372 146.106 34.1572 147.748 35.1807 149.394L36.3652 151.298C36.8633 152.098 37.3618 152.898 37.8623 153.699C39.0898 155.664 40.3018 157.376 40.3271 158.129C40.4829 159.542 39.0435 160.254 38.2944 160.429C38.1602 160.443 38.0322 160.448 37.9087 160.445C37.8325 160.444 37.7583 160.439 37.6851 160.432C37.6416 160.427 37.5986 160.422 37.5562 160.416C37.501 160.407 37.4458 160.397 37.3916 160.385C37.27 160.36 37.1509 160.327 37.0317 160.287C36.9541 160.261 36.8765 160.232 36.7983 160.201L36.7168 160.167C36.6724 160.149 36.6279 160.129 36.583 160.109C36.4336 160.042 36.2803 159.966 36.1201 159.884C35.9067 159.77 35.7441 159.679 35.7124 159.684L33.918 163.28C35.021 163.97 36.271 164.386 37.5322 164.376C39.4053 164.342 41.3931 163.449 43.0332 161.812ZM48.7524 155.89C53.2759 156.968 60.1172 152.501 58.7041 147.474C58.6641 147.297 58.3901 146.115 57.1831 144.782C55.814 143.213 53.7617 142.459 49.5405 143.198C48.0347 143.392 46.4897 143.821 45.5474 143.178C45.0864 142.749 44.8867 142.469 44.7788 142.102C44.3965 140.932 45.4082 139.86 46.5493 139.551C47.2964 139.372 48.1787 139.483 49.0054 140.022C49.7915 138.343 49.9487 138.013 50.335 137.204L50.6812 136.479C49.8516 136.088 49.4375 135.928 48.9868 135.821C47.3027 135.333 45.5947 135.606 43.4604 137L42.4253 137.85C41.5166 138.796 40.8428 140.005 40.7139 141.142C40.1875 144.325 42.9487 147.595 46.0737 147.698C47.4131 147.813 48.793 147.593 50.0439 147.394C51.769 147.119 53.248 146.883 54.0356 147.618C55.5962 149.234 54.2075 150.941 52.3188 151.823C50.8569 152.362 49.7275 152.154 48.2031 151.445L47.2944 153.157L46.3467 154.933C46.4258 154.985 46.5024 155.034 46.5776 155.079C46.647 155.12 46.7148 155.159 46.7817 155.195C46.9048 155.26 47.0244 155.318 47.1436 155.37C47.3418 155.456 47.5391 155.527 47.748 155.594C48.0464 155.689 48.3687 155.776 48.7524 155.89ZM231.505 279.751C231.657 281.247 231.052 282.671 230.033 283.812C228.393 285.449 226.405 286.342 224.532 286.376C223.271 286.386 222.021 285.97 220.918 285.28L222.712 281.684C222.738 281.68 222.85 281.739 223.005 281.822L223.022 281.831L223.039 281.84L223.046 281.844L223.12 281.884C223.879 282.273 224.473 282.513 225.294 282.429C226.043 282.254 227.483 281.542 227.327 280.129C227.316 279.787 227.06 279.248 226.668 278.576C226.373 278.069 226 277.486 225.598 276.857C225.36 276.485 225.111 276.097 224.862 275.699C224.144 274.55 223.429 273.401 222.716 272.254L221.939 271.005C220.997 269.489 220.057 267.978 219.117 266.474L222.692 264.24C224.791 267.598 226.796 270.767 228.826 274.056L229.001 274.333L229.25 274.718L229.257 274.73L229.356 274.884L229.383 274.924C230.445 276.563 231.4 278.038 231.505 279.751ZM19.314 79.4604C17.2725 79.6235 15.2305 79.1562 13.4629 78.1216C11.6958 77.0869 10.2881 75.5347 9.43115 73.6748C8.89941 72.5625 8.59521 71.3555 8.53613 70.1245C8.47656 68.8931 8.66406 67.6626 9.08691 66.5049C9.14893 66.3389 9.21582 66.1748 9.2876 66.0127C9.37988 65.8042 9.47998 65.5996 9.58838 65.3989L9.94727 64.7275L10.502 65.3057C11.7793 66.6426 13.2754 67.7515 14.9258 68.5845L15.3623 68.8057L15.2368 69.2593C15.0659 69.9038 15.1284 70.5874 15.4136 71.1899C15.6714 71.75 16.0947 72.2178 16.627 72.5298C16.8203 72.6431 17.0249 72.7339 17.2363 72.8013C17.6064 72.9194 17.998 72.9653 18.3896 72.9341C18.6714 72.9102 18.9478 72.8433 19.2095 72.7354L33.0083 67.0181C33.3447 66.8804 33.6494 66.6738 33.9019 66.4116C34.1543 66.1499 34.3496 65.8384 34.4756 65.4966C34.603 65.1475 34.6597 64.7769 34.6421 64.4053C34.6245 64.0342 34.5332 63.6704 34.374 63.335C34.2534 63.0737 34.0972 62.8325 33.9106 62.6182C33.6968 62.3726 33.4438 62.1616 33.1602 61.9951C32.6279 61.6831 32.0127 61.542 31.3979 61.5903C31.1162 61.6143 30.8394 61.6816 30.5781 61.7891L25.3125 63.9727C24.4468 64.3306 23.5317 64.5542 22.5986 64.6357C20.5571 64.7988 18.5151 64.332 16.7476 63.2979C14.98 62.2637 13.5728 60.7119 12.7153 58.8521C12.1836 57.7397 11.8794 56.5322 11.8208 55.3008C11.7622 54.0693 11.9502 52.8384 12.3735 51.6802C12.4468 51.481 12.5269 51.2847 12.6143 51.0918C12.7485 50.7959 12.8989 50.5078 13.0649 50.2295C13.1494 50.0879 13.2378 49.9487 13.3301 49.812C13.4141 49.6875 13.5015 49.5654 13.5918 49.4458C13.8037 49.165 14.0332 48.8965 14.2788 48.6421C15.1187 47.7725 16.1304 47.0884 17.2495 46.6323L31.0464 40.9121C31.6064 40.6807 32.1875 40.5054 32.7808 40.3882C32.9561 40.3535 33.1323 40.3237 33.3096 40.2993C33.4595 40.2788 33.6099 40.2622 33.7607 40.249C35.8022 40.0859 37.8442 40.5537 39.6118 41.5884C41.3789 42.623 42.7861 44.1748 43.6436 46.0347C44.1753 47.147 44.4795 48.354 44.5386 49.585C44.5977 50.8164 44.4106 52.0469 43.9878 53.2046C43.8457 53.5845 43.6782 53.9541 43.4863 54.311L43.1274 54.9819L42.5752 54.4043C41.2974 53.0664 39.8008 51.9565 38.1494 51.123L37.7124 50.9019L37.8379 50.4502C38.0088 49.8052 37.9463 49.1206 37.6616 48.5176C37.4033 47.9575 36.9795 47.4902 36.4473 47.1787C35.915 46.8672 35.2998 46.7261 34.6851 46.7754C34.5376 46.7881 34.3911 46.8125 34.248 46.8481C34.1738 46.8667 34.1001 46.8882 34.0278 46.9131C33.9731 46.9316 33.9189 46.9521 33.8652 46.9741L20.0664 52.6914C19.8794 52.7681 19.7021 52.8657 19.5386 52.9824C19.4712 53.0303 19.4062 53.0815 19.3438 53.1353C19.2842 53.1865 19.2271 53.2407 19.1724 53.2974C18.9199 53.5596 18.7246 53.8711 18.5991 54.2129C18.5718 54.2876 18.5479 54.3633 18.5269 54.4399C18.5073 54.5127 18.4902 54.5864 18.4766 54.6606C18.437 54.8721 18.4219 55.0879 18.4321 55.3042C18.4497 55.6753 18.541 56.0391 18.7007 56.3745C18.959 56.9351 19.3823 57.4028 19.9146 57.7144C20.4468 58.0264 21.062 58.1675 21.6768 58.1191C21.9595 58.0947 22.2368 58.0269 22.499 57.9185L27.7627 55.7349C28.6279 55.377 29.543 55.1543 30.4761 55.0737C32.5176 54.9106 34.5596 55.3774 36.3271 56.4116C38.0942 57.4458 39.502 58.9976 40.3594 60.8574C40.8911 61.9697 41.1953 63.1772 41.2539 64.4087C41.3125 65.6401 41.1245 66.8711 40.7012 68.0293C40.2842 69.1636 39.6353 70.1992 38.7954 71.0684C37.9556 71.938 36.9438 72.623 35.8247 73.0796L22.0278 78.7974C21.1626 79.1553 20.2471 79.3794 19.314 79.4604ZM49.3237 43.6797C45.6274 35.729 36.2285 31.9092 28.374 35.1646L14.5752 40.8818C12.7139 41.6406 11.0317 42.7798 9.63574 44.2256C8.23975 45.6719 7.16064 47.3931 6.46777 49.2798C5.29688 52.458 5.22021 55.936 6.24902 59.1626C4.90283 60.5854 3.85938 62.2666 3.18115 64.104C2.47754 66.0293 2.16602 68.0757 2.26367 70.1235C2.36182 72.1709 2.86719 74.1782 3.75146 76.0273C7.44971 83.979 16.8462 87.7979 24.7007 84.5449L38.4995 78.8276C40.3608 78.0688 42.0435 76.9302 43.4395 75.4839C44.8354 74.0381 45.9141 72.3164 46.6069 70.4297C47.7778 67.252 47.8555 63.7744 46.8276 60.5474C48.1724 59.1235 49.2144 57.4424 49.8911 55.605C50.5957 53.6797 50.9082 51.6328 50.8105 49.585C50.7134 47.5371 50.2075 45.5293 49.3237 43.6797ZM154.462 46.3354L160.757 51.6172L151.256 56.5483L154.462 46.3354ZM163.63 76.8057L141.236 68.4893L129.158 47.8804L150.91 27.2959L172.305 31.4624L180.124 51.8096L163.63 76.8057ZM158.203 34.5835L154.186 31.2124L144.669 64.3979L175.698 49.2637L171.681 45.8926L164.979 49.481L155.833 41.8066L158.203 34.5835ZM209.785 65L209.46 83.6348L216.048 87.6128L209.325 91.3584L209 109.993L248.349 88.1768L209.785 65ZM232.771 87.9048L210.331 100.34L210.476 92.0352L218.391 87.6538L210.634 82.999L210.779 74.6938L232.771 87.9048Z" fill="white" fill-opacity="0.05"/>
</g>
<defs>
<clipPath id="clip0_217_448">
<rect width="260" height="260" fill="white"/>
</clipPath>
</defs>
</svg>
