<svg width="260" height="260" viewBox="0 0 260 260" fill="none" xmlns="http://www.w3.org/2000/svg">
<g clip-path="url(#clip0_217_448)">
<path d="M78.6405 -2.5037C77.9345 -2.09589 77.192 -0.973698 77.1048 1.4788C77.0801 2.03433 76.837 2.55762 76.4284 2.93482C76.0198 3.31201 75.4788 3.51261 74.923 3.49296C74.3673 3.47331 73.8418 3.23501 73.4609 2.82989C73.0799 2.42478 72.8744 1.88563 72.8889 1.32974C72.9958 -1.67401 73.9464 -4.6637 76.5311 -6.15714C79.1242 -7.65339 82.1983 -6.97276 84.8589 -5.55526C85.3527 -5.29195 85.7217 -4.84326 85.8847 -4.30791C86.0476 -3.77255 85.9913 -3.19437 85.728 -2.70057C85.4647 -2.20677 85.016 -1.8378 84.4806 -1.67482C83.9453 -1.51184 83.3671 -1.5682 82.8733 -1.83151C80.6992 -2.99307 79.3492 -2.9087 78.6405 -2.5037ZM89.9495 1.15255C90.163 0.97599 90.4092 0.843207 90.674 0.761786C90.9388 0.680365 91.217 0.6519 91.4928 0.678017C91.7686 0.704134 92.0365 0.784321 92.2813 0.913999C92.5261 1.04368 92.743 1.22031 92.9195 1.4338C94.5673 3.43276 96.0443 5.5665 97.3352 7.81255C100.26 12.8807 102.063 18.0726 102.55 22.4263C102.791 24.6004 102.718 26.6704 102.212 28.4451C101.697 30.231 100.702 31.8482 99.0311 32.8129C97.0089 33.9801 94.6717 33.8169 92.537 33.0379C90.3939 32.256 88.1861 30.7794 86.0823 28.8585C85.6754 28.4798 85.4344 27.9558 85.4117 27.4004C85.389 26.845 85.5864 26.3031 85.9611 25.8925C86.3358 25.4819 86.8574 25.2357 87.4125 25.2076C87.9677 25.1795 88.5115 25.3716 88.9258 25.7422C90.782 27.4354 92.523 28.5435 93.9798 29.0722C95.448 29.6066 96.3705 29.4801 96.9217 29.1594C97.383 28.8922 97.8498 28.3494 98.1536 27.2835C98.463 26.2035 98.5614 24.7241 98.3561 22.896C97.9483 19.2426 96.3873 14.6076 93.6789 9.92193C92.5069 7.88227 91.1663 5.94426 89.6711 4.12818C89.4945 3.9147 89.3617 3.66854 89.2803 3.40375C89.1989 3.13896 89.1704 2.86072 89.1966 2.58492C89.2227 2.30913 89.3029 2.04118 89.4325 1.79638C89.5622 1.55157 89.7388 1.33471 89.9523 1.15818L89.9495 1.15255Z" fill="black" fill-opacity="0.05"/>
<path d="M260.64 191.496C259.935 191.904 259.192 193.026 259.105 195.479C259.08 196.034 258.837 196.558 258.428 196.935C258.02 197.312 257.479 197.513 256.923 197.493C256.367 197.473 255.842 197.235 255.461 196.83C255.08 196.425 254.874 195.886 254.889 195.33C254.996 192.326 255.946 189.336 258.531 187.843C261.124 186.347 264.198 187.027 266.859 188.445C267.353 188.708 267.722 189.157 267.885 189.692C268.048 190.227 267.991 190.806 267.728 191.299C267.465 191.793 267.016 192.162 266.481 192.325C265.945 192.488 265.367 192.432 264.873 192.168C262.699 191.007 261.349 191.091 260.64 191.496ZM271.95 195.153C272.163 194.976 272.409 194.843 272.674 194.762C272.939 194.68 273.217 194.652 273.493 194.678C273.769 194.704 274.037 194.784 274.281 194.914C274.526 195.044 274.743 195.22 274.92 195.434C276.567 197.433 278.044 199.566 279.335 201.813C282.26 206.881 284.063 212.073 284.55 216.426C284.791 218.6 284.718 220.67 284.212 222.445C283.697 224.231 282.702 225.848 281.031 226.813C279.009 227.98 276.672 227.817 274.537 227.038C272.394 226.256 270.186 224.779 268.082 222.858C267.675 222.48 267.434 221.956 267.412 221.4C267.389 220.845 267.586 220.303 267.961 219.892C268.336 219.482 268.857 219.236 269.413 219.208C269.968 219.179 270.512 219.372 270.926 219.742C272.782 221.435 274.523 222.543 275.98 223.072C277.448 223.607 278.37 223.48 278.922 223.159C279.383 222.892 279.85 222.349 280.154 221.283C280.463 220.203 280.561 218.724 280.356 216.896C279.948 213.243 278.387 208.608 275.679 203.922C274.507 201.882 273.166 199.944 271.671 198.128C271.495 197.915 271.362 197.669 271.28 197.404C271.199 197.139 271.17 196.861 271.197 196.585C271.223 196.309 271.303 196.041 271.433 195.796C271.562 195.552 271.739 195.335 271.952 195.158L271.95 195.153Z" fill="black" fill-opacity="0.05"/>
<path d="M0.640468 195.496C-0.0654697 195.904 -0.80797 197.026 -0.895157 199.479C-0.919912 200.034 -1.16303 200.558 -1.57163 200.935C-1.98023 201.312 -2.52124 201.513 -3.07698 201.493C-3.63271 201.473 -4.15821 201.235 -4.53914 200.83C-4.92008 200.425 -5.12564 199.886 -5.11109 199.33C-5.00422 196.326 -4.05359 193.336 -1.46891 191.843C1.12422 190.347 4.19828 191.027 6.8589 192.445C7.35271 192.708 7.72168 193.157 7.88466 193.692C8.04764 194.227 7.99128 194.806 7.72797 195.299C7.46466 195.793 7.01597 196.162 6.48061 196.325C5.94526 196.488 5.36708 196.432 4.87328 196.168C2.69922 195.007 1.34922 195.091 0.640468 195.496ZM11.9495 199.153C12.163 198.976 12.4092 198.843 12.674 198.762C12.9388 198.68 13.217 198.652 13.4928 198.678C13.7686 198.704 14.0365 198.784 14.2813 198.914C14.5261 199.044 14.743 199.22 14.9195 199.434C16.5673 201.433 18.0443 203.566 19.3352 205.813C22.2602 210.881 24.063 216.073 24.5495 220.426C24.7914 222.6 24.7183 224.67 24.212 226.445C23.6973 228.231 22.7017 229.848 21.0311 230.813C19.0089 231.98 16.6717 231.817 14.537 231.038C12.3939 230.256 10.1861 228.779 8.08234 226.858C7.6754 226.48 7.43438 225.956 7.41168 225.4C7.38897 224.845 7.58642 224.303 7.96109 223.892C8.33577 223.482 8.85738 223.236 9.41254 223.208C9.96769 223.179 10.5115 223.372 10.9258 223.742C12.782 225.435 14.523 226.543 15.9798 227.072C17.448 227.607 18.3705 227.48 18.9217 227.159C19.383 226.892 19.8498 226.349 20.1536 225.283C20.463 224.203 20.5614 222.724 20.3561 220.896C19.9483 217.243 18.3873 212.608 15.6789 207.922C14.5069 205.882 13.1663 203.944 11.6711 202.128C11.4945 201.915 11.3617 201.669 11.2803 201.404C11.1989 201.139 11.1704 200.861 11.1966 200.585C11.2227 200.309 11.3029 200.041 11.4325 199.796C11.5622 199.552 11.7388 199.335 11.9523 199.158L11.9495 199.153Z" fill="black" fill-opacity="0.05"/>
<path d="M78.6405 257.496C77.9345 257.904 77.192 259.026 77.1048 261.479C77.0801 262.034 76.837 262.558 76.4284 262.935C76.0198 263.312 75.4788 263.513 74.923 263.493C74.3673 263.473 73.8418 263.235 73.4609 262.83C73.0799 262.425 72.8744 261.886 72.8889 261.33C72.9958 258.326 73.9464 255.336 76.5311 253.843C79.1242 252.347 82.1983 253.027 84.8589 254.445C85.3527 254.708 85.7217 255.157 85.8847 255.692C86.0476 256.227 85.9913 256.806 85.728 257.299C85.4647 257.793 85.016 258.162 84.4806 258.325C83.9453 258.488 83.3671 258.432 82.8733 258.168C80.6992 257.007 79.3492 257.091 78.6405 257.496ZM89.9495 261.153C90.163 260.976 90.4092 260.843 90.674 260.762C90.9388 260.68 91.217 260.652 91.4928 260.678C91.7686 260.704 92.0365 260.784 92.2813 260.914C92.5261 261.044 92.743 261.22 92.9195 261.434C94.5673 263.433 96.0443 265.566 97.3352 267.813C100.26 272.881 102.063 278.073 102.55 282.426C102.791 284.6 102.718 286.67 102.212 288.445C101.697 290.231 100.702 291.848 99.0311 292.813C97.0089 293.98 94.6717 293.817 92.537 293.038C90.3939 292.256 88.1861 290.779 86.0823 288.858C85.6754 288.48 85.4344 287.956 85.4117 287.4C85.389 286.845 85.5864 286.303 85.9611 285.892C86.3358 285.482 86.8574 285.236 87.4125 285.208C87.9677 285.179 88.5115 285.372 88.9258 285.742C90.782 287.435 92.523 288.543 93.9798 289.072C95.448 289.607 96.3705 289.48 96.9217 289.159C97.383 288.892 97.8498 288.349 98.1536 287.283C98.463 286.203 98.5614 284.724 98.3561 282.896C97.9483 279.243 96.3873 274.608 93.6789 269.922C92.5069 267.882 91.1663 265.944 89.6711 264.128C89.4945 263.915 89.3617 263.669 89.2803 263.404C89.1989 263.139 89.1704 262.861 89.1966 262.585C89.2227 262.309 89.3029 262.041 89.4325 261.796C89.5622 261.552 89.7388 261.335 89.9523 261.158L89.9495 261.153Z" fill="black" fill-opacity="0.05"/>
<path d="M105.781 13.9045C105.781 13.0889 105.179 11.8823 103.101 10.5858C102.866 10.4389 102.662 10.2473 102.501 10.0217C102.34 9.79606 102.225 9.54095 102.163 9.2709C102.1 9.00086 102.092 8.72117 102.137 8.44779C102.183 8.17442 102.282 7.91271 102.429 7.67763C102.725 7.20285 103.198 6.8653 103.744 6.73924C104.014 6.67682 104.293 6.6682 104.567 6.71388C104.84 6.75955 105.102 6.85863 105.337 7.00544C107.885 8.60013 110 10.9176 110 13.9045C110 16.897 107.874 19.2201 105.314 20.8148C104.84 21.0996 104.273 21.1864 103.735 21.0567C103.197 20.927 102.731 20.5911 102.439 20.1214C102.146 19.6517 102.05 19.0859 102.17 18.5458C102.291 18.0058 102.619 17.5349 103.084 17.2345C105.177 15.9295 105.781 14.7201 105.781 13.9045ZM96.9584 21.8695C97.0048 22.1426 96.9969 22.4222 96.9353 22.6923C96.8736 22.9624 96.7593 23.2177 96.5989 23.4436C96.4386 23.6695 96.2353 23.8616 96.0007 24.009C95.766 24.1563 95.5047 24.256 95.2316 24.3023C92.6764 24.7269 90.0902 24.9377 87.5 24.9323C81.65 24.9323 76.25 23.9001 72.2366 22.1423C70.2312 21.2676 68.4791 20.1679 67.1966 18.8404C65.9 17.5045 65 15.8311 65 13.9045C65 11.5701 66.3106 9.6295 68.0516 8.167C69.8009 6.70169 72.1859 5.52888 74.9 4.66825C75.4333 4.49893 76.0121 4.5484 76.5089 4.8058C76.755 4.93325 76.9735 5.1079 77.152 5.3198C77.3305 5.53169 77.4655 5.77667 77.5494 6.04075C77.6332 6.30483 77.6642 6.58284 77.6406 6.8589C77.617 7.13497 77.5393 7.40368 77.4118 7.64969C77.2844 7.89571 77.1097 8.11422 76.8978 8.29273C76.6859 8.47125 76.441 8.60629 76.1769 8.69013C73.7863 9.4495 71.9525 10.4029 70.7656 11.4014C69.5675 12.4026 69.2188 13.2661 69.2188 13.9045C69.2188 14.4389 69.4578 15.1139 70.2284 15.9098C71.0103 16.717 72.2422 17.5411 73.9269 18.2779C77.2934 19.7517 82.0888 20.7136 87.5 20.7136C89.9891 20.7136 92.3572 20.5111 94.5256 20.1426C94.7988 20.0962 95.0784 20.1041 95.3484 20.1658C95.6185 20.2275 95.8738 20.3418 96.0997 20.5021C96.3256 20.6625 96.5178 20.8658 96.6651 21.1004C96.8124 21.335 96.9121 21.5964 96.9584 21.8695Z" fill="black" fill-opacity="0.05"/>
<path d="M287.781 207.905C287.781 207.089 287.179 205.882 285.101 204.586C284.866 204.439 284.662 204.247 284.501 204.022C284.34 203.796 284.225 203.541 284.163 203.271C284.1 203.001 284.092 202.721 284.137 202.448C284.183 202.174 284.282 201.913 284.429 201.678C284.725 201.203 285.198 200.865 285.744 200.739C286.014 200.677 286.293 200.668 286.567 200.714C286.84 200.76 287.102 200.859 287.337 201.005C289.885 202.6 292 204.918 292 207.905C292 210.897 289.874 213.22 287.314 214.815C286.84 215.1 286.273 215.186 285.735 215.057C285.197 214.927 284.731 214.591 284.439 214.121C284.146 213.652 284.05 213.086 284.17 212.546C284.291 212.006 284.619 211.535 285.084 211.235C287.177 209.93 287.781 208.72 287.781 207.905ZM278.958 215.87C279.005 216.143 278.997 216.422 278.935 216.692C278.874 216.962 278.759 217.218 278.599 217.444C278.439 217.67 278.235 217.862 278.001 218.009C277.766 218.156 277.505 218.256 277.232 218.302C274.676 218.727 272.09 218.938 269.5 218.932C263.65 218.932 258.25 217.9 254.237 216.142C252.231 215.268 250.479 214.168 249.197 212.84C247.9 211.505 247 209.831 247 207.905C247 205.57 248.311 203.63 250.052 202.167C251.801 200.702 254.186 199.529 256.9 198.668C257.433 198.499 258.012 198.548 258.509 198.806C258.755 198.933 258.973 199.108 259.152 199.32C259.331 199.532 259.466 199.777 259.549 200.041C259.633 200.305 259.664 200.583 259.641 200.859C259.617 201.135 259.539 201.404 259.412 201.65C259.284 201.896 259.11 202.114 258.898 202.293C258.686 202.471 258.441 202.606 258.177 202.69C255.786 203.45 253.952 204.403 252.766 205.401C251.567 206.403 251.219 207.266 251.219 207.905C251.219 208.439 251.458 209.114 252.228 209.91C253.01 210.717 254.242 211.541 255.927 212.278C259.293 213.752 264.089 214.714 269.5 214.714C271.989 214.714 274.357 214.511 276.526 214.143C276.799 214.096 277.078 214.104 277.348 214.166C277.619 214.227 277.874 214.342 278.1 214.502C278.326 214.663 278.518 214.866 278.665 215.1C278.812 215.335 278.912 215.596 278.958 215.87Z" fill="black" fill-opacity="0.05"/>
<path d="M27.7812 211.905C27.7812 211.089 27.1794 209.882 25.1009 208.586C24.8659 208.439 24.662 208.247 24.501 208.022C24.34 207.796 24.225 207.541 24.1626 207.271C24.1001 207.001 24.0915 206.721 24.1372 206.448C24.1829 206.174 24.2819 205.913 24.4287 205.678C24.7253 205.203 25.1982 204.865 25.7436 204.739C26.0136 204.677 26.2933 204.668 26.5667 204.714C26.8401 204.76 27.1018 204.859 27.3369 205.005C29.885 206.6 32 208.918 32 211.905C32 214.897 29.8737 217.22 27.3144 218.815C26.8399 219.1 26.2725 219.186 25.7346 219.057C25.1966 218.927 24.7312 218.591 24.4386 218.121C24.146 217.652 24.0497 217.086 24.1704 216.546C24.2912 216.006 24.6193 215.535 25.0841 215.235C27.1766 213.93 27.7812 212.72 27.7812 211.905ZM18.9584 219.87C19.0048 220.143 18.9969 220.422 18.9353 220.692C18.8736 220.962 18.7593 221.218 18.5989 221.444C18.4386 221.67 18.2353 221.862 18.0007 222.009C17.766 222.156 17.5047 222.256 17.2316 222.302C14.6764 222.727 12.0902 222.938 9.5 222.932C3.65 222.932 -1.75 221.9 -5.76344 220.142C-7.76875 219.268 -9.52094 218.168 -10.8034 216.84C-12.1 215.505 -13 213.831 -13 211.905C-13 209.57 -11.6894 207.63 -9.94844 206.167C-8.19906 204.702 -5.81406 203.529 -3.1 202.668C-2.56667 202.499 -1.98791 202.548 -1.49106 202.806C-1.24504 202.933 -1.02654 203.108 -0.848018 203.32C-0.669499 203.532 -0.534466 203.777 -0.450625 204.041C-0.366784 204.305 -0.335779 204.583 -0.359379 204.859C-0.382979 205.135 -0.460723 205.404 -0.588172 205.65C-0.71562 205.896 -0.890276 206.114 -1.10217 206.293C-1.31406 206.471 -1.55904 206.606 -1.82312 206.69C-4.21375 207.45 -6.0475 208.403 -7.23438 209.401C-8.4325 210.403 -8.78125 211.266 -8.78125 211.905C-8.78125 212.439 -8.54219 213.114 -7.77156 213.91C-6.98969 214.717 -5.75781 215.541 -4.07312 216.278C-0.706562 217.752 4.08875 218.714 9.5 218.714C11.9891 218.714 14.3572 218.511 16.5256 218.143C16.7988 218.096 17.0784 218.104 17.3484 218.166C17.6185 218.227 17.8738 218.342 18.0997 218.502C18.3256 218.663 18.5178 218.866 18.6651 219.1C18.8124 219.335 18.9121 219.596 18.9584 219.87Z" fill="black" fill-opacity="0.05"/>
<path d="M78.7026 29.1597C79.4057 29.5676 80.7529 29.6491 82.9185 28.4988C83.1632 28.3688 83.4311 28.2883 83.707 28.2618C83.9828 28.2353 84.2611 28.2634 84.526 28.3445C84.791 28.4256 85.0374 28.5581 85.2511 28.7344C85.4649 28.9107 85.6418 29.1274 85.7718 29.3721C85.9018 29.6168 85.9824 29.8847 86.0088 30.1605C86.0353 30.4363 86.0072 30.7146 85.9261 30.9796C85.845 31.2445 85.7125 31.4909 85.5362 31.7047C85.3599 31.9184 85.1432 32.0954 84.8985 32.2254C82.2435 33.6344 79.1779 34.3066 76.5932 32.816C74.0001 31.3169 73.0495 28.316 72.951 25.301C72.9408 24.7471 73.1489 24.2114 73.5304 23.8096C73.9118 23.4079 74.436 23.1723 74.9897 23.1539C75.5434 23.1354 76.0822 23.3355 76.4895 23.7109C76.8969 24.0864 77.1403 24.607 77.167 25.1604C77.2514 27.6213 77.9939 28.7519 78.7026 29.1597ZM76.2164 17.5357C75.692 17.3409 75.2665 16.9459 75.0334 16.4375C74.8003 15.929 74.7786 15.3488 74.9732 14.8244C75.8226 12.5322 76.9335 10.1641 78.292 7.81287C81.217 2.74475 84.8114 -1.41213 88.3382 -4.01088C90.0989 -5.30744 91.927 -6.27776 93.7185 -6.72494C95.5214 -7.17494 97.4226 -7.12151 99.0904 -6.15682C101.115 -4.98963 102.139 -2.88588 102.533 -0.644318C102.929 1.60287 102.752 4.25224 102.139 7.03381C102.09 7.31362 101.984 7.58051 101.829 7.81848C101.673 8.05645 101.471 8.26058 101.235 8.41862C100.999 8.57666 100.733 8.68534 100.454 8.73816C100.175 8.79097 99.888 8.78683 99.6104 8.72597C99.3328 8.6651 99.0704 8.54878 98.8389 8.38398C98.6074 8.21918 98.4116 8.00931 98.2632 7.76695C98.1148 7.52459 98.0169 7.25475 97.9754 6.97363C97.9339 6.6925 97.9497 6.40589 98.0217 6.13099C98.5589 3.6785 98.6489 1.61412 98.3789 0.0841198C98.1089 -1.45151 97.5351 -2.18557 96.9839 -2.50338C96.5226 -2.77057 95.8167 -2.90276 94.7423 -2.63276C93.651 -2.35994 92.3235 -1.70463 90.8414 -0.613381C87.8826 1.56349 84.6482 5.23662 81.9454 9.92225C80.7627 11.9573 79.7532 14.0883 78.9276 16.2926C78.7329 16.8169 78.3378 17.2424 77.8294 17.4755C77.321 17.7086 76.7407 17.7303 76.2164 17.5357Z" fill="black" fill-opacity="0.05"/>
<path d="M260.703 223.16C261.406 223.568 262.753 223.649 264.919 222.499C265.163 222.369 265.431 222.288 265.707 222.262C265.983 222.235 266.261 222.263 266.526 222.345C266.791 222.426 267.037 222.558 267.251 222.734C267.465 222.911 267.642 223.127 267.772 223.372C267.902 223.617 267.982 223.885 268.009 224.16C268.035 224.436 268.007 224.715 267.926 224.98C267.845 225.245 267.713 225.491 267.536 225.705C267.36 225.918 267.143 226.095 266.899 226.225C264.244 227.634 261.178 228.307 258.593 226.816C256 225.317 255.049 222.316 254.951 219.301C254.941 218.747 255.149 218.211 255.53 217.81C255.912 217.408 256.436 217.172 256.99 217.154C257.543 217.135 258.082 217.336 258.49 217.711C258.897 218.086 259.14 218.607 259.167 219.16C259.251 221.621 259.994 222.752 260.703 223.16ZM258.216 211.536C257.692 211.341 257.267 210.946 257.033 210.437C256.8 209.929 256.779 209.349 256.973 208.824C257.823 206.532 258.934 204.164 260.292 201.813C263.217 196.745 266.811 192.588 270.338 189.989C272.099 188.693 273.927 187.722 275.719 187.275C277.521 186.825 279.423 186.878 281.09 187.843C283.115 189.01 284.139 191.114 284.533 193.356C284.929 195.603 284.752 198.252 284.139 201.034C284.09 201.314 283.984 201.581 283.829 201.818C283.673 202.056 283.471 202.261 283.235 202.419C282.999 202.577 282.733 202.685 282.454 202.738C282.175 202.791 281.888 202.787 281.61 202.726C281.333 202.665 281.07 202.549 280.839 202.384C280.607 202.219 280.412 202.009 280.263 201.767C280.115 201.525 280.017 201.255 279.975 200.974C279.934 200.693 279.95 200.406 280.022 200.131C280.559 197.678 280.649 195.614 280.379 194.084C280.109 192.548 279.535 191.814 278.984 191.497C278.523 191.229 277.817 191.097 276.742 191.367C275.651 191.64 274.324 192.295 272.841 193.387C269.883 195.563 266.648 199.237 263.945 203.922C262.763 205.957 261.753 208.088 260.928 210.293C260.733 210.817 260.338 211.242 259.829 211.476C259.321 211.709 258.741 211.73 258.216 211.536Z" fill="black" fill-opacity="0.05"/>
<path d="M0.702606 227.16C1.40573 227.568 2.75292 227.649 4.91854 226.499C5.16323 226.369 5.43113 226.288 5.70695 226.262C5.98277 226.235 6.2611 226.263 6.52605 226.345C6.791 226.426 7.03738 226.558 7.25113 226.734C7.46489 226.911 7.64182 227.127 7.77182 227.372C7.90183 227.617 7.98237 227.885 8.00885 228.16C8.03532 228.436 8.00721 228.715 7.92612 228.98C7.84503 229.245 7.71254 229.491 7.53623 229.705C7.35992 229.918 7.14323 230.095 6.89854 230.225C4.24354 231.634 1.17792 232.307 -1.40677 230.816C-3.99989 229.317 -4.95052 226.316 -5.04896 223.301C-5.05918 222.747 -4.85108 222.211 -4.46962 221.81C-4.08815 221.408 -3.56395 221.172 -3.01026 221.154C-2.45657 221.135 -1.91784 221.336 -1.51045 221.711C-1.10307 222.086 -0.859731 222.607 -0.833019 223.16C-0.748643 225.621 -0.00614357 226.752 0.702606 227.16ZM-1.78364 215.536C-2.30797 215.341 -2.73348 214.946 -2.96661 214.437C-3.19973 213.929 -3.22137 213.349 -3.02677 212.824C-2.17739 210.532 -1.06646 208.164 0.29198 205.813C3.21698 200.745 6.81136 196.588 10.3382 193.989C12.0989 192.693 13.927 191.722 15.7185 191.275C17.5214 190.825 19.4226 190.878 21.0904 191.843C23.1154 193.01 24.1392 195.114 24.5329 197.356C24.9295 199.603 24.7523 202.252 24.1392 205.034C24.0896 205.314 23.9839 205.581 23.8286 205.818C23.6733 206.056 23.4715 206.261 23.2353 206.419C22.9991 206.577 22.7334 206.685 22.4542 206.738C22.175 206.791 21.888 206.787 21.6104 206.726C21.3328 206.665 21.0704 206.549 20.8389 206.384C20.6074 206.219 20.4116 206.009 20.2632 205.767C20.1148 205.525 20.0169 205.255 19.9754 204.974C19.9339 204.693 19.9497 204.406 20.0217 204.131C20.5589 201.678 20.6489 199.614 20.3789 198.084C20.1089 196.548 19.5351 195.814 18.9839 195.497C18.5226 195.229 17.8167 195.097 16.7423 195.367C15.651 195.64 14.3235 196.295 12.8414 197.387C9.88261 199.563 6.64823 203.237 3.94542 207.922C2.76265 209.957 1.75316 212.088 0.927606 214.293C0.732851 214.817 0.33782 215.242 -0.170615 215.476C-0.679049 215.709 -1.25926 215.73 -1.78364 215.536Z" fill="black" fill-opacity="0.05"/>
<path d="M78.7026 289.16C79.4057 289.568 80.7529 289.649 82.9185 288.499C83.1632 288.369 83.4311 288.288 83.707 288.262C83.9828 288.235 84.2611 288.263 84.526 288.345C84.791 288.426 85.0374 288.558 85.2511 288.734C85.4649 288.911 85.6418 289.127 85.7718 289.372C85.9018 289.617 85.9824 289.885 86.0088 290.16C86.0353 290.436 86.0072 290.715 85.9261 290.98C85.845 291.245 85.7125 291.491 85.5362 291.705C85.3599 291.918 85.1432 292.095 84.8985 292.225C82.2435 293.634 79.1779 294.307 76.5932 292.816C74.0001 291.317 73.0495 288.316 72.951 285.301C72.9408 284.747 73.1489 284.211 73.5304 283.81C73.9118 283.408 74.436 283.172 74.9897 283.154C75.5434 283.135 76.0822 283.336 76.4895 283.711C76.8969 284.086 77.1403 284.607 77.167 285.16C77.2514 287.621 77.9939 288.752 78.7026 289.16ZM76.2164 277.536C75.692 277.341 75.2665 276.946 75.0334 276.437C74.8003 275.929 74.7786 275.349 74.9732 274.824C75.8226 272.532 76.9335 270.164 78.292 267.813C81.217 262.745 84.8114 258.588 88.3382 255.989C90.0989 254.693 91.927 253.722 93.7185 253.275C95.5214 252.825 97.4226 252.878 99.0904 253.843C101.115 255.01 102.139 257.114 102.533 259.356C102.929 261.603 102.752 264.252 102.139 267.034C102.09 267.314 101.984 267.581 101.829 267.818C101.673 268.056 101.471 268.261 101.235 268.419C100.999 268.577 100.733 268.685 100.454 268.738C100.175 268.791 99.888 268.787 99.6104 268.726C99.3328 268.665 99.0704 268.549 98.8389 268.384C98.6074 268.219 98.4116 268.009 98.2632 267.767C98.1148 267.525 98.0169 267.255 97.9754 266.974C97.9339 266.693 97.9497 266.406 98.0217 266.131C98.5589 263.678 98.6489 261.614 98.3789 260.084C98.1089 258.548 97.5351 257.814 96.9839 257.497C96.5226 257.229 95.8167 257.097 94.7423 257.367C93.651 257.64 92.3235 258.295 90.8414 259.387C87.8826 261.563 84.6482 265.237 81.9454 269.922C80.7627 271.957 79.7532 274.088 78.9276 276.293C78.7329 276.817 78.3378 277.242 77.8294 277.476C77.321 277.709 76.7407 277.73 76.2164 277.536Z" fill="black" fill-opacity="0.05"/>
<path d="M91.6061 13.511C91.6061 14.5255 91.2031 15.4984 90.4857 16.2157C89.7684 16.933 88.7955 17.336 87.7811 17.336C86.7666 17.336 85.7937 16.933 85.0764 16.2157C84.359 15.4984 83.9561 14.5255 83.9561 13.511C83.9561 12.4966 84.359 11.5237 85.0764 10.8064C85.7937 10.089 86.7666 9.68604 87.7811 9.68604C88.7955 9.68604 89.7684 10.089 90.4857 10.8064C91.2031 11.5237 91.6061 12.4966 91.6061 13.511Z" fill="black" fill-opacity="0.05"/>
<path d="M13.6061 211.511C13.6061 212.525 13.2031 213.498 12.4857 214.216C11.7684 214.933 10.7955 215.336 9.78106 215.336C8.7666 215.336 7.7937 214.933 7.07637 214.216C6.35905 213.498 5.95605 212.525 5.95605 211.511C5.95605 210.497 6.35905 209.524 7.07637 208.806C7.7937 208.089 8.7666 207.686 9.78106 207.686C10.7955 207.686 11.7684 208.089 12.4857 208.806C13.2031 209.524 13.6061 210.497 13.6061 211.511Z" fill="black" fill-opacity="0.05"/>
<path d="M159.173 137.792C156.95 135.786 156.302 131.576 157.228 128.525C158.832 130.448 161.057 131.059 163.361 131.402C166.917 131.933 170.409 131.734 173.711 130.131C174.09 129.948 174.439 129.702 174.851 129.456C175.162 130.343 175.243 131.237 175.134 132.15C174.872 134.371 173.751 136.086 171.97 137.387C171.258 137.906 170.504 138.371 169.768 138.862C167.509 140.369 166.898 142.137 167.747 144.709L167.829 144.986C166.749 144.522 165.83 143.747 165.192 142.759C164.528 141.749 164.174 140.566 164.172 139.357C164.165 138.757 164.165 138.154 164.082 137.561C163.884 136.12 163.198 135.475 161.906 135.438C160.581 135.4 159.531 136.208 159.254 137.481C159.231 137.58 159.201 137.676 159.17 137.79H159.173V137.792ZM148 129.46C148 129.46 154.073 126.508 160.165 126.508L164.759 112.328C164.932 111.642 165.434 111.177 166 111.177C166.566 111.177 167.068 111.642 167.241 112.328L171.833 126.508C179.05 126.508 184 129.46 184 129.46L173.663 101.363C173.366 100.534 172.866 100 172.191 100H159.809C159.134 100 158.656 100.534 158.339 101.363L148 129.46Z" fill="black" fill-opacity="0.05"/>
<path d="M221.545 196.27C224.129 184.114 218.267 172.57 208.455 170.485C202.369 169.191 196.194 171.822 191.774 176.943C189.961 179.023 188.389 180.627 187.084 181.963C184.619 184.476 183.099 186.028 182.678 188.008C182.25 190.02 183.208 192.595 184.472 195.992C185.207 197.911 185.879 199.854 186.486 201.818C188.442 208.293 193.013 213.208 199.099 214.501C208.911 216.587 218.959 208.425 221.543 196.269L221.545 196.27ZM188.204 191.868C186.942 190.96 185.503 190.33 183.98 190.016C183.714 189.96 183.716 189.573 184.017 189.583C189.377 189.461 191.298 192.86 191.695 195.158C191.735 195.404 191.396 195.476 191.272 195.266C190.504 193.927 189.458 192.769 188.204 191.868ZM188.82 188.054C187.287 187.911 185.742 188.093 184.285 188.59L184.256 188.583C184.004 188.662 183.807 188.323 184.013 188.177C188.649 185.402 191.981 187.365 193.493 189.126C193.65 189.317 193.398 189.547 193.188 189.424C191.845 188.665 190.356 188.198 188.82 188.054ZM188.483 184.578C187.024 185.04 185.68 185.808 184.542 186.831L184.517 186.825C184.317 186.998 184.005 186.763 184.161 186.531C187.166 182.196 191.075 182.683 193.202 183.739C193.253 183.763 193.293 183.805 193.314 183.857C193.335 183.907 193.336 183.964 193.316 184.014C193.296 184.065 193.256 184.106 193.206 184.127C193.155 184.149 193.098 184.152 193.045 184.135C191.51 183.962 189.956 184.113 188.483 184.578ZM187.529 194.127C188.29 195.471 188.423 196.774 188.559 198.3C188.513 198.515 188.34 198.627 188.166 198.516C187.182 194.948 186.068 193.515 184.24 191.933C184.24 191.933 184.084 191.602 184.469 191.621C185.027 191.739 186.771 192.779 187.529 194.127ZM210.065 189.438C211.116 189.933 211.985 190.746 212.548 191.762C213.048 192.531 213.273 193.449 213.184 194.362C212.902 195.262 212.318 196.036 211.53 196.554C210.6 197.244 209.478 197.626 208.321 197.645C208.254 197.64 208.189 197.62 208.13 197.586C208.072 197.552 208.021 197.506 207.983 197.451C207.946 197.395 207.922 197.332 207.913 197.266C207.904 197.2 207.911 197.133 207.931 197.07L209.477 189.798C209.484 189.732 209.505 189.669 209.54 189.613C209.576 189.558 209.623 189.511 209.68 189.477C209.796 189.406 209.937 189.392 210.065 189.438ZM203.947 198.6C204.257 199.361 204.289 200.207 204.037 200.99C203.785 201.772 203.265 202.44 202.568 202.877C201.857 203.318 201.018 203.506 200.187 203.41C199.356 203.314 198.582 202.941 197.99 202.35C197.485 201.846 197.148 201.207 197.012 200.517C196.877 199.828 196.955 199.114 197.236 198.471C197.517 197.829 197.989 197.284 198.587 196.905C199.196 196.527 199.9 196.333 200.617 196.346C201.333 196.36 202.03 196.58 202.623 196.981C203.214 197.379 203.675 197.942 203.947 198.6ZM207.268 183.022C207.575 183.783 207.604 184.629 207.35 185.41C207.095 186.19 206.573 186.856 205.876 187.29C205.065 187.793 204.09 187.962 203.157 187.761C202.453 187.611 201.806 187.263 201.303 186.753C200.798 186.249 200.459 185.61 200.326 184.918C200.192 184.229 200.272 183.515 200.554 182.871C200.837 182.228 201.309 181.682 201.911 181.304C202.521 180.928 203.227 180.736 203.944 180.753C204.66 180.769 205.357 180.992 205.949 181.396C206.539 181.796 206.998 182.362 207.268 183.022Z" fill="black" fill-opacity="0.05"/>
<path d="M144.424 208.96C145.097 208.902 145.795 209.022 146.417 209.312L152.927 212.432C153.896 212.873 153.46 213.093 153.168 213.22C151.972 213.759 151.729 213.872 150.48 214.739C150.347 214.832 150.164 214.817 150.015 214.739L145.013 212.336C144.834 212.251 144.593 212.272 144.441 212.386L126.845 224.703C126.684 224.818 126.591 225.029 126.608 225.229L128.48 246.62C128.498 246.831 128.625 247.012 128.815 247.106L148.272 256.171C148.451 256.257 148.682 256.237 148.844 256.121L166.419 243.806C166.591 243.69 166.684 243.48 166.666 243.269L164.795 221.888C164.777 221.688 164.65 221.497 164.461 221.422L159.128 218.937C156.248 217.803 154.704 219.566 154.847 221.202L156.694 242.312C156.72 242.613 156.5 242.865 156.199 242.891L153.851 243.096C153.56 243.122 153.289 242.913 153.263 242.612L151.415 221.492C151.094 217.82 152.916 215.537 156.398 215.233C157.471 215.139 158.314 215.065 160.764 216.023L165.865 218.398C167.129 218.985 167.985 220.214 168.107 221.609L169.977 242.99C170.099 244.374 169.47 245.744 168.327 246.541L150.751 258.856C149.635 259.621 148.08 259.757 146.858 259.197L127.39 250.113C126.126 249.526 125.27 248.296 125.148 246.902L123.277 225.521C123.156 224.136 123.785 222.777 124.928 221.969L142.524 209.652C143.086 209.259 143.742 209.02 144.424 208.96ZM131.309 231.349C131.659 235.352 134.461 236.179 140.216 236.434C146.042 236.692 146.658 237.033 146.776 238.377C146.873 239.491 146.511 241.019 142.247 241.392C138.445 241.725 136.968 241.025 136.161 238.507C136.09 238.271 135.854 238.109 135.603 238.131L133.195 238.342C133.044 238.355 132.909 238.428 132.818 238.547C132.728 238.666 132.691 238.821 132.714 238.971C133.472 243.363 136.592 245.162 142.532 244.643C147.819 244.18 150.775 241.677 150.447 237.935C150.093 233.881 146.854 233.032 141.743 232.974C135.621 232.913 135.072 232.061 134.967 230.867C134.786 228.8 136.375 227.772 140.278 227.43C145.184 227.001 146.365 228.141 146.94 230.548C147.003 230.805 147.24 230.976 147.511 230.953L149.909 230.743C150.21 230.717 150.42 230.456 150.394 230.165C150.121 227.044 148.1 223.47 139.983 224.18C134.125 224.703 130.956 227.316 131.309 231.349Z" fill="black" fill-opacity="0.05"/>
<path d="M218.126 137.716C219.045 139.246 219.515 141.003 219.48 142.788C219.432 144.767 219.837 146.731 220.664 148.53C221.491 150.329 222.719 151.915 224.253 153.166C226.172 155.023 228.72 156.088 231.389 156.151C234.058 156.213 236.653 155.268 238.656 153.503C237.203 154.007 235.628 154.038 234.157 153.59C232.685 153.141 231.394 152.238 230.469 151.01C229.563 149.469 229.099 147.708 229.129 145.92C229.165 143.946 228.749 141.99 227.915 140.2C227.08 138.411 225.848 136.835 224.313 135.593C222.394 133.737 219.846 132.672 217.177 132.609C214.508 132.547 211.913 133.492 209.91 135.256C211.362 134.731 212.945 134.686 214.424 135.129C215.904 135.572 217.202 136.479 218.126 137.716ZM247.735 147.934C246.816 146.404 246.347 144.646 246.381 142.862C246.43 140.882 246.025 138.918 245.198 137.119C244.371 135.32 243.143 133.735 241.609 132.483C239.69 130.627 237.142 129.561 234.473 129.499C231.804 129.436 229.209 130.382 227.205 132.146C228.658 131.642 230.234 131.612 231.705 132.06C233.177 132.508 234.468 133.411 235.393 134.64C236.299 136.181 236.762 137.942 236.733 139.729C236.702 141.703 237.12 143.657 237.954 145.446C238.788 147.235 240.017 148.811 241.549 150.056C243.468 151.912 246.015 152.978 248.685 153.04C251.354 153.103 253.948 152.158 255.952 150.393C254.5 150.919 252.917 150.963 251.438 150.52C249.958 150.077 248.66 149.171 247.735 147.934Z" fill="black" fill-opacity="0.05"/>
<path d="M82.9874 231.368C83.2359 231.159 83.4226 230.912 83.5763 230.661C82.8694 230.74 82.282 230.548 81.7776 230.197C81.7157 230.144 81.6611 230.114 81.6007 230.059C81.5455 230.015 81.4942 229.967 81.447 229.914C80.7557 229.16 80.9124 228.86 80.6924 228.256C80.4508 227.443 79.8414 226.863 79.0985 226.608C79.0121 226.562 78.9211 226.526 78.8271 226.5C81.0544 228.469 79.4589 230.383 79.7033 231.377C80.1919 232.015 81.0424 231.999 81.6818 231.947C82.1627 231.881 82.615 231.679 82.9862 231.366L82.9874 231.368ZM79.731 233.236C79.5931 233.002 79.6119 233.077 79.5313 232.963C79.4797 232.884 79.4049 232.795 79.3545 232.718C79.3129 232.63 79.2699 232.544 79.2381 232.451C79.1951 232.364 79.1607 232.271 79.1304 232.176L79.0555 231.892C79.0541 231.832 79.0397 231.782 79.0369 231.724L79.0237 231.6C79.015 231.504 79.0097 231.407 79.0079 231.31C79.0152 231.211 79.0079 231.112 79.0338 231.014L79.0265 231.005C79.0423 230.916 79.0509 230.819 79.0755 230.72C79.1429 230.421 79.2663 230.136 79.351 229.837C79.3766 229.742 79.4084 229.652 79.417 229.554C79.4418 229.461 79.4585 229.366 79.4672 229.27C79.4843 229.165 79.4843 229.074 79.4844 228.967C79.4843 228.876 79.4856 228.77 79.4685 228.676C79.4628 228.579 79.4522 228.481 79.4368 228.385C79.4124 228.283 79.3865 228.199 79.3633 228.099C79.3303 228.004 79.3044 227.921 79.2628 227.833C79.2248 227.74 79.1831 227.649 79.1377 227.559C79.1162 227.516 79.0789 227.471 79.0586 227.429C79.0385 227.385 79.0084 227.349 78.9868 227.306C78.9266 227.234 78.8689 227.148 78.8087 227.076C78.7641 227.023 78.7195 226.97 78.6663 226.924C78.606 226.852 78.5371 226.788 78.4522 226.724C78.3833 226.66 78.3058 226.602 78.2283 226.545C78.1405 226.499 78.0642 226.443 77.9781 226.393C77.9233 226.365 77.8588 226.341 77.81 226.321L80.5235 225.395C80.9516 225.202 81.3653 225.007 81.7804 224.796L82.4527 224.459C83.0762 224.117 83.6866 223.742 84.2741 223.339C84.2928 223.324 84.3086 223.325 84.3259 223.311C85.3204 222.633 86.2542 221.87 87.1166 221.03C87.6294 220.539 88.1133 220.013 88.5815 219.468C88.9266 219.06 89.2577 218.64 89.574 218.209L89.8855 217.767C89.9731 217.603 90.0476 217.435 90.1254 217.277L90.3077 216.896C90.3177 216.873 90.335 216.859 90.3364 216.843C90.3895 216.722 90.4384 216.62 90.4814 216.508C90.5543 216.36 90.6199 216.209 90.6782 216.054C90.7182 215.977 90.7499 215.889 90.7816 215.816C90.7938 215.778 90.8081 215.742 90.8244 215.706C90.8663 215.593 90.9093 215.481 90.9438 215.376C90.9831 215.274 91.0166 215.17 91.0443 215.064C91.0713 214.968 91.103 214.88 91.1187 214.791C91.1189 214.774 91.129 214.765 91.1304 214.75C91.1534 214.669 91.1778 214.573 91.195 214.482L91.1978 214.451L91.2422 214.232C91.251 214.208 91.2552 214.175 91.2652 214.152C91.2796 214.079 91.2867 213.997 91.3023 213.925C91.2953 213.899 91.3055 213.873 91.3081 213.859C91.3155 213.76 91.3312 213.671 91.3398 213.573C91.3498 213.564 91.3426 213.556 91.344 213.54C91.3588 213.445 91.3693 213.35 91.3757 213.254C91.3785 213.237 91.3713 213.228 91.3799 213.221C91.3882 213.136 91.3926 213.051 91.3929 212.965C91.3957 212.934 91.4071 212.895 91.4113 212.862C91.4117 212.765 91.4174 212.669 91.4286 212.573C91.4227 212.549 91.4315 212.524 91.4269 212.501C91.4385 212.369 91.44 212.245 91.4515 212.113L91.4557 212.066C91.4716 211.793 91.4958 211.516 91.5446 211.247C91.5835 210.97 91.6421 210.695 91.714 210.437C91.8503 209.908 92.0473 209.397 92.3011 208.914C92.4203 208.677 92.5568 208.44 92.7003 208.214C93.0063 207.82 93.2632 207.348 93.5692 207.044C93.6411 206.984 93.7056 206.9 93.7702 206.832L93.9482 206.592L94.0947 206.332C94.1437 206.244 94.1839 206.149 94.2254 206.056C94.2512 205.958 94.2914 205.863 94.3173 205.765C94.3422 205.666 94.359 205.566 94.3676 205.464C94.3932 205.369 94.4034 205.253 94.412 205.155C94.4133 205.049 94.4218 204.951 94.4133 204.85C94.3976 204.741 94.3989 204.635 94.3746 204.533C94.367 204.429 94.3516 204.326 94.3284 204.224C94.2968 204.113 94.2724 204.011 94.232 203.911C94.199 203.816 94.1574 203.714 94.1184 203.612C94.0754 203.526 94.0338 203.438 93.9807 203.36C93.9747 203.353 93.9763 203.335 93.9691 203.326C93.9188 203.231 93.8296 203.125 93.7951 203.063C93.7507 202.993 93.7159 202.934 93.6629 202.871C93.5346 202.715 93.3697 202.592 93.183 202.515L93.1757 202.506C93.1039 202.476 93.0221 202.451 92.9416 202.428C92.8626 202.404 92.7806 202.382 92.693 202.365C92.6111 202.358 92.5121 202.348 92.4202 202.35C92.3246 202.341 92.2285 202.341 92.1328 202.348C91.7621 202.341 91.6572 202.324 91.2621 202.413C91.1946 202.423 91.1357 202.443 91.0582 202.462C91.0496 202.469 91.0337 202.468 91.0251 202.475C91.0094 202.456 91.0022 202.448 90.9791 202.438C90.8351 202.308 90.6759 202.197 90.5051 202.106C90.4317 202.077 90.3699 202.038 90.2995 202.007C90.2737 201.997 90.2507 201.987 90.2334 201.986C90.1386 201.944 90.0509 201.912 89.9634 201.878L89.6731 201.803C89.584 201.787 89.4776 201.771 89.3787 201.761C89.2809 201.753 89.1904 201.753 89.0826 201.753C89.0826 201.753 89.0668 201.751 89.0582 201.759C88.9677 201.759 88.8772 201.759 88.7925 201.769C88.6941 201.777 88.5965 201.794 88.5007 201.818C88.4088 201.834 88.3069 201.858 88.2136 201.89C88.1345 201.912 88.0575 201.941 87.9837 201.977C87.9664 201.977 87.9577 201.984 87.9333 201.99C87.8889 202.01 87.8372 202.039 87.7955 202.059C87.4176 201.556 87.0466 201.097 86.8398 200.996C86.6113 200.884 86.6748 201.756 86.8072 202.708C86.343 202.049 85.7739 201.298 85.5067 201.158C85.2208 201.018 85.2713 202.161 85.4497 203.315C80.3616 210.072 70.9429 210.544 65.1678 204.889C66.0902 205.755 67.7223 205.294 68.1531 204.705C67.8683 203.823 67.6123 202.596 67.9009 201.458C68.3332 202.099 68.8653 202.68 69.4844 203.164C68.9959 202.177 68.7303 201.095 68.7064 199.994C69.4991 199.224 70.6886 198.923 71.6497 199.164C71.7073 199.16 71.7605 199.206 71.8179 199.219C71.8956 199.259 71.9759 199.299 72.0464 199.345C72.1223 199.383 72.1928 199.431 72.2562 199.487C72.3179 199.543 72.3697 199.605 72.43 199.677L72.542 199.811C72.5844 199.883 72.6219 199.957 72.6542 200.035C72.6873 200.112 72.7219 200.188 72.7477 200.274C72.765 200.365 72.7908 200.451 72.7981 200.55C73.0064 201.105 73.2981 201.452 73.745 201.425C73.8279 201.415 73.9096 201.397 73.9892 201.372C74.0309 201.352 74.0899 201.331 74.1342 201.311L74.2277 201.277C74.3053 201.245 74.3802 201.208 74.4518 201.165C74.5274 201.132 74.5979 201.088 74.6614 201.035C74.7346 200.991 74.8047 200.942 74.8712 200.889C74.9158 200.851 74.9531 200.805 74.9976 200.768C75.0645 200.713 75.123 200.648 75.1715 200.576C75.226 200.515 75.2805 200.455 75.3293 200.384C75.3785 200.314 75.4232 200.241 75.463 200.165C75.503 200.087 75.5333 200.015 75.5736 199.935C75.605 199.864 75.628 199.784 75.6683 199.703C76.6071 196.61 72.7102 194.48 70.5253 194.75C70.9777 194.204 71.4242 193.633 71.4774 193.39L71.4816 193.357C70.9041 193.448 70.3382 193.588 69.778 193.769C69.0511 194.06 68.3054 194.4 67.978 194.552L67.9708 194.544C67.1061 195.011 66.3064 195.59 65.5923 196.265C61.8795 199.851 61.1655 205.563 63.8948 210.008L63.6476 209.822C63.4853 209.684 63.3087 209.543 63.149 209.391L63.1417 209.382C63.057 209.316 62.9809 209.243 62.9106 209.18L62.8817 209.145C62.8055 209.072 62.7294 208.999 62.6692 208.927C62.5786 208.837 62.488 208.746 62.4061 208.648L62.2856 208.505C62.2494 208.462 62.1948 208.417 62.1574 208.373C62.1116 208.318 62.0771 208.256 62.0325 208.203L61.9276 208.078C61.8758 208.017 61.8398 207.956 61.7868 207.893C61.7566 207.857 61.7265 207.821 61.699 207.771C61.6459 207.708 61.6027 207.639 61.5425 207.567C61.5294 207.534 61.5065 207.506 61.4848 207.481L61.3412 207.251C61.3183 207.224 61.2966 207.198 61.2809 207.165C61.2162 207.067 61.166 206.972 61.0999 206.876L61.0854 206.859L60.9288 206.564L60.9071 206.538L60.759 206.254C60.7506 206.244 60.745 206.217 60.7389 206.21C60.687 206.114 60.64 206.016 60.5982 205.916L60.5765 205.891C60.5291 205.779 60.4874 205.676 60.4386 205.58C60.44 205.565 60.4328 205.556 60.4328 205.556L60.289 205.221C60.2488 205.103 60.2086 205 60.1698 204.881C60.131 204.762 60.0821 204.651 60.0505 204.54C60.0117 204.421 59.9813 204.312 59.9399 204.193L59.9499 204.184C59.9181 204.076 59.8807 203.956 59.8563 203.839C59.8459 203.812 59.8377 203.783 59.8318 203.755C59.8332 203.739 59.8247 203.729 59.8261 203.713C59.4258 202.04 59.4234 200.297 59.8189 198.623C59.8534 198.518 59.878 198.404 59.9052 198.291C59.908 198.259 59.9266 198.229 59.9308 198.196C59.955 198.096 59.9823 197.996 60.0128 197.897L59.9424 197.866L59.9323 197.874L59.6035 198.241L59.5949 198.248C59.3938 198.478 59.1999 198.716 59.006 198.955C58.95 199.017 58.8953 199.094 58.8466 199.165L58.7445 199.297C58.69 199.357 58.6427 199.426 58.5867 199.488C58.5492 199.551 58.5045 199.606 58.4646 199.666C57.7549 200.629 57.1375 201.646 56.5992 202.688C56.3948 199.538 56.9946 196.389 58.3423 193.535C57.377 194.467 56.4954 195.493 55.747 196.608C53.0527 200.661 52.0572 205.61 52.9749 210.389C51.6116 208.02 50.7888 205.379 50.5652 202.655C50.18 203.948 49.9389 205.28 49.8465 206.626C49.5995 210.378 50.5069 214.117 52.4468 217.338C50.964 216.184 49.6577 214.808 48.5883 213.265C49.6839 227.621 63.3761 231.971 67.896 232.349C67.9203 232.36 67.9361 232.361 67.9506 232.379C67.952 232.363 67.952 232.363 67.9447 232.354C67.952 232.363 67.952 232.363 67.9692 232.363C67.8801 232.257 67.7995 232.143 67.7177 232.028C67.5751 231.808 67.438 231.585 67.3066 231.357C67.1858 231.126 67.0752 230.883 66.9633 230.642C66.8698 230.402 66.7763 230.148 66.7015 229.892C66.6281 229.64 66.5648 229.384 66.5116 229.127C66.4175 228.611 66.3693 228.088 66.3675 227.564C66.3673 227.292 66.3902 227.03 66.4133 226.766C66.4329 226.619 66.4568 226.473 66.4851 226.327L66.5396 225.978C66.5932 225.719 66.6627 225.463 66.7475 225.213C66.8257 224.961 66.9163 224.712 67.0189 224.469C67.1309 224.223 67.2501 223.986 67.3694 223.749C67.6283 223.285 67.9318 222.848 68.2755 222.443C68.4508 222.235 68.6403 222.046 68.8214 221.862C68.9549 221.733 69.0924 221.608 69.2335 221.487C69.4383 221.32 69.6506 221.162 69.8698 221.015C70.0865 220.86 70.3135 220.72 70.5492 220.596C70.7818 220.463 71.0233 220.347 71.2718 220.247L71.2819 220.238C71.1007 220.422 70.9199 220.603 70.7532 220.804C70.4107 221.21 70.1073 221.648 69.8471 222.111C69.712 222.346 69.6 222.592 69.4966 222.83C69.3846 223.076 69.2971 223.316 69.2082 223.572C69.1351 223.829 69.0647 224.086 69.0087 224.346C68.9526 224.606 68.9139 224.866 68.891 225.128C68.8523 225.388 68.8453 225.651 68.8395 225.915C68.8397 226.187 68.8497 226.452 68.8686 226.708C68.8728 226.751 68.8842 226.803 68.8887 226.843C68.9202 227.062 68.9504 227.278 68.9893 227.488C69.0904 228.007 69.2425 228.515 69.4436 229.004C69.5371 229.244 69.6565 229.476 69.7771 229.71C69.9123 229.944 70.0403 230.17 70.1882 230.381C70.3421 230.6 70.4958 230.821 70.6597 231.016C70.7802 231.16 70.9096 231.293 71.0375 231.428C71.2226 231.613 71.4133 231.792 71.6095 231.964C71.8125 232.136 72.0235 232.298 72.2418 232.449C72.4617 232.583 72.6886 232.728 72.917 232.854C73.1455 232.981 73.3898 233.094 73.6283 233.198C73.8769 233.292 74.124 233.389 74.3725 233.469C74.6258 233.54 74.8813 233.603 75.1385 233.658C75.3998 233.699 75.6612 233.739 75.9299 233.77C76.0689 233.784 76.2084 233.793 76.348 233.799C77.0117 233.773 77.6741 233.717 78.3176 233.632C78.403 233.617 78.4875 233.597 78.5705 233.571C78.9702 233.511 79.3613 233.4 79.731 233.236Z" fill="black" fill-opacity="0.05"/>
<path d="M116.805 130L90.416 167.816L101.214 183.539L118.615 191.471L151.277 158.925L116.805 130ZM134.793 164.704L118.279 150.847L114.965 155.598L130.691 168.794L118.389 181.049L107.504 176.086L107.478 176.077L100.699 166.205L105.778 158.921L110.11 162.556L107.53 166.254L111.249 171.587L117.156 174.328L122.353 169.152L107.397 156.603L117.182 142.575L138.8 160.714L134.793 164.704Z" fill="black" fill-opacity="0.05"/>
<path fill-rule="evenodd" clip-rule="evenodd" d="M86.3193 126.289L120.808 92.9309L113.303 75.4858L97.7992 64.5176L57.9999 91.317L86.3193 126.289ZM75.7406 88.6101L88.884 95.2801L88.9159 95.2985L80.7249 85.1835L95.5733 75.0772L105.515 81.789L105.52 81.8084L105.526 81.8034L110.013 93.014L103.475 99.2622L99.8733 94.8147L103.269 91.5881L100.668 85.8059L100.622 85.7748L100.628 85.7698L95.1829 82.0149L89.0632 86.4119L93.313 91.6935L101.243 101.553L97.1285 105.44L84.4652 98.8584L83.7283 98.4741L92.7539 109.62L88.7007 113.784L70.9045 91.8076L75.7406 88.6101Z" fill="black" fill-opacity="0.05"/>
<path d="M4 137.846L27.8464 176.008L66.0085 152.162L42.1622 114L4 137.846ZM44.5055 157.751C44.6575 159.247 44.0521 160.671 43.033 161.813C41.3932 163.449 39.4054 164.342 37.5323 164.376C36.2711 164.386 35.0212 163.97 33.9181 163.28L35.7124 159.684C35.7444 159.679 35.9069 159.769 36.1203 159.884C36.879 160.273 37.4733 160.513 38.2945 160.429C39.0434 160.254 40.4828 159.542 40.3273 158.129C40.3016 157.376 39.0901 155.664 37.8621 153.698C35.9321 150.611 34.0248 147.526 32.1171 144.473L35.6919 142.24C37.7903 145.598 39.7961 148.767 41.8255 152.056C43.0884 154.06 44.3818 155.742 44.5055 157.751ZM58.704 147.474C60.1173 152.501 53.2758 156.968 48.7526 155.89C47.7546 155.594 47.1722 155.478 46.3465 154.933C47.2889 153.168 47.2889 153.168 48.2029 151.445C49.7274 152.154 50.8571 152.362 52.3187 151.823C54.2075 150.941 55.5962 149.235 54.0356 147.618C52.6775 146.35 49.2597 147.971 46.0739 147.698C42.9485 147.595 40.1876 144.325 40.714 141.142C40.8426 140.006 41.5167 138.796 42.4255 137.85L43.4604 137.001C45.5949 135.606 47.3029 135.333 48.987 135.821C49.4377 135.928 49.8515 136.089 50.6812 136.479C49.9883 137.933 49.9876 137.923 49.0053 140.022C48.1788 139.483 47.2965 139.372 46.5493 139.551C45.4084 139.86 44.3963 140.932 44.7787 142.102C44.8868 142.469 45.0864 142.748 45.5471 143.178C46.4896 143.821 48.0346 143.392 49.5404 143.198C53.7617 142.46 55.814 143.214 57.183 144.782C58.3901 146.115 58.6642 147.297 58.704 147.474Z" fill="black" fill-opacity="0.05"/>
<path d="M191 259.846L214.846 298.008L253.009 274.162L229.162 236L191 259.846ZM231.506 279.751C231.657 281.247 231.052 282.671 230.033 283.813C228.393 285.449 226.405 286.342 224.532 286.376C223.271 286.386 222.021 285.97 220.918 285.28L222.712 281.684C222.744 281.679 222.907 281.769 223.12 281.884C223.879 282.273 224.473 282.513 225.294 282.429C226.043 282.254 227.483 281.542 227.327 280.129C227.302 279.376 226.09 277.664 224.862 275.698C222.932 272.611 221.025 269.526 219.117 266.473L222.692 264.24C224.79 267.598 226.796 270.767 228.826 274.056C230.088 276.06 231.382 277.742 231.506 279.751ZM245.704 269.474C247.117 274.501 240.276 278.968 235.753 277.89C234.755 277.594 234.172 277.478 233.347 276.933C234.289 275.168 234.289 275.168 235.203 273.445C236.727 274.154 237.857 274.362 239.319 273.823C241.207 272.941 242.596 271.235 241.036 269.618C239.677 268.35 236.26 269.971 233.074 269.698C229.949 269.595 227.188 266.325 227.714 263.142C227.843 262.006 228.517 260.796 229.425 259.85L230.46 259.001C232.595 257.606 234.303 257.333 235.987 257.821C236.438 257.928 236.851 258.089 237.681 258.479C236.988 259.933 236.988 259.923 236.005 262.022C235.179 261.483 234.297 261.372 233.549 261.551C232.408 261.86 231.396 262.932 231.779 264.102C231.887 264.469 232.086 264.748 232.547 265.178C233.49 265.821 235.035 265.392 236.54 265.198C240.762 264.46 242.814 265.214 244.183 266.782C245.39 268.115 245.664 269.297 245.704 269.474Z" fill="black" fill-opacity="0.05"/>
<path d="M192 -1.15381L215.846 37.0084L254.009 13.162L230.162 -25.0002L192 -1.15381ZM232.506 18.7507C232.657 20.2473 232.052 21.6711 231.033 22.8126C229.393 24.4486 227.405 25.3422 225.532 25.3758C224.271 25.3862 223.021 24.9701 221.918 24.2802L223.712 20.6842C223.744 20.679 223.907 20.7693 224.12 20.8839C224.879 21.2733 225.473 21.5132 226.294 21.4292C227.043 21.2541 228.483 20.5419 228.327 19.1287C228.302 18.3764 227.09 16.6637 225.862 14.6985C223.932 11.6106 222.025 8.52637 220.117 5.4734L223.692 3.23966C225.79 6.59793 227.796 9.76707 229.826 13.0556C231.088 15.0597 232.382 16.7416 232.506 18.7507ZM246.704 8.47431C248.117 13.5011 241.276 17.9681 236.753 16.8898C235.755 16.5944 235.172 16.4782 234.347 15.9333C235.289 14.1677 235.289 14.1677 236.203 12.4449C237.727 13.1543 238.857 13.3623 240.319 12.823C242.207 11.9408 243.596 10.2346 242.036 8.61815C240.677 7.35024 237.26 8.97099 234.074 8.69819C230.949 8.59528 228.188 5.32495 228.714 2.14162C228.843 1.00557 229.517 -0.203575 230.425 -1.15008L231.46 -1.99927C233.595 -3.39378 235.303 -3.66723 236.987 -3.17942C237.438 -3.07223 237.851 -2.91138 238.681 -2.521C237.988 -1.06748 237.988 -1.07679 237.005 1.02187C236.179 0.483052 235.297 0.372117 234.549 0.551243C233.408 0.860004 232.396 1.93182 232.779 3.10222C232.887 3.46891 233.086 3.7483 233.547 4.17783C234.49 4.82126 236.035 4.39157 237.54 4.19816C241.762 3.45967 243.814 4.21356 245.183 5.78206C246.39 7.11464 246.664 8.29713 246.704 8.47431Z" fill="black" fill-opacity="0.05"/>
<path d="M19.314 79.4604C17.2726 79.6234 15.2303 79.156 13.4629 78.1214C11.6956 77.0867 10.2883 75.5346 9.43116 73.6747C8.89941 72.5626 8.59504 71.3556 8.53592 70.1244C8.47679 68.8932 8.6641 67.6626 9.08686 66.5047C9.22835 66.1249 9.39596 65.7554 9.58848 65.3987L9.9471 64.7275L10.5018 65.3058C11.7791 66.6424 13.2752 67.7512 14.9256 68.5845L15.3625 68.8057L15.2367 69.2594C15.066 69.9036 15.1286 70.5873 15.4135 71.1898C15.6713 71.7502 16.0949 72.218 16.6271 72.53C17.1593 72.8419 17.7745 72.983 18.3894 72.9341C18.6712 72.91 18.9477 72.843 19.2093 72.7354L33.0081 67.0181C33.3449 66.8802 33.6492 66.6737 33.9018 66.4118C34.1544 66.1498 34.3497 65.8382 34.4754 65.4967C34.6028 65.1476 34.6595 64.7767 34.642 64.4055C34.6246 64.0343 34.5334 63.6703 34.3738 63.3348C34.1157 62.7745 33.6921 62.3069 33.1599 61.995C32.6278 61.6831 32.0128 61.5419 31.3979 61.5905C31.116 61.6145 30.8396 61.6815 30.578 61.7891L25.3124 63.9725C24.4468 64.3306 23.5316 64.5543 22.5984 64.6358C20.5572 64.799 18.515 64.332 16.7476 63.2977C14.9802 62.2635 13.5727 60.7118 12.7152 58.8522C12.1835 57.7398 11.8794 56.5324 11.8207 55.3008C11.762 54.0692 11.95 52.8383 12.3735 51.6804C12.7904 50.5461 13.4394 49.5112 14.279 48.6419C15.1186 47.7727 16.1304 47.0882 17.2496 46.6322L31.0466 40.9123C31.9121 40.554 32.8274 40.3303 33.7606 40.2491C35.802 40.0861 37.8443 40.5535 39.6117 41.5882C41.379 42.6228 42.7863 44.1749 43.6434 46.0349C44.1752 47.1469 44.4795 48.3539 44.5387 49.5851C44.5978 50.8163 44.4105 52.047 43.9877 53.2048C43.8459 53.5845 43.6783 53.954 43.4861 54.3108L43.1275 54.9821L42.575 54.4041C41.2975 53.0662 39.8008 51.9564 38.1494 51.1228L37.7124 50.9016L37.8378 50.4501C38.0088 49.8053 37.9464 49.1208 37.6615 48.5175C37.4033 47.9574 36.9795 47.4901 36.4472 47.1785C35.915 46.867 35.2999 46.7263 34.6852 46.7755C34.4033 46.7995 34.1269 46.8665 33.8653 46.9741L20.0665 52.6914C19.7296 52.8291 19.4251 53.0355 19.1725 53.2975C18.9198 53.5594 18.7246 53.8712 18.5992 54.2128C18.4715 54.5618 18.4147 54.9328 18.4322 55.304C18.4496 55.6752 18.5409 56.0393 18.7008 56.3747C18.9588 56.935 19.3825 57.4026 19.9147 57.7145C20.4468 58.0264 21.0618 58.1676 21.6767 58.1191C21.9595 58.0946 22.2368 58.027 22.4992 57.9186L27.7626 55.7348C28.628 55.3771 29.5432 55.1542 30.4762 55.0738C32.5174 54.9105 34.5596 55.3775 36.327 56.4118C38.0944 57.446 39.5019 58.9977 40.3594 60.8573C40.8911 61.9697 41.1952 63.1772 41.2539 64.4087C41.3126 65.6403 41.1246 66.8712 40.7011 68.0291C40.2842 69.1638 39.6351 70.199 38.7955 71.0686C37.9558 71.9382 36.944 72.6231 35.8246 73.0795L22.028 78.7972C21.1625 79.1555 20.2472 79.3792 19.314 79.4604ZM49.3237 43.6797C45.6277 35.7288 36.2288 31.9093 28.3739 35.1646L14.575 40.8819C12.7139 41.6408 11.0316 42.7797 9.63557 44.2257C8.23958 45.6718 7.16066 47.3932 6.46775 49.2799C5.29706 52.4581 5.22009 55.9359 6.24905 59.1627C4.90291 60.5856 3.85925 62.2666 3.18112 64.1042C2.47771 66.0295 2.16581 68.0759 2.26371 70.1234C2.36161 72.1708 2.86735 74.1781 3.75126 76.0276C7.44951 83.9789 16.8462 87.798 24.7007 84.5449L38.4995 78.8277C40.3608 78.069 42.0433 76.9302 43.4393 75.4841C44.8353 74.038 45.9142 72.3165 46.6068 70.4296C47.7776 67.2517 47.8554 63.7742 46.8277 60.5472C48.1724 59.1237 49.2146 57.4425 49.8912 55.6049C50.5956 53.6796 50.9082 51.6329 50.8107 49.5851C50.7132 47.5372 50.2077 45.5295 49.3237 43.6797Z" fill="black" fill-opacity="0.05"/>
<path d="M160.757 51.6172L154.462 46.3354L151.256 56.5483L160.757 51.6172ZM141.236 68.4894L163.63 76.8057L180.124 51.8098L172.305 31.4626L150.91 27.2961L129.158 47.8803L141.236 68.4894ZM154.186 31.2123L158.203 34.5833L155.833 41.8068L164.979 49.4809L171.681 45.8925L175.698 49.2636L144.669 64.398L154.186 31.2123Z" fill="black" fill-opacity="0.05"/>
<path d="M209.785 65L209.46 83.6347L216.048 87.6128L209.325 91.3585L209 109.993L248.349 88.1766L209.785 65ZM232.77 87.9046L210.331 100.34L210.476 92.0349L218.391 87.6537L210.634 82.9988L210.779 74.6938L232.77 87.9046Z" fill="black" fill-opacity="0.05"/>
</g>
<defs>
<clipPath id="clip0_217_448">
<rect width="260" height="260" fill="white"/>
</clipPath>
</defs>
</svg>
