<svg width="38" height="38" viewBox="0 0 38 38" >
<path fill-rule="evenodd" clip-rule="evenodd" d="M20.9532 0.00233654C22.3396 -0.00298115 23.7261 0.0109501 25.1121 0.044138L25.4807 0.057436C25.8932 0.0721684 26.3003 0.0904713 26.7868 0.112337L26.8334 0.114435C28.8549 0.209429 30.2342 0.528612 31.4445 0.997889C32.6984 1.48046 33.7548 2.13403 34.8111 3.19038C35.777 4.13958 36.5245 5.28777 37.0017 6.5551C37.471 7.76534 37.7902 9.14657 37.8852 11.1681C37.908 11.6734 37.927 12.0952 37.9422 12.5208L37.9536 12.8894C37.9873 14.2748 38.0019 15.6606 37.9973 17.0464L37.9991 18.4637V20.9526C38.0038 22.339 37.9893 23.7254 37.9554 25.1115L37.944 25.48C37.9293 25.8925 37.911 26.2995 37.8892 26.786L37.8871 26.8328C37.7921 28.8543 37.4691 30.2336 37.0017 31.4438C36.5261 32.7125 35.7784 33.8616 34.8111 34.8105C33.8611 35.7762 32.7123 36.5237 31.4445 37.001C30.2342 37.4703 28.8549 37.7895 26.8334 37.8845L26.7868 37.8866L26.7845 37.8867C26.299 37.9085 25.8925 37.9268 25.4807 37.9415L25.1121 37.9529C23.7261 37.9867 22.3396 38.0012 20.9532 37.9966L19.5359 37.9985H17.0489C15.6625 38.0032 14.2761 37.9886 12.89 37.9548L12.5215 37.9434C12.0704 37.927 11.6195 37.908 11.1687 37.8864C9.14723 37.7914 7.7679 37.4684 6.55576 37.001C5.28792 36.5248 4.13954 35.7772 3.19102 34.8105C2.22408 33.861 1.47585 32.7121 0.99855 31.4438C0.529266 30.2336 0.210083 28.8543 0.115097 26.8328C0.0939328 26.3819 0.0749356 25.931 0.0580899 25.48L0.0485989 25.1115C0.0135647 23.7254 -0.00227387 22.339 0.00109832 20.9526V17.0464C-0.00421174 15.6606 0.00973479 14.2748 0.0428921 12.8894L0.0561978 12.5208C0.0713956 12.0952 0.0903928 11.6734 0.113189 11.1681C0.208191 9.14467 0.527374 7.76724 0.996643 6.5551C1.47423 5.28715 2.22391 4.13928 3.19293 3.19228C4.14078 2.22476 5.28845 1.47585 6.55576 0.997889C7.7679 0.528612 9.14532 0.209429 11.1687 0.114435L12.5215 0.057436L12.89 0.0479374C14.2754 0.0129261 15.6612 -0.00290486 17.047 0.00043682L20.9532 0.00233654ZM29.5818 8L21.5379 17.1908L31 29.6984H23.5915L17.795 22.1117L11.1537 29.6984H7.47272L16.0746 19.8644L7 8H14.5945L19.8408 14.9357L25.9009 8H29.5818ZM26.6526 27.4976L13.4863 10.0846H11.2932L24.6067 27.4976H26.6448H26.6526Z" />
</svg>
